STARTFONT 2.1
COMMENT This file is part of bdf-tewi.
COMMENT 
COMMENT Tewi is free software: you can redistribute it and/or modify
COMMENT it under the terms of the GNU General Public License as published by
COMMENT the Free Software Foundation, either version 3 of the License, or
COMMENT (at your option) any later version.
COMMENT 
COMMENT Tewi is distributed in the hope that it will be useful,
COMMENT but WITHOUT ANY WARRANTY; without even the implied warranty of
COMMENT MERCHANTABILITY or FITNESS FOR A PARTICULAR PURPOSE.  See the
COMMENT GNU General Public License for more details.
COMMENT 
COMMENT You should have received a copy of the GNU General Public License
COMMENT along with bdf-tewi.  If not, see <http://www.gnu.org/licenses/>.
COMMENT 
COMMENT As a special exception, if you create a document which uses this
COMMENT font, and embed this font or unaltered portions of this font into
COMMENT the document, this font does not by itself cause the resulting
COMMENT document to be covered by the GNU General Public License. This
COMMENT exception does not however invalidate any other reasons why the
COMMENT document might be covered by the GNU General Public License. If you
COMMENT modify this font, you may extend this exception to your version of
COMMENT the font, but you are not obligated to do so. If you do not wish to
COMMENT do so, delete this exception statement from your version. 
FONT -lucy-Tewi-medium-R-Normal--11-90-75-75-P-58-ISO10646-1
SIZE 9 75 75
FONTBOUNDINGBOX 13 12 -2 -3
STARTPROPERTIES 19
CHARSET_COLLECTIONS "ISO8859-2 ISO8859-5 ISO8859-9 ISO8859-4 ISO10646-1"
COPYRIGHT "© lucy <ne.tetewi@gmail.com>"
FOUNDRY "lucy"
FAMILY_NAME "Tewi"
WEIGHT_NAME "medium"
SLANT "R"
SETWIDTH_NAME "Normal"
ADD_STYLE_NAME ""
PIXEL_SIZE 11
POINT_SIZE 90
RESOLUTION_X 75
RESOLUTION_Y 75
SPACING "P"
AVERAGE_WIDTH 60
CHARSET_REGISTRY "ISO10646"
CHARSET_ENCODING "1"
FONT_ASCENT 9
FONT_DESCENT 3
_GBDFED_INFO "Edited with gbdfed 1.6."
ENDPROPERTIES
CHARS 2334
STARTCHAR <control>
ENCODING 0
SWIDTH 0 0
DWIDTH 0 0
BBX 0 0 0 0
BITMAP
ENDCHAR
STARTCHAR <control>
ENCODING 8
SWIDTH 0 0
DWIDTH 0 0
BBX 0 0 0 0
BITMAP
ENDCHAR
STARTCHAR <control>
ENCODING 9
SWIDTH 640 0
DWIDTH 6 0
BBX 0 0 0 0
BITMAP
ENDCHAR
STARTCHAR <control>
ENCODING 10
SWIDTH 640 0
DWIDTH 6 0
BBX 0 0 0 0
BITMAP
ENDCHAR
STARTCHAR <control>
ENCODING 13
SWIDTH 640 0
DWIDTH 6 0
BBX 0 0 0 0
BITMAP
ENDCHAR
STARTCHAR <control>
ENCODING 29
SWIDTH 0 0
DWIDTH 0 0
BBX 0 0 0 0
BITMAP
ENDCHAR
STARTCHAR SPACE
ENCODING 32
SWIDTH 640 0
DWIDTH 6 0
BBX 0 0 0 0
BITMAP
ENDCHAR
STARTCHAR EXCLAMATION MARK
ENCODING 33
SWIDTH 640 0
DWIDTH 6 0
BBX 1 7 2 0
BITMAP
80
80
80
80
80
00
80
ENDCHAR
STARTCHAR QUOTATION MARK
ENCODING 34
SWIDTH 640 0
DWIDTH 6 0
BBX 3 3 1 5
BITMAP
A0
A0
A0
ENDCHAR
STARTCHAR NUMBER SIGN
ENCODING 35
SWIDTH 640 0
DWIDTH 6 0
BBX 5 5 0 1
BITMAP
50
F8
50
F8
50
ENDCHAR
STARTCHAR DOLLAR SIGN
ENCODING 36
SWIDTH 640 0
DWIDTH 6 0
BBX 5 9 0 -1
BITMAP
20
70
A8
A0
70
28
A8
70
20
ENDCHAR
STARTCHAR PERCENT SIGN
ENCODING 37
SWIDTH 640 0
DWIDTH 6 0
BBX 5 7 0 0
BITMAP
48
A8
50
20
50
A8
90
ENDCHAR
STARTCHAR AMPERSAND
ENCODING 38
SWIDTH 640 0
DWIDTH 6 0
BBX 5 7 0 0
BITMAP
60
90
A0
40
A8
90
68
ENDCHAR
STARTCHAR APOSTROPHE
ENCODING 39
SWIDTH 640 0
DWIDTH 6 0
BBX 1 3 2 5
BITMAP
80
80
80
ENDCHAR
STARTCHAR LEFT PARENTHESIS
ENCODING 40
SWIDTH 640 0
DWIDTH 6 0
BBX 3 9 1 -1
BITMAP
20
40
40
80
80
80
40
40
20
ENDCHAR
STARTCHAR RIGHT PARENTHESIS
ENCODING 41
SWIDTH 640 0
DWIDTH 6 0
BBX 3 9 1 -1
BITMAP
80
40
40
20
20
20
40
40
80
ENDCHAR
STARTCHAR ASTERISK
ENCODING 42
SWIDTH 640 0
DWIDTH 6 0
BBX 5 5 0 1
BITMAP
20
A8
70
A8
20
ENDCHAR
STARTCHAR PLUS SIGN
ENCODING 43
SWIDTH 640 0
DWIDTH 6 0
BBX 5 5 0 1
BITMAP
20
20
F8
20
20
ENDCHAR
STARTCHAR COMMA
ENCODING 44
SWIDTH 640 0
DWIDTH 6 0
BBX 2 4 2 -2
BITMAP
C0
C0
40
80
ENDCHAR
STARTCHAR HYPHEN-MINUS
ENCODING 45
SWIDTH 640 0
DWIDTH 6 0
BBX 5 1 0 3
BITMAP
F8
ENDCHAR
STARTCHAR FULL STOP
ENCODING 46
SWIDTH 640 0
DWIDTH 6 0
BBX 2 2 2 0
BITMAP
C0
C0
ENDCHAR
STARTCHAR SOLIDUS
ENCODING 47
SWIDTH 640 0
DWIDTH 6 0
BBX 5 10 0 -2
BITMAP
08
08
10
10
20
20
40
40
80
80
ENDCHAR
STARTCHAR DIGIT ZERO
ENCODING 48
SWIDTH 640 0
DWIDTH 6 0
BBX 5 7 0 0
BITMAP
70
88
98
A8
C8
88
70
ENDCHAR
STARTCHAR DIGIT ONE
ENCODING 49
SWIDTH 640 0
DWIDTH 6 0
BBX 3 7 1 0
BITMAP
40
C0
40
40
40
40
E0
ENDCHAR
STARTCHAR DIGIT TWO
ENCODING 50
SWIDTH 640 0
DWIDTH 6 0
BBX 5 7 0 0
BITMAP
70
88
08
10
20
40
F8
ENDCHAR
STARTCHAR DIGIT THREE
ENCODING 51
SWIDTH 640 0
DWIDTH 6 0
BBX 5 7 0 0
BITMAP
70
88
08
30
08
88
70
ENDCHAR
STARTCHAR DIGIT FOUR
ENCODING 52
SWIDTH 640 0
DWIDTH 6 0
BBX 5 7 0 0
BITMAP
10
30
50
90
F8
10
38
ENDCHAR
STARTCHAR DIGIT FIVE
ENCODING 53
SWIDTH 640 0
DWIDTH 6 0
BBX 5 7 0 0
BITMAP
F8
80
F0
08
08
88
70
ENDCHAR
STARTCHAR DIGIT SIX
ENCODING 54
SWIDTH 640 0
DWIDTH 6 0
BBX 5 7 0 0
BITMAP
70
80
F0
88
88
88
70
ENDCHAR
STARTCHAR DIGIT SEVEN
ENCODING 55
SWIDTH 640 0
DWIDTH 6 0
BBX 5 7 0 0
BITMAP
F8
08
08
10
20
20
20
ENDCHAR
STARTCHAR DIGIT EIGHT
ENCODING 56
SWIDTH 640 0
DWIDTH 6 0
BBX 5 7 0 0
BITMAP
70
88
88
70
88
88
70
ENDCHAR
STARTCHAR DIGIT NINE
ENCODING 57
SWIDTH 640 0
DWIDTH 6 0
BBX 5 7 0 0
BITMAP
70
88
88
88
78
08
70
ENDCHAR
STARTCHAR COLON
ENCODING 58
SWIDTH 640 0
DWIDTH 6 0
BBX 2 6 2 0
BITMAP
C0
C0
00
00
C0
C0
ENDCHAR
STARTCHAR SEMICOLON
ENCODING 59
SWIDTH 640 0
DWIDTH 6 0
BBX 2 8 2 -2
BITMAP
C0
C0
00
00
C0
C0
40
80
ENDCHAR
STARTCHAR LESS-THAN SIGN
ENCODING 60
SWIDTH 533 0
DWIDTH 5 0
BBX 4 7 1 0
BITMAP
10
20
40
80
40
20
10
ENDCHAR
STARTCHAR EQUALS SIGN
ENCODING 61
SWIDTH 640 0
DWIDTH 6 0
BBX 5 3 0 2
BITMAP
F8
00
F8
ENDCHAR
STARTCHAR GREATER-THAN SIGN
ENCODING 62
SWIDTH 533 0
DWIDTH 5 0
BBX 4 7 1 0
BITMAP
80
40
20
10
20
40
80
ENDCHAR
STARTCHAR QUESTION MARK
ENCODING 63
SWIDTH 640 0
DWIDTH 6 0
BBX 5 7 0 0
BITMAP
70
88
08
10
20
00
20
ENDCHAR
STARTCHAR COMMERCIAL AT
ENCODING 64
SWIDTH 640 0
DWIDTH 6 0
BBX 5 7 0 0
BITMAP
70
88
B8
A8
B8
80
78
ENDCHAR
STARTCHAR LATIN CAPITAL LETTER A
ENCODING 65
SWIDTH 640 0
DWIDTH 6 0
BBX 5 7 0 0
BITMAP
70
88
88
F8
88
88
88
ENDCHAR
STARTCHAR LATIN CAPITAL LETTER B
ENCODING 66
SWIDTH 640 0
DWIDTH 6 0
BBX 5 7 0 0
BITMAP
F0
88
88
F0
88
88
F0
ENDCHAR
STARTCHAR LATIN CAPITAL LETTER C
ENCODING 67
SWIDTH 640 0
DWIDTH 6 0
BBX 5 7 0 0
BITMAP
70
88
80
80
80
88
70
ENDCHAR
STARTCHAR LATIN CAPITAL LETTER D
ENCODING 68
SWIDTH 640 0
DWIDTH 6 0
BBX 5 7 0 0
BITMAP
F0
88
88
88
88
88
F0
ENDCHAR
STARTCHAR LATIN CAPITAL LETTER E
ENCODING 69
SWIDTH 640 0
DWIDTH 6 0
BBX 5 7 0 0
BITMAP
F8
80
80
F0
80
80
F8
ENDCHAR
STARTCHAR LATIN CAPITAL LETTER F
ENCODING 70
SWIDTH 640 0
DWIDTH 6 0
BBX 5 7 0 0
BITMAP
F8
80
80
F0
80
80
80
ENDCHAR
STARTCHAR LATIN CAPITAL LETTER G
ENCODING 71
SWIDTH 640 0
DWIDTH 6 0
BBX 5 7 0 0
BITMAP
70
88
80
98
88
88
70
ENDCHAR
STARTCHAR LATIN CAPITAL LETTER H
ENCODING 72
SWIDTH 640 0
DWIDTH 6 0
BBX 5 7 0 0
BITMAP
88
88
88
F8
88
88
88
ENDCHAR
STARTCHAR LATIN CAPITAL LETTER I
ENCODING 73
SWIDTH 640 0
DWIDTH 6 0
BBX 3 7 1 0
BITMAP
E0
40
40
40
40
40
E0
ENDCHAR
STARTCHAR LATIN CAPITAL LETTER J
ENCODING 74
SWIDTH 640 0
DWIDTH 6 0
BBX 5 7 0 0
BITMAP
08
08
08
08
88
88
70
ENDCHAR
STARTCHAR LATIN CAPITAL LETTER K
ENCODING 75
SWIDTH 640 0
DWIDTH 6 0
BBX 5 7 0 0
BITMAP
88
90
A0
C0
A0
90
88
ENDCHAR
STARTCHAR LATIN CAPITAL LETTER L
ENCODING 76
SWIDTH 640 0
DWIDTH 6 0
BBX 5 7 0 0
BITMAP
80
80
80
80
80
80
F8
ENDCHAR
STARTCHAR LATIN CAPITAL LETTER M
ENCODING 77
SWIDTH 640 0
DWIDTH 6 0
BBX 5 7 0 0
BITMAP
88
D8
A8
88
88
88
88
ENDCHAR
STARTCHAR LATIN CAPITAL LETTER N
ENCODING 78
SWIDTH 640 0
DWIDTH 6 0
BBX 5 7 0 0
BITMAP
C8
C8
A8
A8
A8
98
98
ENDCHAR
STARTCHAR LATIN CAPITAL LETTER O
ENCODING 79
SWIDTH 640 0
DWIDTH 6 0
BBX 5 7 0 0
BITMAP
70
88
88
88
88
88
70
ENDCHAR
STARTCHAR LATIN CAPITAL LETTER P
ENCODING 80
SWIDTH 640 0
DWIDTH 6 0
BBX 5 7 0 0
BITMAP
F0
88
88
F0
80
80
80
ENDCHAR
STARTCHAR LATIN CAPITAL LETTER Q
ENCODING 81
SWIDTH 640 0
DWIDTH 6 0
BBX 5 8 0 -1
BITMAP
70
88
88
88
88
88
70
08
ENDCHAR
STARTCHAR LATIN CAPITAL LETTER R
ENCODING 82
SWIDTH 640 0
DWIDTH 6 0
BBX 5 7 0 0
BITMAP
F0
88
88
F0
88
88
88
ENDCHAR
STARTCHAR LATIN CAPITAL LETTER S
ENCODING 83
SWIDTH 640 0
DWIDTH 6 0
BBX 5 7 0 0
BITMAP
70
88
80
70
08
88
70
ENDCHAR
STARTCHAR LATIN CAPITAL LETTER T
ENCODING 84
SWIDTH 640 0
DWIDTH 6 0
BBX 5 7 0 0
BITMAP
F8
20
20
20
20
20
20
ENDCHAR
STARTCHAR LATIN CAPITAL LETTER U
ENCODING 85
SWIDTH 640 0
DWIDTH 6 0
BBX 5 7 0 0
BITMAP
88
88
88
88
88
88
70
ENDCHAR
STARTCHAR LATIN CAPITAL LETTER V
ENCODING 86
SWIDTH 640 0
DWIDTH 6 0
BBX 5 7 0 0
BITMAP
88
88
88
50
50
20
20
ENDCHAR
STARTCHAR LATIN CAPITAL LETTER W
ENCODING 87
SWIDTH 640 0
DWIDTH 6 0
BBX 5 7 0 0
BITMAP
88
88
88
A8
A8
50
50
ENDCHAR
STARTCHAR LATIN CAPITAL LETTER X
ENCODING 88
SWIDTH 640 0
DWIDTH 6 0
BBX 5 7 0 0
BITMAP
88
88
50
20
50
88
88
ENDCHAR
STARTCHAR LATIN CAPITAL LETTER Y
ENCODING 89
SWIDTH 640 0
DWIDTH 6 0
BBX 5 7 0 0
BITMAP
88
88
88
50
20
20
20
ENDCHAR
STARTCHAR LATIN CAPITAL LETTER Z
ENCODING 90
SWIDTH 640 0
DWIDTH 6 0
BBX 5 7 0 0
BITMAP
F8
08
10
20
40
80
F8
ENDCHAR
STARTCHAR LEFT SQUARE BRACKET
ENCODING 91
SWIDTH 640 0
DWIDTH 6 0
BBX 3 9 1 -1
BITMAP
E0
80
80
80
80
80
80
80
E0
ENDCHAR
STARTCHAR REVERSE SOLIDUS
ENCODING 92
SWIDTH 640 0
DWIDTH 6 0
BBX 5 10 0 -2
BITMAP
80
80
40
40
20
20
10
10
08
08
ENDCHAR
STARTCHAR RIGHT SQUARE BRACKET
ENCODING 93
SWIDTH 640 0
DWIDTH 6 0
BBX 3 9 1 -1
BITMAP
E0
20
20
20
20
20
20
20
E0
ENDCHAR
STARTCHAR CIRCUMFLEX ACCENT
ENCODING 94
SWIDTH 640 0
DWIDTH 6 0
BBX 5 3 0 5
BITMAP
20
50
88
ENDCHAR
STARTCHAR LOW LINE
ENCODING 95
SWIDTH 640 0
DWIDTH 6 0
BBX 6 1 0 0
BITMAP
FC
ENDCHAR
STARTCHAR GRAVE ACCENT
ENCODING 96
SWIDTH 640 0
DWIDTH 6 0
BBX 3 3 1 5
BITMAP
80
40
20
ENDCHAR
STARTCHAR LATIN SMALL LETTER A
ENCODING 97
SWIDTH 640 0
DWIDTH 6 0
BBX 5 5 0 0
BITMAP
78
88
88
98
68
ENDCHAR
STARTCHAR LATIN SMALL LETTER B
ENCODING 98
SWIDTH 640 0
DWIDTH 6 0
BBX 5 7 0 0
BITMAP
80
80
F0
88
88
88
F0
ENDCHAR
STARTCHAR LATIN SMALL LETTER C
ENCODING 99
SWIDTH 640 0
DWIDTH 6 0
BBX 5 5 0 0
BITMAP
70
88
80
80
78
ENDCHAR
STARTCHAR LATIN SMALL LETTER D
ENCODING 100
SWIDTH 640 0
DWIDTH 6 0
BBX 5 7 0 0
BITMAP
08
08
78
88
88
88
78
ENDCHAR
STARTCHAR LATIN SMALL LETTER E
ENCODING 101
SWIDTH 640 0
DWIDTH 6 0
BBX 5 5 0 0
BITMAP
70
88
F8
80
78
ENDCHAR
STARTCHAR LATIN SMALL LETTER F
ENCODING 102
SWIDTH 640 0
DWIDTH 6 0
BBX 4 7 0 0
BITMAP
30
40
40
E0
40
40
40
ENDCHAR
STARTCHAR LATIN SMALL LETTER G
ENCODING 103
SWIDTH 640 0
DWIDTH 6 0
BBX 5 7 0 -2
BITMAP
78
88
88
88
78
08
70
ENDCHAR
STARTCHAR LATIN SMALL LETTER H
ENCODING 104
SWIDTH 640 0
DWIDTH 6 0
BBX 5 7 0 0
BITMAP
80
80
F0
88
88
88
88
ENDCHAR
STARTCHAR LATIN SMALL LETTER I
ENCODING 105
SWIDTH 640 0
DWIDTH 6 0
BBX 3 7 1 0
BITMAP
40
00
C0
40
40
40
60
ENDCHAR
STARTCHAR LATIN SMALL LETTER J
ENCODING 106
SWIDTH 640 0
DWIDTH 6 0
BBX 3 9 0 -2
BITMAP
20
00
60
20
20
20
20
20
C0
ENDCHAR
STARTCHAR LATIN SMALL LETTER K
ENCODING 107
SWIDTH 640 0
DWIDTH 6 0
BBX 5 7 0 0
BITMAP
80
80
90
A0
E0
90
88
ENDCHAR
STARTCHAR LATIN SMALL LETTER L
ENCODING 108
SWIDTH 640 0
DWIDTH 6 0
BBX 3 7 1 0
BITMAP
C0
40
40
40
40
40
60
ENDCHAR
STARTCHAR LATIN SMALL LETTER M
ENCODING 109
SWIDTH 640 0
DWIDTH 6 0
BBX 5 5 0 0
BITMAP
F0
A8
A8
A8
A8
ENDCHAR
STARTCHAR LATIN SMALL LETTER N
ENCODING 110
SWIDTH 640 0
DWIDTH 6 0
BBX 5 5 0 0
BITMAP
B0
C8
88
88
88
ENDCHAR
STARTCHAR LATIN SMALL LETTER O
ENCODING 111
SWIDTH 640 0
DWIDTH 6 0
BBX 5 5 0 0
BITMAP
70
88
88
88
70
ENDCHAR
STARTCHAR LATIN SMALL LETTER P
ENCODING 112
SWIDTH 640 0
DWIDTH 6 0
BBX 5 7 0 -2
BITMAP
F0
88
88
88
F0
80
80
ENDCHAR
STARTCHAR LATIN SMALL LETTER Q
ENCODING 113
SWIDTH 640 0
DWIDTH 6 0
BBX 5 7 0 -2
BITMAP
78
88
88
88
78
08
08
ENDCHAR
STARTCHAR LATIN SMALL LETTER R
ENCODING 114
SWIDTH 640 0
DWIDTH 6 0
BBX 5 5 0 0
BITMAP
B0
C8
80
80
80
ENDCHAR
STARTCHAR LATIN SMALL LETTER S
ENCODING 115
SWIDTH 640 0
DWIDTH 6 0
BBX 5 5 0 0
BITMAP
78
80
70
08
F0
ENDCHAR
STARTCHAR LATIN SMALL LETTER T
ENCODING 116
SWIDTH 640 0
DWIDTH 6 0
BBX 4 7 1 0
BITMAP
40
40
F0
40
40
40
30
ENDCHAR
STARTCHAR LATIN SMALL LETTER U
ENCODING 117
SWIDTH 640 0
DWIDTH 6 0
BBX 5 5 0 0
BITMAP
88
88
88
98
68
ENDCHAR
STARTCHAR LATIN SMALL LETTER V
ENCODING 118
SWIDTH 640 0
DWIDTH 6 0
BBX 5 5 0 0
BITMAP
88
88
50
50
20
ENDCHAR
STARTCHAR LATIN SMALL LETTER W
ENCODING 119
SWIDTH 640 0
DWIDTH 6 0
BBX 5 5 0 0
BITMAP
88
A8
A8
A8
50
ENDCHAR
STARTCHAR LATIN SMALL LETTER X
ENCODING 120
SWIDTH 640 0
DWIDTH 6 0
BBX 5 5 0 0
BITMAP
88
50
20
50
88
ENDCHAR
STARTCHAR LATIN SMALL LETTER Y
ENCODING 121
SWIDTH 640 0
DWIDTH 6 0
BBX 5 7 0 -2
BITMAP
88
88
88
88
78
08
70
ENDCHAR
STARTCHAR LATIN SMALL LETTER Z
ENCODING 122
SWIDTH 640 0
DWIDTH 6 0
BBX 5 5 0 0
BITMAP
F8
10
20
40
F8
ENDCHAR
STARTCHAR LEFT CURLY BRACKET
ENCODING 123
SWIDTH 640 0
DWIDTH 6 0
BBX 5 9 0 -1
BITMAP
18
20
20
20
C0
20
20
20
18
ENDCHAR
STARTCHAR VERTICAL LINE
ENCODING 124
SWIDTH 640 0
DWIDTH 6 0
BBX 1 10 2 -2
BITMAP
80
80
80
80
80
80
80
80
80
80
ENDCHAR
STARTCHAR RIGHT CURLY BRACKET
ENCODING 125
SWIDTH 640 0
DWIDTH 6 0
BBX 5 9 0 -1
BITMAP
C0
20
20
20
18
20
20
20
C0
ENDCHAR
STARTCHAR TILDE
ENCODING 126
SWIDTH 640 0
DWIDTH 6 0
BBX 5 2 0 3
BITMAP
68
B0
ENDCHAR
STARTCHAR NO-BREAK SPACE
ENCODING 160
SWIDTH 640 0
DWIDTH 6 0
BBX 0 0 0 0
BITMAP
ENDCHAR
STARTCHAR INVERTED EXCLAMATION MARK
ENCODING 161
SWIDTH 640 0
DWIDTH 6 0
BBX 1 7 3 0
BITMAP
80
00
80
80
80
80
80
ENDCHAR
STARTCHAR CENT SIGN
ENCODING 162
SWIDTH 640 0
DWIDTH 6 0
BBX 5 7 0 -1
BITMAP
20
70
A8
A0
A8
70
20
ENDCHAR
STARTCHAR POUND SIGN
ENCODING 163
SWIDTH 640 0
DWIDTH 6 0
BBX 5 8 0 0
BITMAP
30
40
40
E0
40
40
48
B0
ENDCHAR
STARTCHAR CURRENCY SIGN
ENCODING 164
SWIDTH 640 0
DWIDTH 6 0
BBX 5 5 0 1
BITMAP
88
70
50
70
88
ENDCHAR
STARTCHAR YEN SIGN
ENCODING 165
SWIDTH 640 0
DWIDTH 6 0
BBX 5 8 0 -1
BITMAP
88
88
50
F8
20
F8
20
20
ENDCHAR
STARTCHAR BROKEN BAR
ENCODING 166
SWIDTH 640 0
DWIDTH 6 0
BBX 1 10 2 -2
BITMAP
80
80
80
80
00
00
80
80
80
80
ENDCHAR
STARTCHAR SECTION SIGN
ENCODING 167
SWIDTH 640 0
DWIDTH 6 0
BBX 5 10 0 -1
BITMAP
70
88
48
A0
90
48
28
90
88
70
ENDCHAR
STARTCHAR DIAERESIS
ENCODING 168
SWIDTH 640 0
DWIDTH 6 0
BBX 3 1 1 6
BITMAP
A0
ENDCHAR
STARTCHAR COPYRIGHT SIGN
ENCODING 169
SWIDTH 640 0
DWIDTH 6 0
BBX 5 8 0 -1
BITMAP
F0
08
68
88
88
68
08
F0
ENDCHAR
STARTCHAR FEMININE ORDINAL INDICATOR
ENCODING 170
SWIDTH 640 0
DWIDTH 6 0
BBX 4 6 1 1
BITMAP
70
90
B0
50
00
F0
ENDCHAR
STARTCHAR LEFT-POINTING DOUBLE ANGLE QUOTATION MARK
ENCODING 171
SWIDTH 640 0
DWIDTH 6 0
BBX 5 4 0 1
BITMAP
48
90
90
48
ENDCHAR
STARTCHAR NOT SIGN
ENCODING 172
SWIDTH 640 0
DWIDTH 6 0
BBX 5 3 0 1
BITMAP
F8
08
08
ENDCHAR
STARTCHAR SOFT HYPHEN
ENCODING 173
SWIDTH 640 0
DWIDTH 6 0
BBX 3 1 1 2
BITMAP
E0
ENDCHAR
STARTCHAR REGISTERED SIGN
ENCODING 174
SWIDTH 640 0
DWIDTH 6 0
BBX 5 8 0 -1
BITMAP
F0
08
C8
A8
C8
A8
08
F0
ENDCHAR
STARTCHAR MACRON
ENCODING 175
SWIDTH 640 0
DWIDTH 6 0
BBX 4 1 1 7
BITMAP
F0
ENDCHAR
STARTCHAR DEGREE SIGN
ENCODING 176
SWIDTH 640 0
DWIDTH 6 0
BBX 4 4 1 5
BITMAP
60
90
90
60
ENDCHAR
STARTCHAR PLUS-MINUS SIGN
ENCODING 177
SWIDTH 640 0
DWIDTH 6 0
BBX 5 7 0 0
BITMAP
20
20
F8
20
20
00
F8
ENDCHAR
STARTCHAR SUPERSCRIPT TWO
ENCODING 178
SWIDTH 640 0
DWIDTH 6 0
BBX 3 5 1 3
BITMAP
C0
20
40
80
E0
ENDCHAR
STARTCHAR SUPERSCRIPT THREE
ENCODING 179
SWIDTH 640 0
DWIDTH 6 0
BBX 3 5 1 3
BITMAP
C0
20
40
20
C0
ENDCHAR
STARTCHAR ACUTE ACCENT
ENCODING 180
SWIDTH 640 0
DWIDTH 6 0
BBX 3 3 1 5
BITMAP
20
40
80
ENDCHAR
STARTCHAR MICRO SIGN
ENCODING 181
SWIDTH 640 0
DWIDTH 6 0
BBX 5 7 0 -2
BITMAP
90
90
90
90
E8
80
80
ENDCHAR
STARTCHAR PILCROW SIGN
ENCODING 182
SWIDTH 640 0
DWIDTH 6 0
BBX 6 8 0 0
BITMAP
7C
E8
E8
E8
78
28
28
2C
ENDCHAR
STARTCHAR MIDDLE DOT
ENCODING 183
SWIDTH 640 0
DWIDTH 6 0
BBX 2 2 2 2
BITMAP
C0
C0
ENDCHAR
STARTCHAR CEDILLA
ENCODING 184
SWIDTH 640 0
DWIDTH 6 0
BBX 2 3 2 -3
BITMAP
80
40
80
ENDCHAR
STARTCHAR SUPERSCRIPT ONE
ENCODING 185
SWIDTH 640 0
DWIDTH 6 0
BBX 3 5 1 3
BITMAP
C0
40
40
40
E0
ENDCHAR
STARTCHAR MASCULINE ORDINAL INDICATOR
ENCODING 186
SWIDTH 640 0
DWIDTH 6 0
BBX 4 6 1 1
BITMAP
60
90
90
60
00
F0
ENDCHAR
STARTCHAR RIGHT-POINTING DOUBLE ANGLE QUOTATION MARK
ENCODING 187
SWIDTH 640 0
DWIDTH 6 0
BBX 5 4 0 1
BITMAP
90
48
48
90
ENDCHAR
STARTCHAR VULGAR FRACTION ONE QUARTER
ENCODING 188
SWIDTH 640 0
DWIDTH 6 0
BBX 5 7 0 0
BITMAP
C0
48
50
28
58
B8
08
ENDCHAR
STARTCHAR VULGAR FRACTION ONE HALF
ENCODING 189
SWIDTH 640 0
DWIDTH 6 0
BBX 5 7 0 0
BITMAP
C0
48
50
30
48
90
38
ENDCHAR
STARTCHAR VULGAR FRACTION THREE QUARTERS
ENCODING 190
SWIDTH 640 0
DWIDTH 6 0
BBX 5 8 0 0
BITMAP
80
40
C8
50
A8
58
B8
08
ENDCHAR
STARTCHAR INVERTED QUESTION MARK
ENCODING 191
SWIDTH 640 0
DWIDTH 6 0
BBX 5 7 0 0
BITMAP
20
00
20
40
80
88
70
ENDCHAR
STARTCHAR LATIN CAPITAL LETTER A WITH GRAVE
ENCODING 192
SWIDTH 640 0
DWIDTH 6 0
BBX 5 9 0 0
BITMAP
40
20
70
88
88
F8
88
88
88
ENDCHAR
STARTCHAR LATIN CAPITAL LETTER A WITH ACUTE
ENCODING 193
SWIDTH 640 0
DWIDTH 6 0
BBX 5 9 0 0
BITMAP
10
20
70
88
88
F8
88
88
88
ENDCHAR
STARTCHAR LATIN CAPITAL LETTER A WITH CIRCUMFLEX
ENCODING 194
SWIDTH 640 0
DWIDTH 6 0
BBX 5 9 0 0
BITMAP
20
50
70
88
88
F8
88
88
88
ENDCHAR
STARTCHAR LATIN CAPITAL LETTER A WITH TILDE
ENCODING 195
SWIDTH 640 0
DWIDTH 6 0
BBX 5 9 0 0
BITMAP
68
B0
70
88
88
F8
88
88
88
ENDCHAR
STARTCHAR LATIN CAPITAL LETTER A WITH DIAERESIS
ENCODING 196
SWIDTH 640 0
DWIDTH 6 0
BBX 5 9 0 0
BITMAP
50
00
70
88
88
F8
88
88
88
ENDCHAR
STARTCHAR LATIN CAPITAL LETTER A WITH RING ABOVE
ENCODING 197
SWIDTH 640 0
DWIDTH 6 0
BBX 5 9 0 0
BITMAP
20
50
20
70
88
88
F8
88
88
ENDCHAR
STARTCHAR LATIN CAPITAL LETTER AE
ENCODING 198
SWIDTH 640 0
DWIDTH 6 0
BBX 5 7 0 0
BITMAP
78
A0
A0
F0
A0
A0
B8
ENDCHAR
STARTCHAR LATIN CAPITAL LETTER C WITH CEDILLA
ENCODING 199
SWIDTH 640 0
DWIDTH 6 0
BBX 5 9 0 -2
BITMAP
70
88
80
80
80
88
70
20
40
ENDCHAR
STARTCHAR LATIN CAPITAL LETTER E WITH GRAVE
ENCODING 200
SWIDTH 640 0
DWIDTH 6 0
BBX 5 9 0 0
BITMAP
40
20
F8
80
80
F0
80
80
F8
ENDCHAR
STARTCHAR LATIN CAPITAL LETTER E WITH ACUTE
ENCODING 201
SWIDTH 640 0
DWIDTH 6 0
BBX 5 9 0 0
BITMAP
10
20
F8
80
80
F0
80
80
F8
ENDCHAR
STARTCHAR LATIN CAPITAL LETTER E WITH CIRCUMFLEX
ENCODING 202
SWIDTH 640 0
DWIDTH 6 0
BBX 5 9 1 0
BITMAP
20
50
F8
80
80
F0
80
80
F8
ENDCHAR
STARTCHAR LATIN CAPITAL LETTER E WITH DIAERESIS
ENCODING 203
SWIDTH 640 0
DWIDTH 6 0
BBX 5 9 0 0
BITMAP
50
00
F8
80
80
F0
80
80
F8
ENDCHAR
STARTCHAR LATIN CAPITAL LETTER I WITH GRAVE
ENCODING 204
SWIDTH 640 0
DWIDTH 6 0
BBX 3 9 1 0
BITMAP
40
20
E0
40
40
40
40
40
E0
ENDCHAR
STARTCHAR LATIN CAPITAL LETTER I WITH ACUTE
ENCODING 205
SWIDTH 640 0
DWIDTH 6 0
BBX 3 9 1 0
BITMAP
40
80
E0
40
40
40
40
40
E0
ENDCHAR
STARTCHAR LATIN CAPITAL LETTER I WITH CIRCUMFLEX
ENCODING 206
SWIDTH 640 0
DWIDTH 6 0
BBX 3 9 1 0
BITMAP
40
A0
E0
40
40
40
40
40
E0
ENDCHAR
STARTCHAR LATIN CAPITAL LETTER I WITH DIAERESIS
ENCODING 207
SWIDTH 640 0
DWIDTH 6 0
BBX 3 9 1 0
BITMAP
A0
00
E0
40
40
40
40
40
E0
ENDCHAR
STARTCHAR LATIN CAPITAL LETTER ETH
ENCODING 208
SWIDTH 640 0
DWIDTH 6 0
BBX 6 7 -1 0
BITMAP
78
44
44
F4
44
44
78
ENDCHAR
STARTCHAR LATIN CAPITAL LETTER N WITH TILDE
ENCODING 209
SWIDTH 640 0
DWIDTH 6 0
BBX 5 9 0 0
BITMAP
68
B0
88
C8
A8
98
88
88
88
ENDCHAR
STARTCHAR LATIN CAPITAL LETTER O WITH GRAVE
ENCODING 210
SWIDTH 640 0
DWIDTH 6 0
BBX 5 9 0 0
BITMAP
40
20
70
88
88
88
88
88
70
ENDCHAR
STARTCHAR LATIN CAPITAL LETTER O WITH ACUTE
ENCODING 211
SWIDTH 640 0
DWIDTH 6 0
BBX 5 9 0 0
BITMAP
10
20
70
88
88
88
88
88
70
ENDCHAR
STARTCHAR LATIN CAPITAL LETTER O WITH CIRCUMFLEX
ENCODING 212
SWIDTH 640 0
DWIDTH 6 0
BBX 5 9 0 0
BITMAP
20
50
70
88
88
88
88
88
70
ENDCHAR
STARTCHAR LATIN CAPITAL LETTER O WITH TILDE
ENCODING 213
SWIDTH 640 0
DWIDTH 6 0
BBX 5 9 0 0
BITMAP
68
B0
70
88
88
88
88
88
70
ENDCHAR
STARTCHAR LATIN CAPITAL LETTER O WITH DIAERESIS
ENCODING 214
SWIDTH 640 0
DWIDTH 6 0
BBX 5 9 0 0
BITMAP
50
00
70
88
88
88
88
88
70
ENDCHAR
STARTCHAR MULTIPLICATION SIGN
ENCODING 215
SWIDTH 640 0
DWIDTH 6 0
BBX 5 5 0 1
BITMAP
88
50
20
50
88
ENDCHAR
STARTCHAR LATIN CAPITAL LETTER O WITH STROKE
ENCODING 216
SWIDTH 640 0
DWIDTH 6 0
BBX 5 9 0 -1
BITMAP
08
70
98
A8
A8
A8
C8
70
80
ENDCHAR
STARTCHAR LATIN CAPITAL LETTER U WITH GRAVE
ENCODING 217
SWIDTH 640 0
DWIDTH 6 0
BBX 5 9 0 0
BITMAP
40
20
88
88
88
88
88
88
70
ENDCHAR
STARTCHAR LATIN CAPITAL LETTER U WITH ACUTE
ENCODING 218
SWIDTH 640 0
DWIDTH 6 0
BBX 5 9 0 0
BITMAP
10
20
88
88
88
88
88
88
70
ENDCHAR
STARTCHAR LATIN CAPITAL LETTER U WITH CIRCUMFLEX
ENCODING 219
SWIDTH 640 0
DWIDTH 6 0
BBX 5 9 0 0
BITMAP
20
50
00
88
88
88
88
88
70
ENDCHAR
STARTCHAR LATIN CAPITAL LETTER U WITH DIAERESIS
ENCODING 220
SWIDTH 640 0
DWIDTH 6 0
BBX 5 9 0 0
BITMAP
50
00
88
88
88
88
88
88
70
ENDCHAR
STARTCHAR LATIN CAPITAL LETTER Y WITH ACUTE
ENCODING 221
SWIDTH 640 0
DWIDTH 6 0
BBX 5 9 0 0
BITMAP
10
20
88
88
88
50
20
20
20
ENDCHAR
STARTCHAR LATIN CAPITAL LETTER THORN
ENCODING 222
SWIDTH 640 0
DWIDTH 6 0
BBX 6 9 -1 -2
BITMAP
E0
40
78
44
44
44
78
40
E0
ENDCHAR
STARTCHAR LATIN SMALL LETTER SHARP S
ENCODING 223
SWIDTH 640 0
DWIDTH 6 0
BBX 5 8 0 0
BITMAP
70
88
88
F0
88
88
C8
B0
ENDCHAR
STARTCHAR LATIN SMALL LETTER A WITH GRAVE
ENCODING 224
SWIDTH 640 0
DWIDTH 6 0
BBX 5 8 0 0
BITMAP
20
10
00
78
88
88
98
68
ENDCHAR
STARTCHAR LATIN SMALL LETTER A WITH ACUTE
ENCODING 225
SWIDTH 640 0
DWIDTH 6 0
BBX 5 8 0 0
BITMAP
10
20
00
78
88
88
98
68
ENDCHAR
STARTCHAR LATIN SMALL LETTER A WITH CIRCUMFLEX
ENCODING 226
SWIDTH 640 0
DWIDTH 6 0
BBX 5 8 0 0
BITMAP
20
50
00
78
88
88
98
68
ENDCHAR
STARTCHAR LATIN SMALL LETTER A WITH TILDE
ENCODING 227
SWIDTH 640 0
DWIDTH 6 0
BBX 5 8 0 0
BITMAP
68
B0
00
78
88
88
98
68
ENDCHAR
STARTCHAR LATIN SMALL LETTER A WITH DIAERESIS
ENCODING 228
SWIDTH 640 0
DWIDTH 6 0
BBX 5 7 0 0
BITMAP
50
00
78
88
88
98
68
ENDCHAR
STARTCHAR LATIN SMALL LETTER A WITH RING ABOVE
ENCODING 229
SWIDTH 640 0
DWIDTH 6 0
BBX 5 9 0 0
BITMAP
20
50
20
00
78
88
88
98
68
ENDCHAR
STARTCHAR LATIN SMALL LETTER AE
ENCODING 230
SWIDTH 640 0
DWIDTH 6 0
BBX 5 5 0 0
BITMAP
70
A8
B8
A0
78
ENDCHAR
STARTCHAR LATIN SMALL LETTER C WITH CEDILLA
ENCODING 231
SWIDTH 640 0
DWIDTH 6 0
BBX 5 7 0 -2
BITMAP
70
88
80
80
78
20
40
ENDCHAR
STARTCHAR LATIN SMALL LETTER E WITH GRAVE
ENCODING 232
SWIDTH 640 0
DWIDTH 6 0
BBX 5 8 0 0
BITMAP
40
20
00
70
88
F8
80
78
ENDCHAR
STARTCHAR LATIN SMALL LETTER E WITH ACUTE
ENCODING 233
SWIDTH 640 0
DWIDTH 6 0
BBX 5 8 0 0
BITMAP
10
20
00
70
88
F8
80
78
ENDCHAR
STARTCHAR LATIN SMALL LETTER E WITH CIRCUMFLEX
ENCODING 234
SWIDTH 640 0
DWIDTH 6 0
BBX 5 8 0 0
BITMAP
20
50
00
70
88
F8
80
78
ENDCHAR
STARTCHAR LATIN SMALL LETTER E WITH DIAERESIS
ENCODING 235
SWIDTH 640 0
DWIDTH 6 0
BBX 5 7 0 0
BITMAP
50
00
70
88
F8
80
78
ENDCHAR
STARTCHAR LATIN SMALL LETTER I WITH GRAVE
ENCODING 236
SWIDTH 640 0
DWIDTH 6 0
BBX 3 8 1 0
BITMAP
80
40
00
C0
40
40
40
60
ENDCHAR
STARTCHAR LATIN SMALL LETTER I WITH ACUTE
ENCODING 237
SWIDTH 640 0
DWIDTH 6 0
BBX 3 8 1 0
BITMAP
20
40
00
C0
40
40
40
60
ENDCHAR
STARTCHAR LATIN SMALL LETTER I WITH CIRCUMFLEX
ENCODING 238
SWIDTH 640 0
DWIDTH 6 0
BBX 3 8 1 0
BITMAP
40
A0
00
C0
40
40
40
60
ENDCHAR
STARTCHAR LATIN SMALL LETTER I WITH DIAERESIS
ENCODING 239
SWIDTH 640 0
DWIDTH 6 0
BBX 3 7 1 0
BITMAP
A0
00
C0
40
40
40
60
ENDCHAR
STARTCHAR LATIN SMALL LETTER ETH
ENCODING 240
SWIDTH 640 0
DWIDTH 6 0
BBX 5 9 0 0
BITMAP
50
20
50
10
78
88
88
88
70
ENDCHAR
STARTCHAR LATIN SMALL LETTER N WITH TILDE
ENCODING 241
SWIDTH 640 0
DWIDTH 6 0
BBX 5 8 0 0
BITMAP
68
B0
00
B0
C8
88
88
88
ENDCHAR
STARTCHAR LATIN SMALL LETTER O WITH GRAVE
ENCODING 242
SWIDTH 640 0
DWIDTH 6 0
BBX 5 8 0 0
BITMAP
40
20
00
70
88
88
88
70
ENDCHAR
STARTCHAR LATIN SMALL LETTER O WITH ACUTE
ENCODING 243
SWIDTH 640 0
DWIDTH 6 0
BBX 5 8 0 0
BITMAP
10
20
00
70
88
88
88
70
ENDCHAR
STARTCHAR LATIN SMALL LETTER O WITH CIRCUMFLEX
ENCODING 244
SWIDTH 640 0
DWIDTH 6 0
BBX 5 8 0 0
BITMAP
20
50
00
70
88
88
88
70
ENDCHAR
STARTCHAR LATIN SMALL LETTER O WITH TILDE
ENCODING 245
SWIDTH 640 0
DWIDTH 6 0
BBX 5 8 0 0
BITMAP
68
B0
00
70
88
88
88
70
ENDCHAR
STARTCHAR LATIN SMALL LETTER O WITH DIAERESIS
ENCODING 246
SWIDTH 640 0
DWIDTH 6 0
BBX 5 7 0 0
BITMAP
50
00
70
88
88
88
70
ENDCHAR
STARTCHAR DIVISION SIGN
ENCODING 247
SWIDTH 640 0
DWIDTH 6 0
BBX 5 5 0 1
BITMAP
20
00
F8
00
20
ENDCHAR
STARTCHAR LATIN SMALL LETTER O WITH STROKE
ENCODING 248
SWIDTH 640 0
DWIDTH 6 0
BBX 5 5 0 0
BITMAP
78
98
A8
C8
F0
ENDCHAR
STARTCHAR LATIN SMALL LETTER U WITH GRAVE
ENCODING 249
SWIDTH 640 0
DWIDTH 6 0
BBX 5 8 0 0
BITMAP
40
20
00
88
88
88
98
68
ENDCHAR
STARTCHAR LATIN SMALL LETTER U WITH ACUTE
ENCODING 250
SWIDTH 640 0
DWIDTH 6 0
BBX 5 8 0 0
BITMAP
10
20
00
88
88
88
98
68
ENDCHAR
STARTCHAR LATIN SMALL LETTER U WITH CIRCUMFLEX
ENCODING 251
SWIDTH 640 0
DWIDTH 6 0
BBX 5 8 0 0
BITMAP
20
50
00
88
88
88
98
68
ENDCHAR
STARTCHAR LATIN SMALL LETTER U WITH DIAERESIS
ENCODING 252
SWIDTH 640 0
DWIDTH 6 0
BBX 5 7 0 0
BITMAP
50
00
88
88
88
98
68
ENDCHAR
STARTCHAR LATIN SMALL LETTER Y WITH ACUTE
ENCODING 253
SWIDTH 640 0
DWIDTH 6 0
BBX 5 10 0 -2
BITMAP
10
20
00
88
88
88
88
78
08
70
ENDCHAR
STARTCHAR LATIN SMALL LETTER THORN
ENCODING 254
SWIDTH 640 0
DWIDTH 6 0
BBX 5 9 0 -2
BITMAP
80
80
F0
88
88
88
F0
80
80
ENDCHAR
STARTCHAR LATIN SMALL LETTER Y WITH DIAERESIS
ENCODING 255
SWIDTH 640 0
DWIDTH 6 0
BBX 5 9 0 -2
BITMAP
50
00
88
88
88
88
78
08
70
ENDCHAR
STARTCHAR LATIN CAPITAL LETTER A WITH MACRON
ENCODING 256
SWIDTH 640 0
DWIDTH 6 0
BBX 5 9 0 0
BITMAP
F8
00
70
88
88
F8
88
88
88
ENDCHAR
STARTCHAR LATIN SMALL LETTER A WITH MACRON
ENCODING 257
SWIDTH 640 0
DWIDTH 6 0
BBX 5 7 0 0
BITMAP
F8
00
78
88
88
98
68
ENDCHAR
STARTCHAR LATIN CAPITAL LETTER A WITH BREVE
ENCODING 258
SWIDTH 640 0
DWIDTH 6 0
BBX 5 9 0 0
BITMAP
88
70
00
70
88
88
F8
88
88
ENDCHAR
STARTCHAR LATIN SMALL LETTER A WITH BREVE
ENCODING 259
SWIDTH 640 0
DWIDTH 6 0
BBX 5 8 0 0
BITMAP
88
70
00
78
88
88
98
68
ENDCHAR
STARTCHAR LATIN CAPITAL LETTER A WITH OGONEK
ENCODING 260
SWIDTH 640 0
DWIDTH 6 0
BBX 6 8 0 -1
BITMAP
70
88
88
F8
88
88
88
04
ENDCHAR
STARTCHAR LATIN SMALL LETTER A WITH OGONEK
ENCODING 261
SWIDTH 640 0
DWIDTH 6 0
BBX 6 6 0 -1
BITMAP
78
88
88
98
68
04
ENDCHAR
STARTCHAR LATIN CAPITAL LETTER C WITH ACUTE
ENCODING 262
SWIDTH 640 0
DWIDTH 6 0
BBX 5 9 0 0
BITMAP
10
20
70
88
80
80
80
88
70
ENDCHAR
STARTCHAR LATIN SMALL LETTER C WITH ACUTE
ENCODING 263
SWIDTH 640 0
DWIDTH 6 0
BBX 5 8 0 0
BITMAP
10
20
00
70
88
80
80
78
ENDCHAR
STARTCHAR LATIN CAPITAL LETTER C WITH CIRCUMFLEX
ENCODING 264
SWIDTH 640 0
DWIDTH 6 0
BBX 5 9 0 0
BITMAP
20
50
70
88
80
80
80
88
70
ENDCHAR
STARTCHAR LATIN SMALL LETTER C WITH CIRCUMFLEX
ENCODING 265
SWIDTH 640 0
DWIDTH 6 0
BBX 5 8 0 0
BITMAP
20
50
00
70
88
80
80
78
ENDCHAR
STARTCHAR LATIN CAPITAL LETTER C WITH DOT ABOVE
ENCODING 266
SWIDTH 640 0
DWIDTH 6 0
BBX 5 9 0 0
BITMAP
20
00
70
88
80
80
80
88
70
ENDCHAR
STARTCHAR LATIN SMALL LETTER C WITH DOT ABOVE
ENCODING 267
SWIDTH 640 0
DWIDTH 6 0
BBX 5 7 0 0
BITMAP
20
00
70
88
80
80
78
ENDCHAR
STARTCHAR LATIN CAPITAL LETTER C WITH CARON
ENCODING 268
SWIDTH 640 0
DWIDTH 6 0
BBX 5 9 0 0
BITMAP
50
20
70
88
80
80
80
88
70
ENDCHAR
STARTCHAR LATIN SMALL LETTER C WITH CARON
ENCODING 269
SWIDTH 640 0
DWIDTH 6 0
BBX 5 8 0 0
BITMAP
50
20
00
70
88
80
80
78
ENDCHAR
STARTCHAR LATIN CAPITAL LETTER D WITH CARON
ENCODING 270
SWIDTH 640 0
DWIDTH 6 0
BBX 5 9 0 0
BITMAP
50
20
F0
88
88
88
88
88
F0
ENDCHAR
STARTCHAR LATIN SMALL LETTER D WITH CARON
ENCODING 271
SWIDTH 640 0
DWIDTH 6 0
BBX 6 8 0 0
BITMAP
04
14
18
70
90
90
90
70
ENDCHAR
STARTCHAR LATIN CAPITAL LETTER D WITH STROKE
ENCODING 272
SWIDTH 640 0
DWIDTH 6 0
BBX 6 7 -1 0
BITMAP
78
44
44
F4
44
44
78
ENDCHAR
STARTCHAR LATIN SMALL LETTER D WITH STROKE
ENCODING 273
SWIDTH 640 0
DWIDTH 6 0
BBX 6 7 0 0
BITMAP
1C
08
78
88
88
88
78
ENDCHAR
STARTCHAR LATIN CAPITAL LETTER E WITH MACRON
ENCODING 274
SWIDTH 640 0
DWIDTH 6 0
BBX 5 9 0 0
BITMAP
70
00
F8
80
80
F0
80
80
F8
ENDCHAR
STARTCHAR LATIN SMALL LETTER E WITH MACRON
ENCODING 275
SWIDTH 640 0
DWIDTH 6 0
BBX 5 7 0 0
BITMAP
F8
00
70
88
F8
80
78
ENDCHAR
STARTCHAR LATIN CAPITAL LETTER E WITH BREVE
ENCODING 276
SWIDTH 640 0
DWIDTH 6 0
BBX 5 9 0 0
BITMAP
88
70
00
F8
80
F0
80
80
F8
ENDCHAR
STARTCHAR LATIN SMALL LETTER E WITH BREVE
ENCODING 277
SWIDTH 640 0
DWIDTH 6 0
BBX 5 8 0 0
BITMAP
88
70
00
70
88
F8
80
78
ENDCHAR
STARTCHAR LATIN CAPITAL LETTER E WITH DOT ABOVE
ENCODING 278
SWIDTH 640 0
DWIDTH 6 0
BBX 5 9 0 0
BITMAP
20
00
F8
80
80
F0
80
80
F8
ENDCHAR
STARTCHAR LATIN SMALL LETTER E WITH DOT ABOVE
ENCODING 279
SWIDTH 640 0
DWIDTH 6 0
BBX 5 7 0 0
BITMAP
20
00
70
88
F8
80
78
ENDCHAR
STARTCHAR LATIN CAPITAL LETTER E WITH OGONEK
ENCODING 280
SWIDTH 640 0
DWIDTH 6 0
BBX 6 8 0 -1
BITMAP
F8
80
80
F0
80
80
F8
04
ENDCHAR
STARTCHAR LATIN SMALL LETTER E WITH OGONEK
ENCODING 281
SWIDTH 640 0
DWIDTH 6 0
BBX 5 7 0 -2
BITMAP
70
88
F8
80
78
10
08
ENDCHAR
STARTCHAR LATIN CAPITAL LETTER E WITH CARON
ENCODING 282
SWIDTH 640 0
DWIDTH 6 0
BBX 5 9 0 0
BITMAP
50
20
F8
80
80
F0
80
80
F8
ENDCHAR
STARTCHAR LATIN SMALL LETTER E WITH CARON
ENCODING 283
SWIDTH 640 0
DWIDTH 6 0
BBX 5 8 0 0
BITMAP
50
20
00
70
88
F8
80
78
ENDCHAR
STARTCHAR LATIN CAPITAL LETTER G WITH CIRCUMFLEX
ENCODING 284
SWIDTH 640 0
DWIDTH 6 0
BBX 5 9 0 0
BITMAP
20
50
00
70
88
80
98
88
70
ENDCHAR
STARTCHAR LATIN SMALL LETTER G WITH CIRCUMFLEX
ENCODING 285
SWIDTH 640 0
DWIDTH 6 0
BBX 5 10 0 -2
BITMAP
20
50
00
78
88
88
88
78
08
70
ENDCHAR
STARTCHAR LATIN CAPITAL LETTER G WITH BREVE
ENCODING 286
SWIDTH 640 0
DWIDTH 6 0
BBX 5 9 0 0
BITMAP
88
70
00
70
88
80
98
88
70
ENDCHAR
STARTCHAR LATIN SMALL LETTER G WITH BREVE
ENCODING 287
SWIDTH 640 0
DWIDTH 6 0
BBX 5 10 0 -2
BITMAP
88
70
00
78
88
88
88
78
08
70
ENDCHAR
STARTCHAR LATIN CAPITAL LETTER G WITH DOT ABOVE
ENCODING 288
SWIDTH 640 0
DWIDTH 6 0
BBX 5 9 0 0
BITMAP
20
00
70
88
80
98
88
88
70
ENDCHAR
STARTCHAR LATIN SMALL LETTER G WITH DOT ABOVE
ENCODING 289
SWIDTH 640 0
DWIDTH 6 0
BBX 5 9 0 -2
BITMAP
20
00
78
88
88
88
78
08
70
ENDCHAR
STARTCHAR LATIN CAPITAL LETTER G WITH CEDILLA
ENCODING 290
SWIDTH 640 0
DWIDTH 6 0
BBX 5 9 0 -2
BITMAP
70
88
80
98
88
88
70
20
40
ENDCHAR
STARTCHAR LATIN SMALL LETTER G WITH CEDILLA
ENCODING 291
SWIDTH 640 0
DWIDTH 6 0
BBX 5 10 0 -2
BITMAP
10
20
00
78
88
88
88
78
08
70
ENDCHAR
STARTCHAR LATIN CAPITAL LETTER H WITH CIRCUMFLEX
ENCODING 292
SWIDTH 533 0
DWIDTH 5 0
BBX 5 9 0 0
BITMAP
20
50
00
88
88
F8
88
88
88
ENDCHAR
STARTCHAR LATIN SMALL LETTER H WITH CIRCUMFLEX
ENCODING 293
SWIDTH 640 0
DWIDTH 6 0
BBX 5 9 0 0
BITMAP
20
50
80
80
F0
88
88
88
88
ENDCHAR
STARTCHAR LATIN CAPITAL LETTER H WITH STROKE
ENCODING 294
SWIDTH 640 0
DWIDTH 6 0
BBX 7 7 -1 0
BITMAP
44
FE
44
7C
44
44
44
ENDCHAR
STARTCHAR LATIN SMALL LETTER H WITH STROKE
ENCODING 295
SWIDTH 640 0
DWIDTH 6 0
BBX 6 7 -1 0
BITMAP
F0
40
78
44
44
44
44
ENDCHAR
STARTCHAR LATIN CAPITAL LETTER I WITH TILDE
ENCODING 296
SWIDTH 640 0
DWIDTH 6 0
BBX 5 9 0 0
BITMAP
68
B0
00
70
20
20
20
20
70
ENDCHAR
STARTCHAR LATIN SMALL LETTER I WITH TILDE
ENCODING 297
SWIDTH 640 0
DWIDTH 6 0
BBX 5 8 0 0
BITMAP
68
B0
00
60
20
20
20
30
ENDCHAR
STARTCHAR LATIN CAPITAL LETTER I WITH MACRON
ENCODING 298
SWIDTH 640 0
DWIDTH 6 0
BBX 3 9 1 0
BITMAP
E0
00
E0
40
40
40
40
40
E0
ENDCHAR
STARTCHAR LATIN SMALL LETTER I WITH MACRON
ENCODING 299
SWIDTH 640 0
DWIDTH 6 0
BBX 3 7 1 0
BITMAP
E0
00
C0
40
40
40
60
ENDCHAR
STARTCHAR LATIN CAPITAL LETTER I WITH BREVE
ENCODING 300
SWIDTH 640 0
DWIDTH 6 0
BBX 5 9 0 0
BITMAP
88
70
00
70
20
20
20
20
70
ENDCHAR
STARTCHAR LATIN SMALL LETTER I WITH BREVE
ENCODING 301
SWIDTH 640 0
DWIDTH 6 0
BBX 5 8 0 0
BITMAP
88
70
00
60
20
20
20
30
ENDCHAR
STARTCHAR LATIN CAPITAL LETTER I WITH OGONEK
ENCODING 302
SWIDTH 640 0
DWIDTH 6 0
BBX 3 9 1 -2
BITMAP
E0
40
40
40
40
40
E0
80
40
ENDCHAR
STARTCHAR LATIN SMALL LETTER I WITH OGONEK
ENCODING 303
SWIDTH 640 0
DWIDTH 6 0
BBX 3 9 1 -2
BITMAP
40
00
C0
40
40
40
60
80
40
ENDCHAR
STARTCHAR LATIN CAPITAL LETTER I WITH DOT ABOVE
ENCODING 304
SWIDTH 640 0
DWIDTH 6 0
BBX 3 9 1 0
BITMAP
40
00
E0
40
40
40
40
40
E0
ENDCHAR
STARTCHAR LATIN SMALL LETTER DOTLESS I
ENCODING 305
SWIDTH 640 0
DWIDTH 6 0
BBX 3 5 1 0
BITMAP
C0
40
40
40
60
ENDCHAR
STARTCHAR LATIN CAPITAL LIGATURE IJ
ENCODING 306
SWIDTH 640 0
DWIDTH 6 0
BBX 6 7 0 0
BITMAP
FC
44
44
44
44
54
E8
ENDCHAR
STARTCHAR LATIN SMALL LIGATURE IJ
ENCODING 307
SWIDTH 640 0
DWIDTH 6 0
BBX 6 9 0 -2
BITMAP
44
00
CC
44
44
44
E4
04
18
ENDCHAR
STARTCHAR LATIN CAPITAL LETTER J WITH CIRCUMFLEX
ENCODING 308
SWIDTH 640 0
DWIDTH 6 0
BBX 5 9 0 0
BITMAP
20
50
00
08
08
08
88
88
70
ENDCHAR
STARTCHAR LATIN SMALL LETTER J WITH CIRCUMFLEX
ENCODING 309
SWIDTH 640 0
DWIDTH 6 0
BBX 4 10 0 -2
BITMAP
20
50
00
60
20
20
20
20
20
C0
ENDCHAR
STARTCHAR LATIN CAPITAL LETTER K WITH CEDILLA
ENCODING 310
SWIDTH 640 0
DWIDTH 6 0
BBX 5 9 0 -2
BITMAP
88
90
A0
C0
A0
90
88
20
40
ENDCHAR
STARTCHAR LATIN SMALL LETTER K WITH CEDILLA
ENCODING 311
SWIDTH 640 0
DWIDTH 6 0
BBX 5 9 0 -2
BITMAP
80
80
90
A0
E0
90
88
20
40
ENDCHAR
STARTCHAR LATIN SMALL LETTER KRA
ENCODING 312
SWIDTH 640 0
DWIDTH 6 0
BBX 4 5 0 0
BITMAP
90
A0
C0
A0
90
ENDCHAR
STARTCHAR LATIN CAPITAL LETTER L WITH ACUTE
ENCODING 313
SWIDTH 640 0
DWIDTH 6 0
BBX 5 9 0 0
BITMAP
10
20
80
80
80
80
80
80
F8
ENDCHAR
STARTCHAR LATIN SMALL LETTER L WITH ACUTE
ENCODING 314
SWIDTH 640 0
DWIDTH 6 0
BBX 4 9 1 0
BITMAP
10
20
C0
40
40
40
40
40
60
ENDCHAR
STARTCHAR LATIN CAPITAL LETTER L WITH CEDILLA
ENCODING 315
SWIDTH 640 0
DWIDTH 6 0
BBX 5 9 0 -2
BITMAP
80
80
80
80
80
80
F8
20
40
ENDCHAR
STARTCHAR LATIN SMALL LETTER L WITH CEDILLA
ENCODING 316
SWIDTH 640 0
DWIDTH 6 0
BBX 3 9 1 -2
BITMAP
C0
40
40
40
40
40
60
20
40
ENDCHAR
STARTCHAR LATIN CAPITAL LETTER L WITH CARON
ENCODING 317
SWIDTH 640 0
DWIDTH 6 0
BBX 5 8 0 0
BITMAP
30
90
80
80
80
80
80
F8
ENDCHAR
STARTCHAR LATIN SMALL LETTER L WITH CARON
ENCODING 318
SWIDTH 640 0
DWIDTH 6 0
BBX 4 9 1 0
BITMAP
30
10
C0
40
40
40
40
40
60
ENDCHAR
STARTCHAR LATIN CAPITAL LETTER L WITH MIDDLE DOT
ENCODING 319
SWIDTH 640 0
DWIDTH 6 0
BBX 5 7 0 0
BITMAP
80
80
80
A0
80
80
F8
ENDCHAR
STARTCHAR LATIN SMALL LETTER L WITH MIDDLE DOT
ENCODING 320
SWIDTH 640 0
DWIDTH 6 0
BBX 4 7 1 0
BITMAP
C0
40
40
50
40
40
60
ENDCHAR
STARTCHAR LATIN CAPITAL LETTER L WITH STROKE
ENCODING 321
SWIDTH 640 0
DWIDTH 6 0
BBX 5 7 0 0
BITMAP
80
80
A0
C0
80
80
F8
ENDCHAR
STARTCHAR LATIN SMALL LETTER L WITH STROKE
ENCODING 322
SWIDTH 640 0
DWIDTH 6 0
BBX 3 7 1 0
BITMAP
C0
40
60
40
C0
40
60
ENDCHAR
STARTCHAR LATIN CAPITAL LETTER N WITH ACUTE
ENCODING 323
SWIDTH 640 0
DWIDTH 6 0
BBX 5 9 0 0
BITMAP
10
20
88
C8
A8
98
88
88
88
ENDCHAR
STARTCHAR LATIN SMALL LETTER N WITH ACUTE
ENCODING 324
SWIDTH 640 0
DWIDTH 6 0
BBX 5 8 0 0
BITMAP
10
20
00
B0
C8
88
88
88
ENDCHAR
STARTCHAR LATIN CAPITAL LETTER N WITH CEDILLA
ENCODING 325
SWIDTH 640 0
DWIDTH 6 0
BBX 5 9 0 -2
BITMAP
88
C8
A8
98
88
88
A8
20
40
ENDCHAR
STARTCHAR LATIN SMALL LETTER N WITH CEDILLA
ENCODING 326
SWIDTH 640 0
DWIDTH 6 0
BBX 5 7 0 -2
BITMAP
B0
C8
88
88
A8
20
40
ENDCHAR
STARTCHAR LATIN CAPITAL LETTER N WITH CARON
ENCODING 327
SWIDTH 640 0
DWIDTH 6 0
BBX 5 9 0 0
BITMAP
50
20
88
C8
A8
98
88
88
88
ENDCHAR
STARTCHAR LATIN SMALL LETTER N WITH CARON
ENCODING 328
SWIDTH 640 0
DWIDTH 6 0
BBX 5 8 0 0
BITMAP
50
20
00
B0
C8
88
88
88
ENDCHAR
STARTCHAR LATIN SMALL LETTER N PRECEDED BY APOSTROPHE
ENCODING 329
SWIDTH 640 0
DWIDTH 6 0
BBX 5 8 0 0
BITMAP
80
80
00
B0
C8
88
88
88
ENDCHAR
STARTCHAR LATIN CAPITAL LETTER ENG
ENCODING 330
SWIDTH 640 0
DWIDTH 6 0
BBX 5 9 0 -2
BITMAP
88
C8
A8
98
88
88
88
08
30
ENDCHAR
STARTCHAR LATIN SMALL LETTER ENG
ENCODING 331
SWIDTH 640 0
DWIDTH 6 0
BBX 5 7 0 -2
BITMAP
B0
C8
88
88
88
08
30
ENDCHAR
STARTCHAR LATIN CAPITAL LETTER O WITH MACRON
ENCODING 332
SWIDTH 640 0
DWIDTH 6 0
BBX 5 9 0 0
BITMAP
70
00
70
88
88
88
88
88
70
ENDCHAR
STARTCHAR LATIN SMALL LETTER O WITH MACRON
ENCODING 333
SWIDTH 640 0
DWIDTH 6 0
BBX 5 7 0 0
BITMAP
F8
00
70
88
88
88
70
ENDCHAR
STARTCHAR LATIN CAPITAL LETTER O WITH BREVE
ENCODING 334
SWIDTH 640 0
DWIDTH 6 0
BBX 5 9 0 0
BITMAP
88
70
00
70
88
88
88
88
70
ENDCHAR
STARTCHAR LATIN SMALL LETTER O WITH BREVE
ENCODING 335
SWIDTH 640 0
DWIDTH 6 0
BBX 5 8 0 0
BITMAP
88
70
00
70
88
88
88
70
ENDCHAR
STARTCHAR LATIN CAPITAL LETTER O WITH DOUBLE ACUTE
ENCODING 336
SWIDTH 640 0
DWIDTH 6 0
BBX 5 9 0 0
BITMAP
28
50
70
88
88
88
88
88
70
ENDCHAR
STARTCHAR LATIN SMALL LETTER O WITH DOUBLE ACUTE
ENCODING 337
SWIDTH 640 0
DWIDTH 6 0
BBX 5 8 0 0
BITMAP
28
50
00
70
88
88
88
70
ENDCHAR
STARTCHAR LATIN CAPITAL LIGATURE OE
ENCODING 338
SWIDTH 640 0
DWIDTH 6 0
BBX 5 7 0 0
BITMAP
58
A0
A0
B0
A0
A0
58
ENDCHAR
STARTCHAR LATIN SMALL LIGATURE OE
ENCODING 339
SWIDTH 640 0
DWIDTH 6 0
BBX 5 5 0 0
BITMAP
50
A8
B8
A0
58
ENDCHAR
STARTCHAR LATIN CAPITAL LETTER R WITH ACUTE
ENCODING 340
SWIDTH 640 0
DWIDTH 6 0
BBX 5 9 0 0
BITMAP
10
20
F0
88
88
F0
88
88
88
ENDCHAR
STARTCHAR LATIN SMALL LETTER R WITH ACUTE
ENCODING 341
SWIDTH 640 0
DWIDTH 6 0
BBX 5 8 0 0
BITMAP
10
20
00
B0
C8
80
80
80
ENDCHAR
STARTCHAR LATIN CAPITAL LETTER R WITH CEDILLA
ENCODING 342
SWIDTH 640 0
DWIDTH 6 0
BBX 5 9 0 -2
BITMAP
F0
88
88
F0
88
88
A8
20
40
ENDCHAR
STARTCHAR LATIN SMALL LETTER R WITH CEDILLA
ENCODING 343
SWIDTH 640 0
DWIDTH 6 0
BBX 5 7 0 -2
BITMAP
B0
C8
80
80
A0
20
40
ENDCHAR
STARTCHAR LATIN CAPITAL LETTER R WITH CARON
ENCODING 344
SWIDTH 640 0
DWIDTH 6 0
BBX 5 9 0 0
BITMAP
50
20
F0
88
88
F0
88
88
88
ENDCHAR
STARTCHAR LATIN SMALL LETTER R WITH CARON
ENCODING 345
SWIDTH 640 0
DWIDTH 6 0
BBX 5 8 0 0
BITMAP
50
20
00
B0
C8
80
80
80
ENDCHAR
STARTCHAR LATIN CAPITAL LETTER S WITH ACUTE
ENCODING 346
SWIDTH 640 0
DWIDTH 6 0
BBX 5 9 0 0
BITMAP
10
20
70
88
80
70
08
88
70
ENDCHAR
STARTCHAR LATIN SMALL LETTER S WITH ACUTE
ENCODING 347
SWIDTH 640 0
DWIDTH 6 0
BBX 5 8 0 0
BITMAP
10
20
00
78
80
70
08
F0
ENDCHAR
STARTCHAR LATIN CAPITAL LETTER S WITH CIRCUMFLEX
ENCODING 348
SWIDTH 640 0
DWIDTH 6 0
BBX 5 9 0 0
BITMAP
20
50
70
88
80
70
08
88
70
ENDCHAR
STARTCHAR LATIN SMALL LETTER S WITH CIRCUMFLEX
ENCODING 349
SWIDTH 640 0
DWIDTH 6 0
BBX 5 8 0 0
BITMAP
20
50
00
78
80
70
08
F0
ENDCHAR
STARTCHAR LATIN CAPITAL LETTER S WITH CEDILLA
ENCODING 350
SWIDTH 640 0
DWIDTH 6 0
BBX 5 9 0 -2
BITMAP
70
88
80
70
08
88
70
20
20
ENDCHAR
STARTCHAR LATIN SMALL LETTER S WITH CEDILLA
ENCODING 351
SWIDTH 640 0
DWIDTH 6 0
BBX 5 7 0 -2
BITMAP
78
80
70
08
F0
20
20
ENDCHAR
STARTCHAR LATIN CAPITAL LETTER S WITH CARON
ENCODING 352
SWIDTH 640 0
DWIDTH 6 0
BBX 5 9 0 0
BITMAP
50
20
70
88
80
70
08
88
70
ENDCHAR
STARTCHAR LATIN SMALL LETTER S WITH CARON
ENCODING 353
SWIDTH 640 0
DWIDTH 6 0
BBX 5 8 0 0
BITMAP
50
20
00
78
80
70
08
F0
ENDCHAR
STARTCHAR LATIN CAPITAL LETTER T WITH CEDILLA
ENCODING 354
SWIDTH 640 0
DWIDTH 6 0
BBX 5 9 0 -2
BITMAP
F8
20
20
20
20
20
20
20
40
ENDCHAR
STARTCHAR LATIN SMALL LETTER T WITH CEDILLA
ENCODING 355
SWIDTH 640 0
DWIDTH 6 0
BBX 4 9 1 -2
BITMAP
40
40
E0
40
40
40
30
20
20
ENDCHAR
STARTCHAR LATIN CAPITAL LETTER T WITH CARON
ENCODING 356
SWIDTH 640 0
DWIDTH 6 0
BBX 5 9 0 0
BITMAP
50
20
00
F8
20
20
20
20
20
ENDCHAR
STARTCHAR LATIN SMALL LETTER T WITH CARON
ENCODING 357
SWIDTH 640 0
DWIDTH 6 0
BBX 5 9 1 0
BITMAP
18
08
40
40
E0
40
40
40
30
ENDCHAR
STARTCHAR LATIN CAPITAL LETTER T WITH STROKE
ENCODING 358
SWIDTH 640 0
DWIDTH 6 0
BBX 5 7 0 0
BITMAP
F8
20
20
70
20
20
20
ENDCHAR
STARTCHAR LATIN SMALL LETTER T WITH STROKE
ENCODING 359
SWIDTH 640 0
DWIDTH 6 0
BBX 4 7 1 0
BITMAP
40
40
E0
40
E0
40
30
ENDCHAR
STARTCHAR LATIN CAPITAL LETTER U WITH TILDE
ENCODING 360
SWIDTH 640 0
DWIDTH 6 0
BBX 5 9 0 0
BITMAP
68
B0
00
88
88
88
88
88
70
ENDCHAR
STARTCHAR LATIN SMALL LETTER U WITH TILDE
ENCODING 361
SWIDTH 640 0
DWIDTH 6 0
BBX 5 8 0 0
BITMAP
68
B0
00
88
88
88
98
68
ENDCHAR
STARTCHAR LATIN CAPITAL LETTER U WITH MACRON
ENCODING 362
SWIDTH 640 0
DWIDTH 6 0
BBX 5 9 0 0
BITMAP
70
00
88
88
88
88
88
88
70
ENDCHAR
STARTCHAR LATIN SMALL LETTER U WITH MACRON
ENCODING 363
SWIDTH 640 0
DWIDTH 6 0
BBX 5 7 0 0
BITMAP
70
00
88
88
88
98
68
ENDCHAR
STARTCHAR LATIN CAPITAL LETTER U WITH BREVE
ENCODING 364
SWIDTH 640 0
DWIDTH 6 0
BBX 5 9 0 0
BITMAP
88
70
00
88
88
88
88
88
70
ENDCHAR
STARTCHAR LATIN SMALL LETTER U WITH BREVE
ENCODING 365
SWIDTH 640 0
DWIDTH 6 0
BBX 5 8 0 0
BITMAP
88
70
00
88
88
88
98
68
ENDCHAR
STARTCHAR LATIN CAPITAL LETTER U WITH RING ABOVE
ENCODING 366
SWIDTH 640 0
DWIDTH 6 0
BBX 5 8 0 0
BITMAP
20
50
20
88
88
88
88
70
ENDCHAR
STARTCHAR LATIN SMALL LETTER U WITH RING ABOVE
ENCODING 367
SWIDTH 640 0
DWIDTH 6 0
BBX 5 8 0 0
BITMAP
20
50
20
88
88
88
98
68
ENDCHAR
STARTCHAR LATIN CAPITAL LETTER U WITH DOUBLE ACUTE
ENCODING 368
SWIDTH 640 0
DWIDTH 6 0
BBX 5 9 0 0
BITMAP
28
50
00
88
88
88
88
88
70
ENDCHAR
STARTCHAR LATIN SMALL LETTER U WITH DOUBLE ACUTE
ENCODING 369
SWIDTH 640 0
DWIDTH 6 0
BBX 5 8 0 0
BITMAP
28
50
00
88
88
88
98
68
ENDCHAR
STARTCHAR LATIN CAPITAL LETTER U WITH OGONEK
ENCODING 370
SWIDTH 640 0
DWIDTH 6 0
BBX 5 9 0 -2
BITMAP
88
88
88
88
88
88
70
20
10
ENDCHAR
STARTCHAR LATIN SMALL LETTER U WITH OGONEK
ENCODING 371
SWIDTH 640 0
DWIDTH 6 0
BBX 5 7 0 -2
BITMAP
88
88
88
98
68
20
10
ENDCHAR
STARTCHAR LATIN CAPITAL LETTER W WITH CIRCUMFLEX
ENCODING 372
SWIDTH 640 0
DWIDTH 6 0
BBX 5 9 0 0
BITMAP
20
50
00
88
88
88
A8
D8
88
ENDCHAR
STARTCHAR LATIN SMALL LETTER W WITH CIRCUMFLEX
ENCODING 373
SWIDTH 640 0
DWIDTH 6 0
BBX 5 8 0 0
BITMAP
20
50
00
A8
A8
A8
A8
50
ENDCHAR
STARTCHAR LATIN CAPITAL LETTER Y WITH CIRCUMFLEX
ENCODING 374
SWIDTH 640 0
DWIDTH 6 0
BBX 5 9 0 0
BITMAP
20
50
00
88
88
88
50
20
20
ENDCHAR
STARTCHAR LATIN SMALL LETTER Y WITH CIRCUMFLEX
ENCODING 375
SWIDTH 640 0
DWIDTH 6 0
BBX 5 10 0 -2
BITMAP
20
50
00
88
88
88
88
78
08
70
ENDCHAR
STARTCHAR LATIN CAPITAL LETTER Y WITH DIAERESIS
ENCODING 376
SWIDTH 640 0
DWIDTH 6 0
BBX 5 9 0 0
BITMAP
50
00
88
88
88
50
20
20
20
ENDCHAR
STARTCHAR LATIN CAPITAL LETTER Z WITH ACUTE
ENCODING 377
SWIDTH 640 0
DWIDTH 6 0
BBX 5 9 0 0
BITMAP
10
20
F8
08
10
20
40
80
F8
ENDCHAR
STARTCHAR LATIN SMALL LETTER Z WITH ACUTE
ENCODING 378
SWIDTH 640 0
DWIDTH 6 0
BBX 5 8 0 0
BITMAP
10
20
00
F8
10
20
40
F8
ENDCHAR
STARTCHAR LATIN CAPITAL LETTER Z WITH DOT ABOVE
ENCODING 379
SWIDTH 640 0
DWIDTH 6 0
BBX 5 9 0 0
BITMAP
20
00
F8
08
10
20
40
80
F8
ENDCHAR
STARTCHAR LATIN SMALL LETTER Z WITH DOT ABOVE
ENCODING 380
SWIDTH 640 0
DWIDTH 6 0
BBX 5 7 0 0
BITMAP
20
00
F8
10
20
40
F8
ENDCHAR
STARTCHAR LATIN CAPITAL LETTER Z WITH CARON
ENCODING 381
SWIDTH 640 0
DWIDTH 6 0
BBX 5 9 0 0
BITMAP
50
20
F8
08
10
20
40
80
F8
ENDCHAR
STARTCHAR LATIN SMALL LETTER Z WITH CARON
ENCODING 382
SWIDTH 640 0
DWIDTH 6 0
BBX 5 8 0 0
BITMAP
50
20
00
F8
10
20
40
F8
ENDCHAR
STARTCHAR LATIN SMALL LETTER LONG S
ENCODING 383
SWIDTH 640 0
DWIDTH 6 0
BBX 4 7 1 0
BITMAP
30
40
C0
40
40
40
40
ENDCHAR
STARTCHAR LATIN SMALL LETTER B WITH STROKE
ENCODING 384
SWIDTH 640 0
DWIDTH 6 0
BBX 6 7 0 0
BITMAP
F0
40
78
44
44
44
78
ENDCHAR
STARTCHAR LATIN CAPITAL LETTER B WITH HOOK
ENCODING 385
SWIDTH 640 0
DWIDTH 6 0
BBX 6 7 0 0
BITMAP
F8
44
44
78
44
44
78
ENDCHAR
STARTCHAR LATIN CAPITAL LETTER B WITH TOPBAR
ENCODING 386
SWIDTH 640 0
DWIDTH 6 0
BBX 6 8 0 0
BITMAP
F8
88
80
F8
84
84
84
F8
ENDCHAR
STARTCHAR LATIN SMALL LETTER B WITH TOPBAR
ENCODING 387
SWIDTH 640 0
DWIDTH 6 0
BBX 5 8 0 0
BITMAP
F0
90
80
F0
88
88
88
F0
ENDCHAR
STARTCHAR LATIN CAPITAL LETTER TONE SIX
ENCODING 388
SWIDTH 640 0
DWIDTH 6 0
BBX 6 8 0 0
BITMAP
40
C0
C0
78
44
44
44
78
ENDCHAR
STARTCHAR LATIN SMALL LETTER TONE SIX
ENCODING 389
SWIDTH 640 0
DWIDTH 6 0
BBX 5 8 0 0
BITMAP
40
C0
C0
70
48
48
48
70
ENDCHAR
STARTCHAR LATIN CAPITAL LETTER OPEN O
ENCODING 390
SWIDTH 640 0
DWIDTH 6 0
BBX 5 7 0 0
BITMAP
70
88
08
08
08
88
70
ENDCHAR
STARTCHAR LATIN CAPITAL LETTER C WITH HOOK
ENCODING 391
SWIDTH 640 0
DWIDTH 6 0
BBX 6 7 0 0
BITMAP
74
88
80
80
80
88
70
ENDCHAR
STARTCHAR LATIN SMALL LETTER C WITH HOOK
ENCODING 392
SWIDTH 640 0
DWIDTH 6 0
BBX 6 7 0 0
BITMAP
0C
10
70
88
80
80
78
ENDCHAR
STARTCHAR LATIN CAPITAL LETTER AFRICAN D
ENCODING 393
SWIDTH 640 0
DWIDTH 6 0
BBX 6 7 0 0
BITMAP
78
44
44
F4
44
44
78
ENDCHAR
STARTCHAR LATIN CAPITAL LETTER D WITH HOOK
ENCODING 394
SWIDTH 640 0
DWIDTH 6 0
BBX 6 7 0 0
BITMAP
78
A4
24
24
24
24
38
ENDCHAR
STARTCHAR LATIN CAPITAL LETTER D WITH TOPBAR
ENCODING 395
SWIDTH 640 0
DWIDTH 6 0
BBX 6 8 0 0
BITMAP
7C
44
04
7C
84
84
84
7C
ENDCHAR
STARTCHAR LATIN SMALL LETTER D WITH TOPBAR
ENCODING 396
SWIDTH 640 0
DWIDTH 6 0
BBX 5 8 0 0
BITMAP
78
48
08
78
88
88
88
78
ENDCHAR
STARTCHAR LATIN SMALL LETTER TURNED DELTA
ENCODING 397
SWIDTH 640 0
DWIDTH 6 0
BBX 5 8 0 0
BITMAP
70
88
88
88
70
20
10
F8
ENDCHAR
STARTCHAR LATIN CAPITAL LETTER REVERSED E
ENCODING 398
SWIDTH 640 0
DWIDTH 6 0
BBX 6 7 0 0
BITMAP
7C
44
84
3C
04
04
7C
ENDCHAR
STARTCHAR LATIN CAPITAL LETTER SCHWA
ENCODING 399
SWIDTH 640 0
DWIDTH 6 0
BBX 5 7 0 0
BITMAP
70
88
08
F8
88
88
70
ENDCHAR
STARTCHAR LATIN CAPITAL LETTER OPEN E
ENCODING 400
SWIDTH 640 0
DWIDTH 6 0
BBX 5 7 0 0
BITMAP
70
88
80
70
80
88
70
ENDCHAR
STARTCHAR LATIN CAPITAL LETTER F WITH HOOK
ENCODING 401
SWIDTH 640 0
DWIDTH 6 0
BBX 6 9 0 -2
BITMAP
7C
40
40
78
40
40
40
40
80
ENDCHAR
STARTCHAR LATIN SMALL LETTER F WITH HOOK
ENCODING 402
SWIDTH 640 0
DWIDTH 6 0
BBX 5 10 0 -1
BITMAP
18
20
20
20
70
20
20
20
20
C0
ENDCHAR
STARTCHAR LATIN CAPITAL LETTER G WITH HOOK
ENCODING 403
SWIDTH 640 0
DWIDTH 6 0
BBX 6 7 0 0
BITMAP
68
94
80
98
88
88
70
ENDCHAR
STARTCHAR LATIN CAPITAL LETTER GAMMA
ENCODING 404
SWIDTH 640 0
DWIDTH 6 0
BBX 5 9 0 -2
BITMAP
88
88
88
50
50
20
50
50
20
ENDCHAR
STARTCHAR LATIN SMALL LETTER HV
ENCODING 405
SWIDTH 640 0
DWIDTH 6 0
BBX 5 7 0 0
BITMAP
80
80
80
C8
A8
A8
90
ENDCHAR
STARTCHAR LATIN CAPITAL LETTER IOTA
ENCODING 406
SWIDTH 640 0
DWIDTH 6 0
BBX 3 7 1 0
BITMAP
80
80
80
80
80
A0
40
ENDCHAR
STARTCHAR LATIN CAPITAL LETTER I WITH STROKE
ENCODING 407
SWIDTH 640 0
DWIDTH 6 0
BBX 3 7 1 0
BITMAP
E0
40
40
E0
40
40
E0
ENDCHAR
STARTCHAR LATIN CAPITAL LETTER K WITH HOOK
ENCODING 408
SWIDTH 640 0
DWIDTH 6 0
BBX 6 7 0 0
BITMAP
88
94
A0
C0
A0
90
88
ENDCHAR
STARTCHAR LATIN SMALL LETTER K WITH HOOK
ENCODING 409
SWIDTH 640 0
DWIDTH 6 0
BBX 5 8 0 0
BITMAP
60
80
80
90
A0
E0
90
88
ENDCHAR
STARTCHAR LATIN SMALL LETTER L WITH BAR
ENCODING 410
SWIDTH 640 0
DWIDTH 6 0
BBX 3 7 1 0
BITMAP
C0
40
40
E0
40
40
60
ENDCHAR
STARTCHAR LATIN SMALL LETTER LAMBDA WITH STROKE
ENCODING 411
SWIDTH 640 0
DWIDTH 6 0
BBX 5 8 0 0
BITMAP
40
40
E0
20
50
50
88
88
ENDCHAR
STARTCHAR LATIN CAPITAL LETTER TURNED M
ENCODING 412
SWIDTH 640 0
DWIDTH 6 0
BBX 5 5 0 0
BITMAP
A8
A8
A8
A8
78
ENDCHAR
STARTCHAR LATIN CAPITAL LETTER N WITH LEFT HOOK
ENCODING 413
SWIDTH 640 0
DWIDTH 6 0
BBX 6 8 0 -1
BITMAP
64
64
54
54
54
4C
4C
80
ENDCHAR
STARTCHAR LATIN SMALL LETTER N WITH LONG RIGHT LEG
ENCODING 414
SWIDTH 640 0
DWIDTH 6 0
BBX 5 8 0 -3
BITMAP
B0
C8
88
88
88
08
08
10
ENDCHAR
STARTCHAR LATIN CAPITAL LETTER O WITH MIDDLE TILDE
ENCODING 415
SWIDTH 640 0
DWIDTH 6 0
BBX 5 5 0 1
BITMAP
70
88
F8
88
70
ENDCHAR
STARTCHAR LATIN CAPITAL LETTER O WITH HORN
ENCODING 416
SWIDTH 640 0
DWIDTH 6 0
BBX 6 9 0 0
BITMAP
04
04
78
88
88
88
88
88
70
ENDCHAR
STARTCHAR LATIN SMALL LETTER O WITH HORN
ENCODING 417
SWIDTH 640 0
DWIDTH 6 0
BBX 5 7 0 0
BITMAP
08
08
70
88
88
88
70
ENDCHAR
STARTCHAR LATIN CAPITAL LETTER OI
ENCODING 418
SWIDTH 640 0
DWIDTH 6 0
BBX 6 7 0 0
BITMAP
68
94
94
94
94
94
64
ENDCHAR
STARTCHAR LATIN SMALL LETTER OI
ENCODING 419
SWIDTH 640 0
DWIDTH 6 0
BBX 6 5 0 0
BITMAP
68
94
94
94
64
ENDCHAR
STARTCHAR LATIN CAPITAL LETTER P WITH HOOK
ENCODING 420
SWIDTH 640 0
DWIDTH 6 0
BBX 6 7 0 0
BITMAP
78
A4
24
38
20
20
20
ENDCHAR
STARTCHAR LATIN SMALL LETTER P WITH HOOK
ENCODING 421
SWIDTH 640 0
DWIDTH 6 0
BBX 6 9 0 -2
BITMAP
08
14
F0
88
88
88
F0
80
80
ENDCHAR
STARTCHAR LATIN LETTER YR
ENCODING 422
SWIDTH 640 0
DWIDTH 6 0
BBX 5 9 0 -1
BITMAP
80
80
F0
88
88
F0
A0
90
08
ENDCHAR
STARTCHAR LATIN CAPITAL LETTER TONE TWO
ENCODING 423
SWIDTH 640 0
DWIDTH 6 0
BBX 5 7 0 0
BITMAP
70
88
08
70
80
88
70
ENDCHAR
STARTCHAR LATIN SMALL LETTER TONE TWO
ENCODING 424
SWIDTH 640 0
DWIDTH 6 0
BBX 5 5 0 0
BITMAP
F0
08
70
80
78
ENDCHAR
STARTCHAR LATIN CAPITAL LETTER ESH
ENCODING 425
SWIDTH 640 0
DWIDTH 6 0
BBX 5 7 0 0
BITMAP
F8
80
40
20
40
80
F8
ENDCHAR
STARTCHAR LATIN LETTER REVERSED ESH LOOP
ENCODING 426
SWIDTH 640 0
DWIDTH 6 0
BBX 5 9 0 -1
BITMAP
40
A0
60
20
20
20
20
20
18
ENDCHAR
STARTCHAR LATIN SMALL LETTER T WITH PALATAL HOOK
ENCODING 427
SWIDTH 640 0
DWIDTH 6 0
BBX 5 9 0 -2
BITMAP
40
40
F0
40
40
40
30
08
30
ENDCHAR
STARTCHAR LATIN CAPITAL LETTER T WITH HOOK
ENCODING 428
SWIDTH 640 0
DWIDTH 6 0
BBX 5 7 0 0
BITMAP
F8
28
20
20
20
20
20
ENDCHAR
STARTCHAR LATIN SMALL LETTER T WITH HOOK
ENCODING 429
SWIDTH 640 0
DWIDTH 6 0
BBX 4 8 1 0
BITMAP
30
40
40
F0
40
40
40
30
ENDCHAR
STARTCHAR LATIN CAPITAL LETTER T WITH RETROFLEX HOOK
ENCODING 430
SWIDTH 640 0
DWIDTH 6 0
BBX 5 7 0 0
BITMAP
F8
A8
20
20
20
20
20
ENDCHAR
STARTCHAR LATIN CAPITAL LETTER U WITH HORN
ENCODING 431
SWIDTH 640 0
DWIDTH 6 0
BBX 6 9 0 0
BITMAP
04
04
88
88
88
88
88
88
70
ENDCHAR
STARTCHAR LATIN SMALL LETTER U WITH HORN
ENCODING 432
SWIDTH 640 0
DWIDTH 6 0
BBX 6 7 0 0
BITMAP
04
04
88
88
88
98
68
ENDCHAR
STARTCHAR LATIN CAPITAL LETTER UPSILON
ENCODING 433
SWIDTH 640 0
DWIDTH 6 0
BBX 5 7 0 0
BITMAP
D8
50
88
88
88
88
70
ENDCHAR
STARTCHAR LATIN CAPITAL LETTER V WITH HOOK
ENCODING 434
SWIDTH 640 0
DWIDTH 6 0
BBX 5 7 0 0
BITMAP
90
88
88
88
88
88
70
ENDCHAR
STARTCHAR LATIN CAPITAL LETTER Y WITH HOOK
ENCODING 435
SWIDTH 640 0
DWIDTH 6 0
BBX 6 8 0 0
BITMAP
04
88
88
88
50
20
20
20
ENDCHAR
STARTCHAR LATIN SMALL LETTER Y WITH HOOK
ENCODING 436
SWIDTH 640 0
DWIDTH 6 0
BBX 6 8 0 -2
BITMAP
04
88
88
88
88
78
08
70
ENDCHAR
STARTCHAR LATIN CAPITAL LETTER Z WITH STROKE
ENCODING 437
SWIDTH 640 0
DWIDTH 6 0
BBX 5 7 0 0
BITMAP
F8
08
10
F8
40
80
F8
ENDCHAR
STARTCHAR LATIN SMALL LETTER Z WITH STROKE
ENCODING 438
SWIDTH 640 0
DWIDTH 6 0
BBX 5 5 0 0
BITMAP
F8
10
F8
40
F8
ENDCHAR
STARTCHAR LATIN CAPITAL LETTER EZH
ENCODING 439
SWIDTH 640 0
DWIDTH 6 0
BBX 5 7 0 0
BITMAP
F8
10
20
10
08
88
70
ENDCHAR
STARTCHAR LATIN CAPITAL LETTER EZH REVERSED
ENCODING 440
SWIDTH 640 0
DWIDTH 6 0
BBX 5 7 0 0
BITMAP
F8
40
20
40
80
88
70
ENDCHAR
STARTCHAR LATIN SMALL LETTER EZH REVERSED
ENCODING 441
SWIDTH 640 0
DWIDTH 6 0
BBX 5 7 0 -2
BITMAP
F8
40
20
40
80
88
70
ENDCHAR
STARTCHAR LATIN SMALL LETTER EZH WITH TAIL
ENCODING 442
SWIDTH 640 0
DWIDTH 6 0
BBX 6 8 0 -3
BITMAP
F8
10
20
10
08
70
84
78
ENDCHAR
STARTCHAR LATIN LETTER TWO WITH STROKE
ENCODING 443
SWIDTH 640 0
DWIDTH 6 0
BBX 5 7 0 0
BITMAP
70
88
08
F8
20
40
F8
ENDCHAR
STARTCHAR LATIN CAPITAL LETTER TONE FIVE
ENCODING 444
SWIDTH 640 0
DWIDTH 6 0
BBX 5 7 0 0
BITMAP
F8
40
70
08
08
88
70
ENDCHAR
STARTCHAR LATIN SMALL LETTER TONE FIVE
ENCODING 445
SWIDTH 640 0
DWIDTH 6 0
BBX 5 6 0 0
BITMAP
F8
40
70
08
88
70
ENDCHAR
STARTCHAR LATIN LETTER INVERTED GLOTTAL STOP WITH STROKE
ENCODING 446
SWIDTH 640 0
DWIDTH 6 0
BBX 5 7 0 1
BITMAP
20
70
20
10
08
88
70
ENDCHAR
STARTCHAR LATIN LETTER WYNN
ENCODING 447
SWIDTH 640 0
DWIDTH 6 0
BBX 4 7 0 0
BITMAP
A0
D0
90
A0
C0
80
80
ENDCHAR
STARTCHAR LATIN LETTER DENTAL CLICK
ENCODING 448
SWIDTH 640 0
DWIDTH 6 0
BBX 3 10 0 -2
BITMAP
20
20
20
20
20
20
20
20
20
20
ENDCHAR
STARTCHAR LATIN LETTER LATERAL CLICK
ENCODING 449
SWIDTH 640 0
DWIDTH 6 0
BBX 3 10 0 -2
BITMAP
A0
A0
A0
A0
A0
A0
A0
A0
A0
A0
ENDCHAR
STARTCHAR LATIN LETTER ALVEOLAR CLICK
ENCODING 450
SWIDTH 640 0
DWIDTH 6 0
BBX 5 10 0 -2
BITMAP
20
20
20
F8
20
20
F8
20
20
20
ENDCHAR
STARTCHAR LATIN LETTER RETROFLEX CLICK
ENCODING 451
SWIDTH 640 0
DWIDTH 6 0
BBX 3 7 0 0
BITMAP
20
20
20
20
20
00
20
ENDCHAR
STARTCHAR LATIN CAPITAL LETTER DZ WITH CARON
ENCODING 452
SWIDTH 640 0
DWIDTH 6 0
BBX 6 9 0 0
BITMAP
14
08
C0
BC
A4
A8
A8
B0
DC
ENDCHAR
STARTCHAR LATIN CAPITAL LETTER D WITH SMALL LETTER Z WITH CARON
ENCODING 453
SWIDTH 640 0
DWIDTH 6 0
BBX 6 8 0 0
BITMAP
14
C8
A0
BC
A4
A8
B0
DC
ENDCHAR
STARTCHAR LATIN SMALL LETTER DZ WITH CARON
ENCODING 454
SWIDTH 640 0
DWIDTH 6 0
BBX 6 9 0 0
BITMAP
20
34
28
20
7C
A4
A8
B0
7C
ENDCHAR
STARTCHAR LATIN CAPITAL LETTER LJ
ENCODING 455
SWIDTH 640 0
DWIDTH 6 0
BBX 5 7 0 0
BITMAP
88
88
88
88
88
A8
D0
ENDCHAR
STARTCHAR LATIN CAPITAL LETTER L WITH SMALL LETTER J
ENCODING 456
SWIDTH 640 0
DWIDTH 6 0
BBX 5 9 0 -2
BITMAP
88
80
98
88
88
88
E8
08
30
ENDCHAR
STARTCHAR LATIN SMALL LETTER LJ
ENCODING 457
SWIDTH 640 0
DWIDTH 6 0
BBX 5 9 0 -2
BITMAP
C8
40
58
48
48
48
68
08
30
ENDCHAR
STARTCHAR LATIN CAPITAL LETTER NJ
ENCODING 458
SWIDTH 640 0
DWIDTH 6 0
BBX 5 7 0 0
BITMAP
A8
A8
E8
E8
E8
A8
B0
ENDCHAR
STARTCHAR LATIN CAPITAL LETTER N WITH SMALL LETTER J
ENCODING 459
SWIDTH 640 0
DWIDTH 6 0
BBX 5 9 0 -2
BITMAP
A8
A0
F8
E8
E8
A8
A8
08
30
ENDCHAR
STARTCHAR LATIN SMALL LETTER NJ
ENCODING 460
SWIDTH 640 0
DWIDTH 6 0
BBX 5 9 0 -2
BITMAP
08
00
D8
A8
A8
A8
A8
08
30
ENDCHAR
STARTCHAR LATIN CAPITAL LETTER A WITH CARON
ENCODING 461
SWIDTH 640 0
DWIDTH 6 0
BBX 5 9 0 0
BITMAP
50
20
00
70
88
88
F8
88
88
ENDCHAR
STARTCHAR LATIN SMALL LETTER A WITH CARON
ENCODING 462
SWIDTH 640 0
DWIDTH 6 0
BBX 5 8 0 0
BITMAP
50
20
00
78
88
88
98
68
ENDCHAR
STARTCHAR LATIN CAPITAL LETTER I WITH CARON
ENCODING 463
SWIDTH 640 0
DWIDTH 6 0
BBX 3 9 1 0
BITMAP
A0
40
00
E0
40
40
40
40
E0
ENDCHAR
STARTCHAR LATIN SMALL LETTER I WITH CARON
ENCODING 464
SWIDTH 640 0
DWIDTH 6 0
BBX 3 8 1 0
BITMAP
A0
40
00
C0
40
40
40
60
ENDCHAR
STARTCHAR LATIN CAPITAL LETTER O WITH CARON
ENCODING 465
SWIDTH 640 0
DWIDTH 6 0
BBX 5 9 0 0
BITMAP
50
20
00
70
88
88
88
88
70
ENDCHAR
STARTCHAR LATIN SMALL LETTER O WITH CARON
ENCODING 466
SWIDTH 640 0
DWIDTH 6 0
BBX 5 8 0 0
BITMAP
50
20
00
70
88
88
88
70
ENDCHAR
STARTCHAR LATIN CAPITAL LETTER U WITH CARON
ENCODING 467
SWIDTH 640 0
DWIDTH 6 0
BBX 5 9 0 0
BITMAP
50
20
88
88
88
88
88
88
70
ENDCHAR
STARTCHAR LATIN SMALL LETTER U WITH CARON
ENCODING 468
SWIDTH 640 0
DWIDTH 6 0
BBX 5 8 0 0
BITMAP
50
20
00
88
88
88
98
68
ENDCHAR
STARTCHAR LATIN CAPITAL LETTER U WITH DIAERESIS AND MACRON
ENCODING 469
SWIDTH 640 0
DWIDTH 6 0
BBX 5 9 0 0
BITMAP
70
00
50
88
88
88
88
88
70
ENDCHAR
STARTCHAR LATIN SMALL LETTER U WITH DIAERESIS AND MACRON
ENCODING 470
SWIDTH 640 0
DWIDTH 6 0
BBX 5 9 0 0
BITMAP
70
00
50
00
88
88
88
98
68
ENDCHAR
STARTCHAR LATIN CAPITAL LETTER U WITH DIAERESIS AND ACUTE
ENCODING 471
SWIDTH 640 0
DWIDTH 6 0
BBX 5 9 0 0
BITMAP
10
20
D8
88
88
88
88
88
70
ENDCHAR
STARTCHAR LATIN SMALL LETTER U WITH DIAERESIS AND ACUTE
ENCODING 472
SWIDTH 640 0
DWIDTH 6 0
BBX 5 9 0 0
BITMAP
10
20
50
00
88
88
88
98
68
ENDCHAR
STARTCHAR LATIN CAPITAL LETTER U WITH DIAERESIS AND CARON
ENCODING 473
SWIDTH 640 0
DWIDTH 6 0
BBX 5 9 0 0
BITMAP
50
20
D8
88
88
88
88
88
70
ENDCHAR
STARTCHAR LATIN SMALL LETTER U WITH DIAERESIS AND CARON
ENCODING 474
SWIDTH 640 0
DWIDTH 6 0
BBX 5 9 0 0
BITMAP
50
20
50
00
88
88
88
98
68
ENDCHAR
STARTCHAR LATIN CAPITAL LETTER U WITH DIAERESIS AND GRAVE
ENCODING 475
SWIDTH 640 0
DWIDTH 6 0
BBX 5 9 0 0
BITMAP
40
20
D8
88
88
88
88
88
70
ENDCHAR
STARTCHAR LATIN SMALL LETTER U WITH DIAERESIS AND GRAVE
ENCODING 476
SWIDTH 640 0
DWIDTH 6 0
BBX 5 9 0 0
BITMAP
40
20
50
00
88
88
88
98
68
ENDCHAR
STARTCHAR LATIN SMALL LETTER TURNED E
ENCODING 477
SWIDTH 640 0
DWIDTH 6 0
BBX 5 5 0 0
BITMAP
F0
08
F8
88
70
ENDCHAR
STARTCHAR LATIN CAPITAL LETTER A WITH DIAERESIS AND MACRON
ENCODING 478
SWIDTH 640 0
DWIDTH 6 0
BBX 5 9 0 0
BITMAP
70
00
50
00
70
88
F8
88
88
ENDCHAR
STARTCHAR LATIN SMALL LETTER A WITH DIAERESIS AND MACRON
ENCODING 479
SWIDTH 640 0
DWIDTH 6 0
BBX 5 9 0 0
BITMAP
70
00
50
00
78
88
88
98
68
ENDCHAR
STARTCHAR LATIN CAPITAL LETTER A WITH DOT ABOVE AND MACRON
ENCODING 480
SWIDTH 640 0
DWIDTH 6 0
BBX 5 9 0 0
BITMAP
70
00
20
00
70
88
F8
88
88
ENDCHAR
STARTCHAR LATIN SMALL LETTER A WITH DOT ABOVE AND MACRON
ENCODING 481
SWIDTH 640 0
DWIDTH 6 0
BBX 5 9 0 0
BITMAP
70
00
20
00
78
88
88
98
68
ENDCHAR
STARTCHAR LATIN CAPITAL LETTER AE WITH MACRON
ENCODING 482
SWIDTH 640 0
DWIDTH 6 0
BBX 5 9 0 0
BITMAP
70
00
78
A0
A0
F0
A0
A0
B8
ENDCHAR
STARTCHAR LATIN SMALL LETTER AE WITH MACRON
ENCODING 483
SWIDTH 640 0
DWIDTH 6 0
BBX 5 7 0 0
BITMAP
70
00
70
A8
B8
A0
78
ENDCHAR
STARTCHAR LATIN CAPITAL LETTER G WITH STROKE
ENCODING 484
SWIDTH 640 0
DWIDTH 6 0
BBX 5 7 0 0
BITMAP
70
88
80
98
98
88
70
ENDCHAR
STARTCHAR LATIN SMALL LETTER G WITH STROKE
ENCODING 485
SWIDTH 640 0
DWIDTH 6 0
BBX 5 7 0 -2
BITMAP
78
88
88
88
78
F8
70
ENDCHAR
STARTCHAR LATIN CAPITAL LETTER G WITH CARON
ENCODING 486
SWIDTH 640 0
DWIDTH 6 0
BBX 5 9 0 0
BITMAP
50
20
00
70
88
80
98
88
70
ENDCHAR
STARTCHAR LATIN SMALL LETTER G WITH CARON
ENCODING 487
SWIDTH 640 0
DWIDTH 6 0
BBX 5 11 0 -2
BITMAP
50
20
00
00
78
88
88
88
78
08
70
ENDCHAR
STARTCHAR LATIN CAPITAL LETTER K WITH CARON
ENCODING 488
SWIDTH 640 0
DWIDTH 6 0
BBX 5 7 0 0
BITMAP
88
90
A0
C0
A0
90
88
ENDCHAR
STARTCHAR LATIN SMALL LETTER K WITH CARON
ENCODING 489
SWIDTH 640 0
DWIDTH 6 0
BBX 5 7 0 0
BITMAP
80
80
90
A0
E0
90
88
ENDCHAR
STARTCHAR LATIN CAPITAL LETTER O WITH OGONEK
ENCODING 490
SWIDTH 640 0
DWIDTH 6 0
BBX 5 9 0 -2
BITMAP
70
88
88
88
88
88
70
40
30
ENDCHAR
STARTCHAR LATIN SMALL LETTER O WITH OGONEK
ENCODING 491
SWIDTH 640 0
DWIDTH 6 0
BBX 5 7 0 -2
BITMAP
70
88
88
88
70
40
30
ENDCHAR
STARTCHAR LATIN CAPITAL LETTER O WITH OGONEK AND MACRON
ENCODING 492
SWIDTH 640 0
DWIDTH 6 0
BBX 5 11 0 -2
BITMAP
50
20
00
70
88
88
88
88
70
40
30
ENDCHAR
STARTCHAR LATIN SMALL LETTER O WITH OGONEK AND MACRON
ENCODING 493
SWIDTH 640 0
DWIDTH 6 0
BBX 5 10 0 -2
BITMAP
50
20
00
70
88
88
88
70
40
30
ENDCHAR
STARTCHAR LATIN CAPITAL LETTER EZH WITH CARON
ENCODING 494
SWIDTH 640 0
DWIDTH 6 0
BBX 5 9 0 0
BITMAP
50
20
00
F8
10
20
10
88
70
ENDCHAR
STARTCHAR LATIN SMALL LETTER EZH WITH CARON
ENCODING 495
SWIDTH 640 0
DWIDTH 6 0
BBX 5 9 0 -2
BITMAP
50
20
00
F8
10
20
10
88
70
ENDCHAR
STARTCHAR LATIN SMALL LETTER J WITH CARON
ENCODING 496
SWIDTH 640 0
DWIDTH 6 0
BBX 4 10 0 -2
BITMAP
50
20
00
60
20
20
20
20
20
C0
ENDCHAR
STARTCHAR LATIN CAPITAL LETTER DZ
ENCODING 497
SWIDTH 640 0
DWIDTH 6 0
BBX 6 7 0 0
BITMAP
DC
A4
A8
A8
A8
B0
DC
ENDCHAR
STARTCHAR LATIN CAPITAL LETTER D WITH SMALL LETTER Z
ENCODING 498
SWIDTH 640 0
DWIDTH 6 0
BBX 6 7 0 0
BITMAP
C0
A0
BC
A4
A8
B0
DC
ENDCHAR
STARTCHAR LATIN SMALL LETTER DZ
ENCODING 499
SWIDTH 640 0
DWIDTH 6 0
BBX 6 7 0 0
BITMAP
20
20
7C
A4
A8
B0
7C
ENDCHAR
STARTCHAR LATIN CAPITAL LETTER G WITH ACUTE
ENCODING 500
SWIDTH 640 0
DWIDTH 6 0
BBX 5 9 0 0
BITMAP
50
20
00
70
88
80
98
88
70
ENDCHAR
STARTCHAR LATIN SMALL LETTER G WITH ACUTE
ENCODING 501
SWIDTH 640 0
DWIDTH 6 0
BBX 5 10 0 -2
BITMAP
50
20
00
78
88
88
88
78
08
70
ENDCHAR
STARTCHAR LATIN CAPITAL LETTER HWAIR
ENCODING 502
SWIDTH 640 0
DWIDTH 6 0
BBX 5 7 0 0
BITMAP
A0
A0
A8
E8
A8
A8
90
ENDCHAR
STARTCHAR LATIN CAPITAL LETTER WYNN
ENCODING 503
SWIDTH 640 0
DWIDTH 6 0
BBX 5 7 0 0
BITMAP
B0
C8
88
90
A0
C0
80
ENDCHAR
STARTCHAR LATIN CAPITAL LETTER N WITH GRAVE
ENCODING 504
SWIDTH 640 0
DWIDTH 6 0
BBX 5 9 0 0
BITMAP
40
20
C8
C8
A8
A8
A8
98
98
ENDCHAR
STARTCHAR LATIN SMALL LETTER N WITH GRAVE
ENCODING 505
SWIDTH 640 0
DWIDTH 6 0
BBX 5 8 0 0
BITMAP
40
20
00
B0
C8
88
88
88
ENDCHAR
STARTCHAR LATIN CAPITAL LETTER A WITH RING ABOVE AND ACUTE
ENCODING 506
SWIDTH 640 0
DWIDTH 6 0
BBX 5 9 0 0
BITMAP
10
20
50
20
70
88
F8
88
88
ENDCHAR
STARTCHAR LATIN SMALL LETTER A WITH RING ABOVE AND ACUTE
ENCODING 507
SWIDTH 640 0
DWIDTH 6 0
BBX 5 9 0 0
BITMAP
10
20
50
20
78
88
88
98
68
ENDCHAR
STARTCHAR LATIN CAPITAL LETTER AE WITH ACUTE
ENCODING 508
SWIDTH 640 0
DWIDTH 6 0
BBX 5 9 0 0
BITMAP
10
20
78
A0
A0
F0
A0
A0
B8
ENDCHAR
STARTCHAR LATIN SMALL LETTER AE WITH ACUTE
ENCODING 509
SWIDTH 640 0
DWIDTH 6 0
BBX 5 8 0 0
BITMAP
10
20
00
70
A8
B8
A0
78
ENDCHAR
STARTCHAR LATIN CAPITAL LETTER O WITH STROKE AND ACUTE
ENCODING 510
SWIDTH 640 0
DWIDTH 6 0
BBX 5 10 0 -1
BITMAP
10
28
70
98
A8
A8
A8
C8
70
80
ENDCHAR
STARTCHAR LATIN SMALL LETTER O WITH STROKE AND ACUTE
ENCODING 511
SWIDTH 640 0
DWIDTH 6 0
BBX 5 8 0 0
BITMAP
10
20
00
78
98
A8
C8
F0
ENDCHAR
STARTCHAR LATIN CAPITAL LETTER A WITH DOUBLE GRAVE
ENCODING 512
SWIDTH 640 0
DWIDTH 6 0
BBX 5 9 0 0
BITMAP
A0
50
00
70
88
88
F8
88
88
ENDCHAR
STARTCHAR LATIN SMALL LETTER A WITH DOUBLE GRAVE
ENCODING 513
SWIDTH 640 0
DWIDTH 6 0
BBX 5 8 0 0
BITMAP
A0
50
00
78
88
88
98
68
ENDCHAR
STARTCHAR LATIN CAPITAL LETTER A WITH INVERTED BREVE
ENCODING 514
SWIDTH 640 0
DWIDTH 6 0
BBX 5 9 0 0
BITMAP
70
88
70
88
88
F8
88
88
88
ENDCHAR
STARTCHAR LATIN SMALL LETTER A WITH INVERTED BREVE
ENCODING 515
SWIDTH 640 0
DWIDTH 6 0
BBX 5 8 0 0
BITMAP
70
88
00
78
88
88
98
68
ENDCHAR
STARTCHAR LATIN CAPITAL LETTER E WITH DOUBLE GRAVE
ENCODING 516
SWIDTH 640 0
DWIDTH 6 0
BBX 5 9 0 0
BITMAP
A0
50
F8
80
80
F0
80
80
F8
ENDCHAR
STARTCHAR LATIN SMALL LETTER E WITH DOUBLE GRAVE
ENCODING 517
SWIDTH 640 0
DWIDTH 6 0
BBX 5 8 0 0
BITMAP
A0
50
00
70
88
F8
80
78
ENDCHAR
STARTCHAR LATIN CAPITAL LETTER E WITH INVERTED BREVE
ENCODING 518
SWIDTH 640 0
DWIDTH 6 0
BBX 5 9 0 0
BITMAP
70
88
F8
80
80
F0
80
80
F8
ENDCHAR
STARTCHAR LATIN SMALL LETTER E WITH INVERTED BREVE
ENCODING 519
SWIDTH 640 0
DWIDTH 6 0
BBX 5 8 0 0
BITMAP
70
88
00
70
88
F8
80
78
ENDCHAR
STARTCHAR LATIN CAPITAL LETTER I WITH DOUBLE GRAVE
ENCODING 520
SWIDTH 640 0
DWIDTH 6 0
BBX 4 9 0 0
BITMAP
A0
50
00
70
20
20
20
20
70
ENDCHAR
STARTCHAR LATIN SMALL LETTER I WITH DOUBLE GRAVE
ENCODING 521
SWIDTH 640 0
DWIDTH 6 0
BBX 4 8 0 0
BITMAP
A0
50
00
60
20
20
20
30
ENDCHAR
STARTCHAR LATIN CAPITAL LETTER I WITH INVERTED BREVE
ENCODING 522
SWIDTH 640 0
DWIDTH 6 0
BBX 5 9 0 0
BITMAP
70
88
70
20
20
20
20
20
70
ENDCHAR
STARTCHAR LATIN SMALL LETTER I WITH INVERTED BREVE
ENCODING 523
SWIDTH 640 0
DWIDTH 6 0
BBX 5 8 0 0
BITMAP
70
88
00
60
20
20
20
30
ENDCHAR
STARTCHAR LATIN CAPITAL LETTER O WITH DOUBLE GRAVE
ENCODING 524
SWIDTH 640 0
DWIDTH 6 0
BBX 5 9 0 0
BITMAP
A0
50
00
70
88
88
88
88
70
ENDCHAR
STARTCHAR LATIN SMALL LETTER O WITH DOUBLE GRAVE
ENCODING 525
SWIDTH 640 0
DWIDTH 6 0
BBX 5 8 0 0
BITMAP
A0
50
00
70
88
88
88
70
ENDCHAR
STARTCHAR LATIN CAPITAL LETTER O WITH INVERTED BREVE
ENCODING 526
SWIDTH 640 0
DWIDTH 6 0
BBX 5 9 0 0
BITMAP
70
88
70
88
88
88
88
88
70
ENDCHAR
STARTCHAR LATIN SMALL LETTER O WITH INVERTED BREVE
ENCODING 527
SWIDTH 640 0
DWIDTH 6 0
BBX 5 8 0 0
BITMAP
70
88
00
70
88
88
88
70
ENDCHAR
STARTCHAR LATIN CAPITAL LETTER R WITH DOUBLE GRAVE
ENCODING 528
SWIDTH 640 0
DWIDTH 6 0
BBX 5 9 0 0
BITMAP
A0
50
00
F0
88
88
F0
88
88
ENDCHAR
STARTCHAR LATIN SMALL LETTER R WITH DOUBLE GRAVE
ENCODING 529
SWIDTH 640 0
DWIDTH 6 0
BBX 5 8 0 0
BITMAP
A0
50
00
B0
C8
80
80
80
ENDCHAR
STARTCHAR LATIN CAPITAL LETTER R WITH INVERTED BREVE
ENCODING 530
SWIDTH 640 0
DWIDTH 6 0
BBX 5 9 0 0
BITMAP
70
88
00
F0
88
88
F0
88
88
ENDCHAR
STARTCHAR LATIN SMALL LETTER R WITH INVERTED BREVE
ENCODING 531
SWIDTH 640 0
DWIDTH 6 0
BBX 5 8 0 0
BITMAP
70
88
00
B0
C8
80
80
80
ENDCHAR
STARTCHAR LATIN CAPITAL LETTER U WITH DOUBLE GRAVE
ENCODING 532
SWIDTH 640 0
DWIDTH 6 0
BBX 5 9 0 0
BITMAP
A0
50
00
88
88
88
88
88
70
ENDCHAR
STARTCHAR LATIN SMALL LETTER U WITH DOUBLE GRAVE
ENCODING 533
SWIDTH 640 0
DWIDTH 6 0
BBX 5 8 0 0
BITMAP
A0
50
00
88
88
88
98
68
ENDCHAR
STARTCHAR LATIN CAPITAL LETTER U WITH INVERTED BREVE
ENCODING 534
SWIDTH 640 0
DWIDTH 6 0
BBX 5 9 0 0
BITMAP
70
88
00
88
88
88
88
88
70
ENDCHAR
STARTCHAR LATIN SMALL LETTER U WITH INVERTED BREVE
ENCODING 535
SWIDTH 640 0
DWIDTH 6 0
BBX 5 8 0 0
BITMAP
70
88
00
88
88
88
98
68
ENDCHAR
STARTCHAR LATIN CAPITAL LETTER S WITH COMMA BELOW
ENCODING 536
SWIDTH 640 0
DWIDTH 6 0
BBX 5 9 0 -2
BITMAP
70
88
80
70
08
88
70
20
40
ENDCHAR
STARTCHAR LATIN SMALL LETTER S WITH COMMA BELOW
ENCODING 537
SWIDTH 640 0
DWIDTH 6 0
BBX 5 7 0 -2
BITMAP
78
80
70
08
F0
20
40
ENDCHAR
STARTCHAR LATIN CAPITAL LETTER T WITH COMMA BELOW
ENCODING 538
SWIDTH 640 0
DWIDTH 6 0
BBX 5 9 0 -2
BITMAP
F8
20
20
20
20
20
20
20
40
ENDCHAR
STARTCHAR LATIN SMALL LETTER T WITH COMMA BELOW
ENCODING 539
SWIDTH 640 0
DWIDTH 6 0
BBX 4 9 1 -2
BITMAP
40
40
F0
40
40
40
30
40
80
ENDCHAR
STARTCHAR LATIN CAPITAL LETTER YOGH
ENCODING 540
SWIDTH 640 0
DWIDTH 6 0
BBX 5 8 0 -1
BITMAP
70
88
08
30
C8
08
30
C0
ENDCHAR
STARTCHAR LATIN SMALL LETTER YOGH
ENCODING 541
SWIDTH 640 0
DWIDTH 6 0
BBX 5 6 0 0
BITMAP
70
88
30
C8
10
E0
ENDCHAR
STARTCHAR LATIN CAPITAL LETTER H WITH CARON
ENCODING 542
SWIDTH 640 0
DWIDTH 6 0
BBX 5 9 0 0
BITMAP
50
20
88
88
88
F8
88
88
88
ENDCHAR
STARTCHAR LATIN SMALL LETTER H WITH CARON
ENCODING 543
SWIDTH 640 0
DWIDTH 6 0
BBX 5 9 0 0
BITMAP
50
20
80
80
F0
88
88
88
88
ENDCHAR
STARTCHAR LATIN CAPITAL LETTER N WITH LONG RIGHT LEG
ENCODING 544
SWIDTH 640 0
DWIDTH 6 0
BBX 5 9 0 -2
BITMAP
80
B0
C8
88
88
88
88
08
08
ENDCHAR
STARTCHAR LATIN SMALL LETTER D WITH CURL
ENCODING 545
SWIDTH 640 0
DWIDTH 6 0
BBX 6 8 0 -1
BITMAP
10
10
70
90
90
98
74
28
ENDCHAR
STARTCHAR LATIN CAPITAL LETTER OU
ENCODING 546
SWIDTH 640 0
DWIDTH 6 0
BBX 5 8 0 0
BITMAP
30
08
48
88
70
88
88
70
ENDCHAR
STARTCHAR LATIN SMALL LETTER OU
ENCODING 547
SWIDTH 640 0
DWIDTH 6 0
BBX 5 7 0 0
BITMAP
50
88
88
70
88
88
70
ENDCHAR
STARTCHAR LATIN CAPITAL LETTER Z WITH HOOK
ENCODING 548
SWIDTH 640 0
DWIDTH 6 0
BBX 6 8 0 -1
BITMAP
F8
08
10
20
40
80
F8
04
ENDCHAR
STARTCHAR LATIN SMALL LETTER Z WITH HOOK
ENCODING 549
SWIDTH 640 0
DWIDTH 6 0
BBX 6 6 0 -1
BITMAP
F8
10
20
40
F8
04
ENDCHAR
STARTCHAR LATIN CAPITAL LETTER A WITH DOT ABOVE
ENCODING 550
SWIDTH 640 0
DWIDTH 6 0
BBX 5 9 0 0
BITMAP
20
00
70
88
88
F8
88
88
88
ENDCHAR
STARTCHAR LATIN SMALL LETTER A WITH DOT ABOVE
ENCODING 551
SWIDTH 640 0
DWIDTH 6 0
BBX 5 7 0 0
BITMAP
20
00
78
88
88
98
68
ENDCHAR
STARTCHAR LATIN CAPITAL LETTER E WITH CEDILLA
ENCODING 552
SWIDTH 640 0
DWIDTH 6 0
BBX 5 9 0 -2
BITMAP
F8
80
80
F0
80
80
F8
20
40
ENDCHAR
STARTCHAR LATIN SMALL LETTER E WITH CEDILLA
ENCODING 553
SWIDTH 640 0
DWIDTH 6 0
BBX 5 7 0 -2
BITMAP
70
88
F8
80
70
20
40
ENDCHAR
STARTCHAR LATIN CAPITAL LETTER O WITH DIAERESIS AND MACRON
ENCODING 554
SWIDTH 640 0
DWIDTH 6 0
BBX 5 9 0 0
BITMAP
70
00
50
70
88
88
88
88
70
ENDCHAR
STARTCHAR LATIN SMALL LETTER O WITH DIAERESIS AND MACRON
ENCODING 555
SWIDTH 640 0
DWIDTH 6 0
BBX 5 9 0 0
BITMAP
70
00
50
00
70
88
88
88
70
ENDCHAR
STARTCHAR LATIN CAPITAL LETTER O WITH TILDE AND MACRON
ENCODING 556
SWIDTH 640 0
DWIDTH 6 0
BBX 5 9 0 0
BITMAP
70
68
B0
70
88
88
88
88
70
ENDCHAR
STARTCHAR LATIN SMALL LETTER O WITH TILDE AND MACRON
ENCODING 557
SWIDTH 640 0
DWIDTH 6 0
BBX 5 9 0 0
BITMAP
70
00
68
B0
70
88
88
88
70
ENDCHAR
STARTCHAR LATIN CAPITAL LETTER O WITH DOT ABOVE
ENCODING 558
SWIDTH 640 0
DWIDTH 6 0
BBX 5 9 0 0
BITMAP
20
00
70
88
88
88
88
88
70
ENDCHAR
STARTCHAR LATIN SMALL LETTER O WITH DOT ABOVE
ENCODING 559
SWIDTH 640 0
DWIDTH 6 0
BBX 5 7 0 0
BITMAP
20
00
70
88
88
88
70
ENDCHAR
STARTCHAR LATIN CAPITAL LETTER O WITH DOT ABOVE AND MACRON
ENCODING 560
SWIDTH 640 0
DWIDTH 6 0
BBX 5 9 0 0
BITMAP
70
00
20
70
88
88
88
88
70
ENDCHAR
STARTCHAR LATIN SMALL LETTER O WITH DOT ABOVE AND MACRON
ENCODING 561
SWIDTH 640 0
DWIDTH 6 0
BBX 5 9 0 0
BITMAP
70
00
20
00
70
88
88
88
70
ENDCHAR
STARTCHAR LATIN CAPITAL LETTER Y WITH MACRON
ENCODING 562
SWIDTH 640 0
DWIDTH 6 0
BBX 5 9 0 0
BITMAP
70
00
88
88
88
50
20
20
20
ENDCHAR
STARTCHAR LATIN SMALL LETTER Y WITH MACRON
ENCODING 563
SWIDTH 640 0
DWIDTH 6 0
BBX 5 9 0 -2
BITMAP
70
00
88
88
88
88
78
08
70
ENDCHAR
STARTCHAR LATIN SMALL LETTER L WITH CURL
ENCODING 564
SWIDTH 640 0
DWIDTH 6 0
BBX 5 7 0 0
BITMAP
60
20
20
20
30
68
30
ENDCHAR
STARTCHAR LATIN SMALL LETTER N WITH CURL
ENCODING 565
SWIDTH 640 0
DWIDTH 6 0
BBX 6 6 0 -1
BITMAP
B0
C8
88
98
B4
08
ENDCHAR
STARTCHAR LATIN SMALL LETTER T WITH CURL
ENCODING 566
SWIDTH 640 0
DWIDTH 6 0
BBX 5 7 1 0
BITMAP
40
40
F0
40
50
68
70
ENDCHAR
STARTCHAR LATIN SMALL LETTER DOTLESS J
ENCODING 567
SWIDTH 640 0
DWIDTH 6 0
BBX 3 7 0 -2
BITMAP
60
20
20
20
20
20
C0
ENDCHAR
STARTCHAR LATIN SMALL LETTER DB DIGRAPH
ENCODING 568
SWIDTH 640 0
DWIDTH 6 0
BBX 5 7 0 0
BITMAP
20
20
70
A8
A8
A8
70
ENDCHAR
STARTCHAR LATIN SMALL LETTER QP DIGRAPH
ENCODING 569
SWIDTH 640 0
DWIDTH 6 0
BBX 5 7 0 -2
BITMAP
70
A8
A8
A8
70
20
20
ENDCHAR
STARTCHAR LATIN CAPITAL LETTER A WITH STROKE
ENCODING 570
SWIDTH 640 0
DWIDTH 6 0
BBX 5 8 0 0
BITMAP
10
70
A8
A8
F8
C8
C8
88
ENDCHAR
STARTCHAR LATIN CAPITAL LETTER C WITH STROKE
ENCODING 571
SWIDTH 640 0
DWIDTH 6 0
BBX 5 10 0 -1
BITMAP
08
08
70
98
A0
A0
C0
C8
F0
80
ENDCHAR
STARTCHAR LATIN SMALL LETTER C WITH STROKE
ENCODING 572
SWIDTH 640 0
DWIDTH 6 0
BBX 5 10 0 -2
BITMAP
08
08
10
70
A8
A0
C0
78
80
80
ENDCHAR
STARTCHAR LATIN CAPITAL LETTER L WITH BAR
ENCODING 573
SWIDTH 640 0
DWIDTH 6 0
BBX 6 7 0 0
BITMAP
40
40
40
F0
40
40
7C
ENDCHAR
STARTCHAR LATIN CAPITAL LETTER T WITH DIAGONAL STROKE
ENCODING 574
SWIDTH 640 0
DWIDTH 6 0
BBX 5 8 0 0
BITMAP
08
F8
30
30
60
60
A0
A0
ENDCHAR
STARTCHAR LATIN SMALL LETTER S WITH SWASH TAIL
ENCODING 575
SWIDTH 640 0
DWIDTH 6 0
BBX 6 7 0 -2
BITMAP
78
80
70
08
F0
64
18
ENDCHAR
STARTCHAR LATIN SMALL LETTER Z WITH SWASH TAIL
ENCODING 576
SWIDTH 640 0
DWIDTH 6 0
BBX 5 7 0 -2
BITMAP
F8
10
20
40
F8
40
30
ENDCHAR
STARTCHAR LATIN CAPITAL LETTER GLOTTAL STOP
ENCODING 577
SWIDTH 640 0
DWIDTH 6 0
BBX 5 7 0 1
BITMAP
70
88
08
10
20
20
20
ENDCHAR
STARTCHAR LATIN SMALL LETTER GLOTTAL STOP
ENCODING 578
SWIDTH 640 0
DWIDTH 6 0
BBX 5 6 0 1
BITMAP
70
88
08
10
20
20
ENDCHAR
STARTCHAR LATIN CAPITAL LETTER B WITH STROKE
ENCODING 579
SWIDTH 640 0
DWIDTH 6 0
BBX 6 7 0 0
BITMAP
78
44
44
78
F4
44
78
ENDCHAR
STARTCHAR LATIN CAPITAL LETTER U BAR
ENCODING 580
SWIDTH 640 0
DWIDTH 6 0
BBX 5 7 0 0
BITMAP
88
88
88
F8
88
88
70
ENDCHAR
STARTCHAR LATIN CAPITAL LETTER TURNED V
ENCODING 581
SWIDTH 640 0
DWIDTH 6 0
BBX 5 7 0 0
BITMAP
20
20
50
50
88
88
88
ENDCHAR
STARTCHAR LATIN CAPITAL LETTER E WITH STROKE
ENCODING 582
SWIDTH 640 0
DWIDTH 6 0
BBX 5 10 0 -2
BITMAP
08
F8
90
90
F0
A0
C0
F8
80
80
ENDCHAR
STARTCHAR LATIN SMALL LETTER E WITH STROKE
ENCODING 583
SWIDTH 640 0
DWIDTH 6 0
BBX 5 10 0 -2
BITMAP
08
08
10
70
A8
F8
C0
70
80
80
ENDCHAR
STARTCHAR LATIN CAPITAL LETTER J WITH STROKE
ENCODING 584
SWIDTH 640 0
DWIDTH 6 0
BBX 6 7 0 0
BITMAP
08
08
08
1C
08
88
70
ENDCHAR
STARTCHAR LATIN SMALL LETTER J WITH STROKE
ENCODING 585
SWIDTH 640 0
DWIDTH 6 0
BBX 5 9 -1 -2
BITMAP
10
00
30
10
38
10
10
10
60
ENDCHAR
STARTCHAR LATIN CAPITAL LETTER SMALL Q WITH HOOK TAIL
ENCODING 586
SWIDTH 640 0
DWIDTH 6 0
BBX 6 8 0 -1
BITMAP
78
88
88
88
88
78
08
04
ENDCHAR
STARTCHAR LATIN SMALL LETTER Q WITH HOOK TAIL
ENCODING 587
SWIDTH 640 0
DWIDTH 6 0
BBX 6 7 0 -2
BITMAP
78
88
88
88
78
08
04
ENDCHAR
STARTCHAR LATIN CAPITAL LETTER R WITH STROKE
ENCODING 588
SWIDTH 640 0
DWIDTH 6 0
BBX 6 7 0 0
BITMAP
78
44
44
F8
44
44
44
ENDCHAR
STARTCHAR LATIN SMALL LETTER R WITH STROKE
ENCODING 589
SWIDTH 640 0
DWIDTH 6 0
BBX 6 5 0 0
BITMAP
58
64
E0
40
40
ENDCHAR
STARTCHAR LATIN CAPITAL LETTER Y WITH STROKE
ENCODING 590
SWIDTH 640 0
DWIDTH 6 0
BBX 5 7 0 0
BITMAP
88
88
F8
50
20
20
20
ENDCHAR
STARTCHAR LATIN SMALL LETTER Y WITH STROKE
ENCODING 591
SWIDTH 640 0
DWIDTH 6 0
BBX 5 7 0 -2
BITMAP
88
88
F8
88
78
08
70
ENDCHAR
STARTCHAR LATIN SMALL LETTER TURNED A
ENCODING 592
SWIDTH 640 0
DWIDTH 6 0
BBX 5 5 0 0
BITMAP
B0
C8
88
88
F0
ENDCHAR
STARTCHAR LATIN SMALL LETTER ALPHA
ENCODING 593
SWIDTH 640 0
DWIDTH 6 0
BBX 5 5 0 0
BITMAP
68
98
88
98
68
ENDCHAR
STARTCHAR LATIN SMALL LETTER TURNED ALPHA
ENCODING 594
SWIDTH 640 0
DWIDTH 6 0
BBX 5 5 0 0
BITMAP
B0
C8
88
C8
B0
ENDCHAR
STARTCHAR LATIN SMALL LETTER B WITH HOOK
ENCODING 595
SWIDTH 640 0
DWIDTH 6 0
BBX 5 8 0 0
BITMAP
60
80
80
F0
88
88
88
F0
ENDCHAR
STARTCHAR LATIN SMALL LETTER OPEN O
ENCODING 596
SWIDTH 640 0
DWIDTH 6 0
BBX 5 5 0 0
BITMAP
70
88
08
88
70
ENDCHAR
STARTCHAR LATIN SMALL LETTER C WITH CURL
ENCODING 597
SWIDTH 640 0
DWIDTH 6 0
BBX 5 5 0 0
BITMAP
70
88
90
A8
70
ENDCHAR
STARTCHAR LATIN SMALL LETTER D WITH TAIL
ENCODING 598
SWIDTH 640 0
DWIDTH 6 0
BBX 6 9 0 -2
BITMAP
08
08
78
88
88
88
78
08
04
ENDCHAR
STARTCHAR LATIN SMALL LETTER D WITH HOOK
ENCODING 599
SWIDTH 640 0
DWIDTH 6 0
BBX 6 8 0 0
BITMAP
04
08
08
78
88
88
88
78
ENDCHAR
STARTCHAR LATIN SMALL LETTER REVERSED E
ENCODING 600
SWIDTH 640 0
DWIDTH 6 0
BBX 5 5 0 0
BITMAP
70
88
F8
08
F0
ENDCHAR
STARTCHAR LATIN SMALL LETTER SCHWA
ENCODING 601
SWIDTH 640 0
DWIDTH 6 0
BBX 5 5 0 0
BITMAP
F0
08
F8
88
70
ENDCHAR
STARTCHAR LATIN SMALL LETTER SCHWA WITH HOOK
ENCODING 602
SWIDTH 640 0
DWIDTH 6 0
BBX 6 5 0 0
BITMAP
F4
08
F8
88
70
ENDCHAR
STARTCHAR LATIN SMALL LETTER OPEN E
ENCODING 603
SWIDTH 640 0
DWIDTH 6 0
BBX 5 7 0 0
BITMAP
70
88
80
60
80
88
70
ENDCHAR
STARTCHAR LATIN SMALL LETTER REVERSED OPEN E
ENCODING 604
SWIDTH 640 0
DWIDTH 6 0
BBX 5 7 0 0
BITMAP
70
88
08
30
08
88
70
ENDCHAR
STARTCHAR LATIN SMALL LETTER REVERSED OPEN E WITH HOOK
ENCODING 605
SWIDTH 640 0
DWIDTH 6 0
BBX 6 7 0 0
BITMAP
74
88
08
30
08
88
70
ENDCHAR
STARTCHAR LATIN SMALL LETTER CLOSED REVERSED OPEN E
ENCODING 606
SWIDTH 640 0
DWIDTH 6 0
BBX 5 7 0 0
BITMAP
70
88
88
B0
88
88
70
ENDCHAR
STARTCHAR LATIN SMALL LETTER DOTLESS J WITH STROKE
ENCODING 607
SWIDTH 640 0
DWIDTH 6 0
BBX 4 7 0 -2
BITMAP
60
20
20
70
20
20
C0
ENDCHAR
STARTCHAR LATIN SMALL LETTER G WITH HOOK
ENCODING 608
SWIDTH 640 0
DWIDTH 6 0
BBX 6 8 0 -2
BITMAP
04
78
88
88
88
78
08
70
ENDCHAR
STARTCHAR LATIN SMALL LETTER SCRIPT G
ENCODING 609
SWIDTH 640 0
DWIDTH 6 0
BBX 5 7 0 -2
BITMAP
78
88
88
88
78
08
70
ENDCHAR
STARTCHAR LATIN LETTER SMALL CAPITAL G
ENCODING 610
SWIDTH 640 0
DWIDTH 6 0
BBX 5 5 0 0
BITMAP
78
80
98
88
78
ENDCHAR
STARTCHAR LATIN SMALL LETTER GAMMA
ENCODING 611
SWIDTH 640 0
DWIDTH 6 0
BBX 5 7 0 -2
BITMAP
88
88
50
50
20
50
20
ENDCHAR
STARTCHAR LATIN SMALL LETTER RAMS HORN
ENCODING 612
SWIDTH 640 0
DWIDTH 6 0
BBX 5 6 0 -1
BITMAP
88
50
50
20
50
20
ENDCHAR
STARTCHAR LATIN SMALL LETTER TURNED H
ENCODING 613
SWIDTH 640 0
DWIDTH 6 0
BBX 5 7 0 0
BITMAP
88
88
88
88
78
08
08
ENDCHAR
STARTCHAR LATIN SMALL LETTER H WITH HOOK
ENCODING 614
SWIDTH 640 0
DWIDTH 6 0
BBX 5 8 0 0
BITMAP
60
80
80
F0
88
88
88
88
ENDCHAR
STARTCHAR LATIN SMALL LETTER HENG WITH HOOK
ENCODING 615
SWIDTH 640 0
DWIDTH 6 0
BBX 5 10 0 -2
BITMAP
60
80
80
F0
88
88
88
88
08
10
ENDCHAR
STARTCHAR LATIN SMALL LETTER I WITH STROKE
ENCODING 616
SWIDTH 640 0
DWIDTH 6 0
BBX 3 7 1 0
BITMAP
40
00
40
40
E0
40
40
ENDCHAR
STARTCHAR LATIN SMALL LETTER IOTA
ENCODING 617
SWIDTH 640 0
DWIDTH 6 0
BBX 2 5 2 0
BITMAP
80
80
80
80
40
ENDCHAR
STARTCHAR LATIN LETTER SMALL CAPITAL I
ENCODING 618
SWIDTH 640 0
DWIDTH 6 0
BBX 4 5 0 0
BITMAP
70
20
20
20
70
ENDCHAR
STARTCHAR LATIN SMALL LETTER L WITH MIDDLE TILDE
ENCODING 619
SWIDTH 640 0
DWIDTH 6 0
BBX 5 7 0 0
BITMAP
20
20
20
68
B0
20
20
ENDCHAR
STARTCHAR LATIN SMALL LETTER L WITH BELT
ENCODING 620
SWIDTH 640 0
DWIDTH 6 0
BBX 4 7 0 0
BITMAP
20
20
60
A0
70
20
20
ENDCHAR
STARTCHAR LATIN SMALL LETTER L WITH RETROFLEX HOOK
ENCODING 621
SWIDTH 640 0
DWIDTH 6 0
BBX 2 7 2 0
BITMAP
80
80
80
80
80
80
40
ENDCHAR
STARTCHAR LATIN SMALL LETTER LEZH
ENCODING 622
SWIDTH 640 0
DWIDTH 6 0
BBX 5 8 0 -1
BITMAP
80
F8
88
90
B0
88
48
30
ENDCHAR
STARTCHAR LATIN SMALL LETTER TURNED M
ENCODING 623
SWIDTH 640 0
DWIDTH 6 0
BBX 5 5 0 0
BITMAP
A8
A8
A8
A8
78
ENDCHAR
STARTCHAR LATIN SMALL LETTER TURNED M WITH LONG LEG
ENCODING 624
SWIDTH 640 0
DWIDTH 6 0
BBX 5 7 0 -2
BITMAP
A8
A8
A8
A8
78
08
08
ENDCHAR
STARTCHAR LATIN SMALL LETTER M WITH HOOK
ENCODING 625
SWIDTH 640 0
DWIDTH 6 0
BBX 5 7 0 -2
BITMAP
F0
A8
A8
A8
A8
08
10
ENDCHAR
STARTCHAR LATIN SMALL LETTER N WITH LEFT HOOK
ENCODING 626
SWIDTH 640 0
DWIDTH 6 0
BBX 5 7 0 -2
BITMAP
50
68
48
48
48
40
80
ENDCHAR
STARTCHAR LATIN SMALL LETTER N WITH RETROFLEX HOOK
ENCODING 627
SWIDTH 640 0
DWIDTH 6 0
BBX 5 7 0 -2
BITMAP
A0
D0
90
90
90
10
08
ENDCHAR
STARTCHAR LATIN LETTER SMALL CAPITAL N
ENCODING 628
SWIDTH 640 0
DWIDTH 6 0
BBX 5 5 0 0
BITMAP
C8
C8
A8
98
98
ENDCHAR
STARTCHAR LATIN SMALL LETTER BARRED O
ENCODING 629
SWIDTH 640 0
DWIDTH 6 0
BBX 5 5 0 0
BITMAP
70
88
F8
88
70
ENDCHAR
STARTCHAR LATIN LETTER SMALL CAPITAL OE
ENCODING 630
SWIDTH 640 0
DWIDTH 6 0
BBX 5 5 0 0
BITMAP
78
A0
B8
A0
78
ENDCHAR
STARTCHAR LATIN SMALL LETTER CLOSED OMEGA
ENCODING 631
SWIDTH 640 0
DWIDTH 6 0
BBX 5 5 0 0
BITMAP
70
88
A8
A8
D8
ENDCHAR
STARTCHAR LATIN SMALL LETTER PHI
ENCODING 632
SWIDTH 640 0
DWIDTH 6 0
BBX 5 9 0 -2
BITMAP
20
20
70
A8
A8
A8
70
20
20
ENDCHAR
STARTCHAR LATIN SMALL LETTER TURNED R
ENCODING 633
SWIDTH 640 0
DWIDTH 6 0
BBX 5 5 0 0
BITMAP
08
08
08
98
68
ENDCHAR
STARTCHAR LATIN SMALL LETTER TURNED R WITH LONG LEG
ENCODING 634
SWIDTH 640 0
DWIDTH 6 0
BBX 5 7 0 0
BITMAP
08
08
08
08
08
98
68
ENDCHAR
STARTCHAR LATIN SMALL LETTER TURNED R WITH HOOK
ENCODING 635
SWIDTH 640 0
DWIDTH 6 0
BBX 6 6 0 -1
BITMAP
08
08
08
98
68
04
ENDCHAR
STARTCHAR LATIN SMALL LETTER R WITH LONG LEG
ENCODING 636
SWIDTH 640 0
DWIDTH 6 0
BBX 5 7 0 0
BITMAP
B0
C8
80
80
80
80
80
ENDCHAR
STARTCHAR LATIN SMALL LETTER R WITH TAIL
ENCODING 637
SWIDTH 640 0
DWIDTH 6 0
BBX 5 8 0 -1
BITMAP
B0
C8
80
80
80
80
80
40
ENDCHAR
STARTCHAR LATIN SMALL LETTER R WITH FISHHOOK
ENCODING 638
SWIDTH 640 0
DWIDTH 6 0
BBX 4 5 0 0
BITMAP
60
90
80
80
80
ENDCHAR
STARTCHAR LATIN SMALL LETTER REVERSED R WITH FISHHOOK
ENCODING 639
SWIDTH 640 0
DWIDTH 6 0
BBX 4 5 0 0
BITMAP
60
90
10
10
10
ENDCHAR
STARTCHAR LATIN LETTER SMALL CAPITAL R
ENCODING 640
SWIDTH 640 0
DWIDTH 6 0
BBX 5 5 0 0
BITMAP
F0
88
F0
90
88
ENDCHAR
STARTCHAR LATIN LETTER SMALL CAPITAL INVERTED R
ENCODING 641
SWIDTH 640 0
DWIDTH 6 0
BBX 5 5 0 0
BITMAP
88
90
F0
88
F0
ENDCHAR
STARTCHAR LATIN SMALL LETTER S WITH HOOK
ENCODING 642
SWIDTH 640 0
DWIDTH 6 0
BBX 5 7 0 -2
BITMAP
78
80
70
08
F0
80
40
ENDCHAR
STARTCHAR LATIN SMALL LETTER ESH
ENCODING 643
SWIDTH 640 0
DWIDTH 6 0
BBX 5 9 0 -1
BITMAP
18
20
20
20
20
20
20
20
C0
ENDCHAR
STARTCHAR LATIN SMALL LETTER DOTLESS J WITH STROKE AND HOOK
ENCODING 644
SWIDTH 640 0
DWIDTH 6 0
BBX 5 9 0 -1
BITMAP
18
20
20
20
20
70
20
20
C0
ENDCHAR
STARTCHAR LATIN SMALL LETTER SQUAT REVERSED ESH
ENCODING 645
SWIDTH 640 0
DWIDTH 6 0
BBX 5 7 0 -1
BITMAP
C0
20
20
20
20
20
18
ENDCHAR
STARTCHAR LATIN SMALL LETTER ESH WITH CURL
ENCODING 646
SWIDTH 640 0
DWIDTH 6 0
BBX 6 9 0 -1
BITMAP
18
20
20
20
20
20
60
B4
48
ENDCHAR
STARTCHAR LATIN SMALL LETTER TURNED T
ENCODING 647
SWIDTH 640 0
DWIDTH 6 0
BBX 4 7 0 0
BITMAP
C0
20
20
20
F0
20
20
ENDCHAR
STARTCHAR LATIN SMALL LETTER T WITH RETROFLEX HOOK
ENCODING 648
SWIDTH 640 0
DWIDTH 6 0
BBX 4 8 0 -1
BITMAP
40
40
F0
40
40
40
40
30
ENDCHAR
STARTCHAR LATIN SMALL LETTER U BAR
ENCODING 649
SWIDTH 640 0
DWIDTH 6 0
BBX 5 5 0 0
BITMAP
88
F8
88
98
68
ENDCHAR
STARTCHAR LATIN SMALL LETTER UPSILON
ENCODING 650
SWIDTH 640 0
DWIDTH 6 0
BBX 5 5 0 0
BITMAP
88
50
88
88
70
ENDCHAR
STARTCHAR LATIN SMALL LETTER V WITH HOOK
ENCODING 651
SWIDTH 640 0
DWIDTH 6 0
BBX 5 5 0 0
BITMAP
B0
88
88
88
70
ENDCHAR
STARTCHAR LATIN SMALL LETTER TURNED V
ENCODING 652
SWIDTH 640 0
DWIDTH 6 0
BBX 5 5 0 0
BITMAP
20
50
50
88
88
ENDCHAR
STARTCHAR LATIN SMALL LETTER TURNED W
ENCODING 653
SWIDTH 640 0
DWIDTH 6 0
BBX 5 5 0 0
BITMAP
50
A8
A8
A8
88
ENDCHAR
STARTCHAR LATIN SMALL LETTER TURNED Y
ENCODING 654
SWIDTH 640 0
DWIDTH 6 0
BBX 5 7 0 -2
BITMAP
70
80
F0
88
88
88
88
ENDCHAR
STARTCHAR LATIN LETTER SMALL CAPITAL Y
ENCODING 655
SWIDTH 640 0
DWIDTH 6 0
BBX 5 5 0 0
BITMAP
88
50
20
20
20
ENDCHAR
STARTCHAR LATIN SMALL LETTER Z WITH RETROFLEX HOOK
ENCODING 656
SWIDTH 640 0
DWIDTH 6 0
BBX 5 7 0 -2
BITMAP
F8
10
20
40
F8
08
10
ENDCHAR
STARTCHAR LATIN SMALL LETTER Z WITH CURL
ENCODING 657
SWIDTH 640 0
DWIDTH 6 0
BBX 5 6 0 -1
BITMAP
F8
10
30
68
F8
20
ENDCHAR
STARTCHAR LATIN SMALL LETTER EZH
ENCODING 658
SWIDTH 640 0
DWIDTH 6 0
BBX 5 7 0 -2
BITMAP
F8
10
20
10
08
88
70
ENDCHAR
STARTCHAR LATIN SMALL LETTER EZH WITH CURL
ENCODING 659
SWIDTH 640 0
DWIDTH 6 0
BBX 5 7 0 -2
BITMAP
F8
10
20
10
68
98
78
ENDCHAR
STARTCHAR LATIN LETTER GLOTTAL STOP
ENCODING 660
SWIDTH 640 0
DWIDTH 6 0
BBX 5 7 0 1
BITMAP
70
88
08
10
20
20
20
ENDCHAR
STARTCHAR LATIN LETTER PHARYNGEAL VOICED FRICATIVE
ENCODING 661
SWIDTH 640 0
DWIDTH 6 0
BBX 5 7 0 1
BITMAP
70
88
80
40
20
20
20
ENDCHAR
STARTCHAR LATIN LETTER INVERTED GLOTTAL STOP
ENCODING 662
SWIDTH 640 0
DWIDTH 6 0
BBX 5 7 0 1
BITMAP
20
20
20
10
08
88
70
ENDCHAR
STARTCHAR LATIN LETTER STRETCHED C
ENCODING 663
SWIDTH 640 0
DWIDTH 6 0
BBX 5 7 0 -2
BITMAP
70
88
80
80
80
88
70
ENDCHAR
STARTCHAR LATIN LETTER BILABIAL CLICK
ENCODING 664
SWIDTH 640 0
DWIDTH 6 0
BBX 5 5 0 0
BITMAP
70
88
A8
88
70
ENDCHAR
STARTCHAR LATIN LETTER SMALL CAPITAL B
ENCODING 665
SWIDTH 640 0
DWIDTH 6 0
BBX 5 5 0 0
BITMAP
F0
88
F0
88
F0
ENDCHAR
STARTCHAR LATIN SMALL LETTER CLOSED OPEN E
ENCODING 666
SWIDTH 640 0
DWIDTH 6 0
BBX 5 5 0 0
BITMAP
70
88
68
88
70
ENDCHAR
STARTCHAR LATIN LETTER SMALL CAPITAL G WITH HOOK
ENCODING 667
SWIDTH 640 0
DWIDTH 6 0
BBX 6 7 0 0
BITMAP
04
08
78
80
98
88
78
ENDCHAR
STARTCHAR LATIN LETTER SMALL CAPITAL H
ENCODING 668
SWIDTH 640 0
DWIDTH 6 0
BBX 5 5 0 0
BITMAP
88
88
F8
88
88
ENDCHAR
STARTCHAR LATIN SMALL LETTER J WITH CROSSED-TAIL
ENCODING 669
SWIDTH 640 0
DWIDTH 6 0
BBX 4 9 0 -2
BITMAP
20
00
60
20
20
20
70
A0
C0
ENDCHAR
STARTCHAR LATIN SMALL LETTER TURNED K
ENCODING 670
SWIDTH 640 0
DWIDTH 6 0
BBX 5 7 0 0
BITMAP
88
48
38
28
48
08
08
ENDCHAR
STARTCHAR LATIN LETTER SMALL CAPITAL L
ENCODING 671
SWIDTH 640 0
DWIDTH 6 0
BBX 4 5 0 0
BITMAP
80
80
80
80
F0
ENDCHAR
STARTCHAR LATIN SMALL LETTER Q WITH HOOK
ENCODING 672
SWIDTH 640 0
DWIDTH 6 0
BBX 6 9 0 -2
BITMAP
04
08
78
88
88
88
78
08
08
ENDCHAR
STARTCHAR LATIN LETTER GLOTTAL STOP WITH STROKE
ENCODING 673
SWIDTH 640 0
DWIDTH 6 0
BBX 5 7 0 1
BITMAP
70
88
08
10
20
70
20
ENDCHAR
STARTCHAR LATIN LETTER REVERSED GLOTTAL STOP WITH STROKE
ENCODING 674
SWIDTH 640 0
DWIDTH 6 0
BBX 5 7 0 1
BITMAP
70
88
80
40
20
70
20
ENDCHAR
STARTCHAR LATIN SMALL LETTER DZ DIGRAPH
ENCODING 675
SWIDTH 640 0
DWIDTH 6 0
BBX 6 7 0 0
BITMAP
20
20
7C
A4
A8
B0
7C
ENDCHAR
STARTCHAR LATIN SMALL LETTER DEZH DIGRAPH
ENCODING 676
SWIDTH 640 0
DWIDTH 6 0
BBX 6 8 0 -1
BITMAP
20
20
7C
A4
A8
A4
74
08
ENDCHAR
STARTCHAR LATIN SMALL LETTER DZ DIGRAPH WITH CURL
ENCODING 677
SWIDTH 640 0
DWIDTH 6 0
BBX 6 8 0 -1
BITMAP
20
20
7C
A4
A8
B4
7C
10
ENDCHAR
STARTCHAR LATIN SMALL LETTER TS DIGRAPH
ENCODING 678
SWIDTH 640 0
DWIDTH 6 0
BBX 6 7 0 0
BITMAP
40
40
FC
60
58
44
38
ENDCHAR
STARTCHAR LATIN SMALL LETTER TESH DIGRAPH
ENCODING 679
SWIDTH 640 0
DWIDTH 6 0
BBX 5 9 0 -2
BITMAP
48
50
F0
50
50
50
30
10
20
ENDCHAR
STARTCHAR LATIN SMALL LETTER TC DIGRAPH WITH CURL
ENCODING 680
SWIDTH 640 0
DWIDTH 6 0
BBX 6 8 0 -1
BITMAP
40
40
EC
50
58
54
3C
10
ENDCHAR
STARTCHAR LATIN SMALL LETTER FENG DIGRAPH
ENCODING 681
SWIDTH 640 0
DWIDTH 6 0
BBX 6 9 0 -2
BITMAP
20
40
40
F8
54
54
54
08
10
ENDCHAR
STARTCHAR LATIN SMALL LETTER LS DIGRAPH
ENCODING 682
SWIDTH 640 0
DWIDTH 6 0
BBX 5 7 0 0
BITMAP
80
80
B8
C0
B0
88
F0
ENDCHAR
STARTCHAR LATIN SMALL LETTER LZ DIGRAPH
ENCODING 683
SWIDTH 640 0
DWIDTH 6 0
BBX 5 7 0 0
BITMAP
80
80
F8
90
A0
C0
F8
ENDCHAR
STARTCHAR LATIN LETTER BILABIAL PERCUSSIVE
ENCODING 684
SWIDTH 640 0
DWIDTH 6 0
BBX 5 6 0 0
BITMAP
A8
A8
50
A8
A8
50
ENDCHAR
STARTCHAR LATIN LETTER BIDENTAL PERCUSSIVE
ENCODING 685
SWIDTH 640 0
DWIDTH 6 0
BBX 5 5 0 0
BITMAP
F8
88
00
F8
88
ENDCHAR
STARTCHAR LATIN SMALL LETTER TURNED H WITH FISHHOOK
ENCODING 686
SWIDTH 640 0
DWIDTH 6 0
BBX 5 7 0 -2
BITMAP
88
48
48
48
38
08
08
ENDCHAR
STARTCHAR LATIN SMALL LETTER TURNED H WITH FISHHOOK AND TAIL
ENCODING 687
SWIDTH 640 0
DWIDTH 6 0
BBX 6 7 0 -2
BITMAP
88
48
48
48
38
08
04
ENDCHAR
STARTCHAR MODIFIER LETTER SMALL H
ENCODING 688
SWIDTH 640 0
DWIDTH 6 0
BBX 3 4 0 3
BITMAP
80
C0
A0
A0
ENDCHAR
STARTCHAR MODIFIER LETTER SMALL H WITH HOOK
ENCODING 689
SWIDTH 640 0
DWIDTH 6 0
BBX 3 5 0 3
BITMAP
60
80
C0
A0
A0
ENDCHAR
STARTCHAR MODIFIER LETTER SMALL J
ENCODING 690
SWIDTH 640 0
DWIDTH 6 0
BBX 3 6 0 2
BITMAP
20
00
20
20
A0
40
ENDCHAR
STARTCHAR MODIFIER LETTER SMALL R
ENCODING 691
SWIDTH 640 0
DWIDTH 6 0
BBX 4 4 0 3
BITMAP
A0
D0
80
80
ENDCHAR
STARTCHAR MODIFIER LETTER SMALL TURNED R
ENCODING 692
SWIDTH 640 0
DWIDTH 6 0
BBX 4 4 0 3
BITMAP
10
10
B0
50
ENDCHAR
STARTCHAR MODIFIER LETTER SMALL TURNED R WITH HOOK
ENCODING 693
SWIDTH 533 0
DWIDTH 5 0
BBX 5 5 0 2
BITMAP
10
10
B0
50
08
ENDCHAR
STARTCHAR MODIFIER LETTER SMALL CAPITAL INVERTED R
ENCODING 694
SWIDTH 320 0
DWIDTH 3 0
BBX 3 5 0 3
BITMAP
A0
A0
C0
A0
C0
ENDCHAR
STARTCHAR MODIFIER LETTER SMALL W
ENCODING 695
SWIDTH 640 0
DWIDTH 6 0
BBX 5 4 0 3
BITMAP
A8
A8
50
50
ENDCHAR
STARTCHAR MODIFIER LETTER SMALL Y
ENCODING 696
SWIDTH 320 0
DWIDTH 3 0
BBX 3 5 0 3
BITMAP
A0
A0
60
20
C0
ENDCHAR
STARTCHAR MODIFIER LETTER PRIME
ENCODING 697
SWIDTH 213 0
DWIDTH 2 0
BBX 1 2 1 5
BITMAP
80
80
ENDCHAR
STARTCHAR MODIFIER LETTER DOUBLE PRIME
ENCODING 698
SWIDTH 320 0
DWIDTH 3 0
BBX 3 2 0 5
BITMAP
A0
A0
ENDCHAR
STARTCHAR MODIFIER LETTER TURNED COMMA
ENCODING 699
SWIDTH 213 0
DWIDTH 2 0
BBX 2 3 1 5
BITMAP
40
80
C0
ENDCHAR
STARTCHAR MODIFIER LETTER APOSTROPHE
ENCODING 700
SWIDTH 213 0
DWIDTH 2 0
BBX 2 3 1 5
BITMAP
C0
40
80
ENDCHAR
STARTCHAR MODIFIER LETTER REVERSED COMMA
ENCODING 701
SWIDTH 213 0
DWIDTH 2 0
BBX 2 3 1 5
BITMAP
C0
80
40
ENDCHAR
STARTCHAR MODIFIER LETTER LEFT ARROWHEAD
ENCODING 706
SWIDTH 640 0
DWIDTH 6 0
BBX 6 5 0 1
BITMAP
0C
30
C0
30
0C
ENDCHAR
STARTCHAR MODIFIER LETTER RIGHT ARROWHEAD
ENCODING 707
SWIDTH 640 0
DWIDTH 6 0
BBX 6 5 0 1
BITMAP
C0
30
0C
30
C0
ENDCHAR
STARTCHAR MODIFIER LETTER UP ARROWHEAD
ENCODING 708
SWIDTH 640 0
DWIDTH 6 0
BBX 5 6 0 1
BITMAP
88
88
50
50
20
20
ENDCHAR
STARTCHAR MODIFIER LETTER DOWN ARROWHEAD
ENCODING 709
SWIDTH 640 0
DWIDTH 6 0
BBX 5 6 0 1
BITMAP
20
20
50
50
88
88
ENDCHAR
STARTCHAR MODIFIER LETTER CIRCUMFLEX ACCENT
ENCODING 710
SWIDTH 640 0
DWIDTH 6 0
BBX 5 3 0 5
BITMAP
20
50
88
ENDCHAR
STARTCHAR CARON
ENCODING 711
SWIDTH 640 0
DWIDTH 6 0
BBX 5 3 0 5
BITMAP
88
50
20
ENDCHAR
STARTCHAR MODIFIER LETTER VERTICAL LINE
ENCODING 712
SWIDTH 640 0
DWIDTH 6 0
BBX 1 2 2 5
BITMAP
80
80
ENDCHAR
STARTCHAR MODIFIER LETTER MACRON
ENCODING 713
SWIDTH 640 0
DWIDTH 6 0
BBX 2 1 1 6
BITMAP
C0
ENDCHAR
STARTCHAR MODIFIER LETTER ACUTE ACCENT
ENCODING 714
SWIDTH 640 0
DWIDTH 6 0
BBX 2 2 2 5
BITMAP
40
80
ENDCHAR
STARTCHAR MODIFIER LETTER GRAVE ACCENT
ENCODING 715
SWIDTH 640 0
DWIDTH 6 0
BBX 2 2 2 5
BITMAP
80
40
ENDCHAR
STARTCHAR MODIFIER LETTER TRIANGULAR COLON
ENCODING 720
SWIDTH 640 0
DWIDTH 6 0
BBX 3 6 1 0
BITMAP
E0
40
00
00
40
E0
ENDCHAR
STARTCHAR MODIFIER LETTER HALF TRIANGULAR COLON
ENCODING 721
SWIDTH 640 0
DWIDTH 6 0
BBX 3 2 1 2
BITMAP
E0
40
ENDCHAR
STARTCHAR BREVE
ENCODING 728
SWIDTH 640 0
DWIDTH 6 0
BBX 5 2 1 7
BITMAP
88
70
ENDCHAR
STARTCHAR DOT ABOVE
ENCODING 729
SWIDTH 640 0
DWIDTH 6 0
BBX 2 2 2 7
BITMAP
C0
C0
ENDCHAR
STARTCHAR RING ABOVE
ENCODING 730
SWIDTH 640 0
DWIDTH 6 0
BBX 3 3 1 6
BITMAP
40
A0
40
ENDCHAR
STARTCHAR OGONEK
ENCODING 731
SWIDTH 640 0
DWIDTH 6 0
BBX 2 3 2 -2
BITMAP
40
80
40
ENDCHAR
STARTCHAR SMALL TILDE
ENCODING 732
SWIDTH 640 0
DWIDTH 6 0
BBX 5 2 0 7
BITMAP
68
B0
ENDCHAR
STARTCHAR DOUBLE ACUTE ACCENT
ENCODING 733
SWIDTH 640 0
DWIDTH 6 0
BBX 6 2 0 7
BITMAP
44
88
ENDCHAR
STARTCHAR MODIFIER LETTER RHOTIC HOOK
ENCODING 734
SWIDTH 640 0
DWIDTH 6 0
BBX 3 2 1 4
BITMAP
C0
A0
ENDCHAR
STARTCHAR MODIFIER LETTER SMALL GAMMA
ENCODING 736
SWIDTH 640 0
DWIDTH 6 0
BBX 5 5 0 1
BITMAP
88
50
20
50
20
ENDCHAR
STARTCHAR MODIFIER LETTER SMALL REVERSED GLOTTAL STOP
ENCODING 740
SWIDTH 640 0
DWIDTH 6 0
BBX 3 5 1 3
BITMAP
60
80
80
40
40
ENDCHAR
STARTCHAR MODIFIER LETTER DOUBLE APOSTROPHE
ENCODING 750
SWIDTH 640 0
DWIDTH 6 0
BBX 5 4 0 3
BITMAP
D8
D8
48
90
ENDCHAR
STARTCHAR COMBINING GRAVE ACCENT
ENCODING 768
SWIDTH 640 0
DWIDTH 6 0
BBX 2 2 1 7
BITMAP
80
40
ENDCHAR
STARTCHAR COMBINING ACUTE ACCENT
ENCODING 769
SWIDTH 640 0
DWIDTH 6 0
BBX 2 2 1 7
BITMAP
40
80
ENDCHAR
STARTCHAR COMBINING CIRCUMFLEX ACCENT
ENCODING 770
SWIDTH 640 0
DWIDTH 6 0
BBX 4 2 0 7
BITMAP
60
90
ENDCHAR
STARTCHAR COMBINING TILDE
ENCODING 771
SWIDTH 640 0
DWIDTH 6 0
BBX 5 2 0 7
BITMAP
68
B0
ENDCHAR
STARTCHAR COMBINING MACRON
ENCODING 772
SWIDTH 640 0
DWIDTH 6 0
BBX 3 1 1 8
BITMAP
E0
ENDCHAR
STARTCHAR COMBINING OVERLINE
ENCODING 773
SWIDTH 640 0
DWIDTH 6 0
BBX 5 1 0 8
BITMAP
F8
ENDCHAR
STARTCHAR COMBINING BREVE
ENCODING 774
SWIDTH 640 0
DWIDTH 6 0
BBX 4 2 1 7
BITMAP
90
60
ENDCHAR
STARTCHAR COMBINING DOT ABOVE
ENCODING 775
SWIDTH 640 0
DWIDTH 6 0
BBX 1 1 2 8
BITMAP
80
ENDCHAR
STARTCHAR COMBINING DIAERESIS
ENCODING 776
SWIDTH 640 0
DWIDTH 6 0
BBX 3 1 1 8
BITMAP
A0
ENDCHAR
STARTCHAR COMBINING HOOK ABOVE
ENCODING 777
SWIDTH 640 0
DWIDTH 6 0
BBX 3 3 1 6
BITMAP
C0
20
40
ENDCHAR
STARTCHAR COMBINING RING ABOVE
ENCODING 778
SWIDTH 640 0
DWIDTH 6 0
BBX 3 3 2 6
BITMAP
40
A0
40
ENDCHAR
STARTCHAR COMBINING DOUBLE ACUTE ACCENT
ENCODING 779
SWIDTH 640 0
DWIDTH 6 0
BBX 5 2 0 7
BITMAP
48
90
ENDCHAR
STARTCHAR COMBINING CARON
ENCODING 780
SWIDTH 640 0
DWIDTH 6 0
BBX 3 2 1 7
BITMAP
A0
40
ENDCHAR
STARTCHAR COMBINING VERTICAL LINE ABOVE
ENCODING 781
SWIDTH 640 0
DWIDTH 6 0
BBX 1 2 2 7
BITMAP
80
80
ENDCHAR
STARTCHAR COMBINING DOUBLE VERTICAL LINE ABOVE
ENCODING 782
SWIDTH 640 0
DWIDTH 6 0
BBX 3 2 1 7
BITMAP
A0
A0
ENDCHAR
STARTCHAR COMBINING CANDRABINDU
ENCODING 784
SWIDTH 640 0
DWIDTH 6 0
BBX 5 3 0 6
BITMAP
20
88
70
ENDCHAR
STARTCHAR COMBINING INVERTED BREVE
ENCODING 785
SWIDTH 640 0
DWIDTH 6 0
BBX 5 2 0 7
BITMAP
70
88
ENDCHAR
STARTCHAR COMBINING TURNED COMMA ABOVE
ENCODING 786
SWIDTH 640 0
DWIDTH 6 0
BBX 2 3 1 6
BITMAP
40
80
C0
ENDCHAR
STARTCHAR COMBINING COMMA ABOVE
ENCODING 787
SWIDTH 640 0
DWIDTH 6 0
BBX 2 3 1 6
BITMAP
C0
40
80
ENDCHAR
STARTCHAR COMBINING REVERSED COMMA ABOVE
ENCODING 788
SWIDTH 640 0
DWIDTH 6 0
BBX 2 3 1 6
BITMAP
C0
80
40
ENDCHAR
STARTCHAR COMBINING COMMA ABOVE RIGHT
ENCODING 789
SWIDTH 640 0
DWIDTH 6 0
BBX 2 3 1 6
BITMAP
C0
40
80
ENDCHAR
STARTCHAR COMBINING LEFT ANGLE ABOVE
ENCODING 794
SWIDTH 640 0
DWIDTH 6 0
BBX 4 3 1 6
BITMAP
F0
10
10
ENDCHAR
STARTCHAR COMBINING LEFT HALF RING BELOW
ENCODING 796
SWIDTH 640 0
DWIDTH 6 0
BBX 2 3 1 -3
BITMAP
40
80
40
ENDCHAR
STARTCHAR COMBINING PLUS SIGN BELOW
ENCODING 799
SWIDTH 640 0
DWIDTH 6 0
BBX 3 3 1 -3
BITMAP
40
E0
40
ENDCHAR
STARTCHAR COMBINING MINUS SIGN BELOW
ENCODING 800
SWIDTH 640 0
DWIDTH 6 0
BBX 3 1 1 -2
BITMAP
E0
ENDCHAR
STARTCHAR COMBINING DIAERESIS BELOW
ENCODING 804
SWIDTH 640 0
DWIDTH 6 0
BBX 4 1 1 -2
BITMAP
A0
ENDCHAR
STARTCHAR COMBINING RING BELOW
ENCODING 805
SWIDTH 640 0
DWIDTH 6 0
BBX 4 3 0 -3
BITMAP
20
50
20
ENDCHAR
STARTCHAR COMBINING BRIDGE BELOW
ENCODING 810
SWIDTH 640 0
DWIDTH 6 0
BBX 3 2 1 -2
BITMAP
E0
A0
ENDCHAR
STARTCHAR COMBINING CARON BELOW
ENCODING 812
SWIDTH 640 0
DWIDTH 6 0
BBX 3 2 1 -2
BITMAP
A0
40
ENDCHAR
STARTCHAR COMBINING TILDE BELOW
ENCODING 816
SWIDTH 640 0
DWIDTH 6 0
BBX 4 2 1 -3
BITMAP
50
A0
ENDCHAR
STARTCHAR COMBINING RIGHT HALF RING BELOW
ENCODING 825
SWIDTH 640 0
DWIDTH 6 0
BBX 4 3 0 -3
BITMAP
20
10
20
ENDCHAR
STARTCHAR COMBINING INVERTED BRIDGE BELOW
ENCODING 826
SWIDTH 640 0
DWIDTH 6 0
BBX 3 2 1 -3
BITMAP
A0
E0
ENDCHAR
STARTCHAR COMBINING SQUARE BELOW
ENCODING 827
SWIDTH 640 0
DWIDTH 6 0
BBX 4 3 0 -3
BITMAP
70
50
70
ENDCHAR
STARTCHAR COMBINING SEAGULL BELOW
ENCODING 828
SWIDTH 640 0
DWIDTH 6 0
BBX 5 2 0 -3
BITMAP
50
A8
ENDCHAR
STARTCHAR COMBINING GREEK KORONIS
ENCODING 835
SWIDTH 640 0
DWIDTH 6 0
BBX 2 4 2 3
BITMAP
C0
C0
40
80
ENDCHAR
STARTCHAR COMBINING GREEK DIALYTIKA TONOS
ENCODING 836
SWIDTH 640 0
DWIDTH 6 0
BBX 3 2 1 2
BITMAP
E0
40
ENDCHAR
STARTCHAR COMBINING DOUBLE BREVE BELOW
ENCODING 860
SWIDTH 640 0
DWIDTH 6 0
BBX 5 2 0 -2
BITMAP
88
70
ENDCHAR
STARTCHAR COMBINING DOUBLE INVERTED BREVE
ENCODING 865
SWIDTH 640 0
DWIDTH 6 0
BBX 5 2 0 7
BITMAP
70
88
ENDCHAR
STARTCHAR GREEK CAPITAL LETTER HETA
ENCODING 880
SWIDTH 640 0
DWIDTH 6 0
BBX 4 7 0 0
BITMAP
80
80
80
F0
80
80
80
ENDCHAR
STARTCHAR GREEK SMALL LETTER HETA
ENCODING 881
SWIDTH 640 0
DWIDTH 6 0
BBX 5 6 0 0
BITMAP
80
40
40
78
40
40
ENDCHAR
STARTCHAR GREEK CAPITAL LETTER ARCHAIC SAMPI
ENCODING 882
SWIDTH 640 0
DWIDTH 6 0
BBX 5 7 0 0
BITMAP
F8
A8
A8
20
20
20
20
ENDCHAR
STARTCHAR GREEK SMALL LETTER ARCHAIC SAMPI
ENCODING 883
SWIDTH 640 0
DWIDTH 6 0
BBX 5 5 0 0
BITMAP
F8
A8
20
20
20
ENDCHAR
STARTCHAR GREEK NUMERAL SIGN
ENCODING 884
SWIDTH 640 0
DWIDTH 6 0
BBX 3 2 1 7
BITMAP
60
C0
ENDCHAR
STARTCHAR GREEK LOWER NUMERAL SIGN
ENCODING 885
SWIDTH 640 0
DWIDTH 6 0
BBX 4 3 0 -1
BITMAP
30
60
C0
ENDCHAR
STARTCHAR GREEK CAPITAL LETTER PAMPHYLIAN DIGAMMA
ENCODING 886
SWIDTH 640 0
DWIDTH 6 0
BBX 5 6 0 0
BITMAP
98
98
A8
A8
C8
C8
ENDCHAR
STARTCHAR GREEK SMALL LETTER PAMPHYLIAN DIGAMMA
ENCODING 887
SWIDTH 640 0
DWIDTH 6 0
BBX 6 6 0 -1
BITMAP
88
98
A8
C8
88
04
ENDCHAR
STARTCHAR GREEK YPOGEGRAMMENI
ENCODING 890
SWIDTH 640 0
DWIDTH 6 0
BBX 5 2 -2 -2
BITMAP
10
18
ENDCHAR
STARTCHAR GREEK SMALL REVERSED LUNATE SIGMA SYMBOL
ENCODING 891
SWIDTH 640 0
DWIDTH 6 0
BBX 5 5 0 0
BITMAP
70
88
08
88
70
ENDCHAR
STARTCHAR GREEK SMALL DOTTED LUNATE SIGMA SYMBOL
ENCODING 892
SWIDTH 640 0
DWIDTH 6 0
BBX 5 5 0 0
BITMAP
70
88
A0
88
70
ENDCHAR
STARTCHAR GREEK SMALL REVERSED DOTTED LUNATE SIGMA SYMBOL
ENCODING 893
SWIDTH 640 0
DWIDTH 6 0
BBX 5 5 0 0
BITMAP
70
88
28
88
70
ENDCHAR
STARTCHAR GREEK QUESTION MARK
ENCODING 894
SWIDTH 640 0
DWIDTH 6 0
BBX 2 8 2 -2
BITMAP
C0
C0
00
00
C0
C0
40
80
ENDCHAR
STARTCHAR GREEK CAPITAL LETTER YOT
ENCODING 895
SWIDTH 640 0
DWIDTH 6 0
BBX 6 3 0 1
BITMAP
FC
FC
FC
ENDCHAR
STARTCHAR uni0380
ENCODING 896
SWIDTH 640 0
DWIDTH 6 0
BBX 6 3 0 1
BITMAP
A8
54
A8
ENDCHAR
STARTCHAR uni0381
ENCODING 897
SWIDTH 640 0
DWIDTH 6 0
BBX 5 3 0 1
BITMAP
A8
00
A8
ENDCHAR
STARTCHAR GREEK TONOS
ENCODING 900
SWIDTH 640 0
DWIDTH 6 0
BBX 2 3 2 5
BITMAP
40
C0
80
ENDCHAR
STARTCHAR GREEK DIALYTIKA TONOS
ENCODING 901
SWIDTH 640 0
DWIDTH 6 0
BBX 6 3 0 5
BITMAP
10
B4
20
ENDCHAR
STARTCHAR GREEK CAPITAL LETTER ALPHA WITH TONOS
ENCODING 902
SWIDTH 640 0
DWIDTH 6 0
BBX 5 9 0 0
BITMAP
40
80
70
88
88
F8
88
88
88
ENDCHAR
STARTCHAR GREEK ANO TELEIA
ENCODING 903
SWIDTH 640 0
DWIDTH 6 0
BBX 2 2 2 3
BITMAP
C0
C0
ENDCHAR
STARTCHAR GREEK CAPITAL LETTER EPSILON WITH TONOS
ENCODING 904
SWIDTH 640 0
DWIDTH 6 0
BBX 5 9 0 0
BITMAP
20
40
F8
80
80
F0
80
80
F8
ENDCHAR
STARTCHAR GREEK CAPITAL LETTER ETA WITH TONOS
ENCODING 905
SWIDTH 640 0
DWIDTH 6 0
BBX 5 8 0 0
BITMAP
20
48
C8
48
78
48
48
48
ENDCHAR
STARTCHAR GREEK CAPITAL LETTER IOTA WITH TONOS
ENCODING 906
SWIDTH 640 0
DWIDTH 6 0
BBX 4 8 0 0
BITMAP
40
F0
20
20
20
20
20
70
ENDCHAR
STARTCHAR GREEK CAPITAL LETTER OMICRON WITH TONOS
ENCODING 908
SWIDTH 640 0
DWIDTH 6 0
BBX 5 8 0 0
BITMAP
40
B0
48
48
48
48
48
30
ENDCHAR
STARTCHAR GREEK CAPITAL LETTER UPSILON WITH TONOS
ENCODING 910
SWIDTH 640 0
DWIDTH 6 0
BBX 5 7 0 0
BITMAP
40
A8
28
28
10
10
10
ENDCHAR
STARTCHAR GREEK CAPITAL LETTER OMEGA WITH TONOS
ENCODING 911
SWIDTH 640 0
DWIDTH 6 0
BBX 5 8 0 0
BITMAP
40
F0
88
88
88
88
50
D8
ENDCHAR
STARTCHAR GREEK SMALL LETTER IOTA WITH DIALYTIKA AND TONOS
ENCODING 912
SWIDTH 640 0
DWIDTH 6 0
BBX 6 9 0 0
BITMAP
10
B4
20
00
20
20
20
20
20
ENDCHAR
STARTCHAR GREEK CAPITAL LETTER ALPHA
ENCODING 913
SWIDTH 640 0
DWIDTH 6 0
BBX 5 7 0 0
BITMAP
70
88
88
F8
88
88
88
ENDCHAR
STARTCHAR GREEK CAPITAL LETTER BETA
ENCODING 914
SWIDTH 640 0
DWIDTH 6 0
BBX 5 7 0 0
BITMAP
F0
88
88
F0
88
88
F0
ENDCHAR
STARTCHAR GREEK CAPITAL LETTER GAMMA
ENCODING 915
SWIDTH 640 0
DWIDTH 6 0
BBX 5 7 0 0
BITMAP
F8
80
80
80
80
80
80
ENDCHAR
STARTCHAR GREEK CAPITAL LETTER DELTA
ENCODING 916
SWIDTH 640 0
DWIDTH 6 0
BBX 5 7 0 0
BITMAP
20
20
50
50
50
88
F8
ENDCHAR
STARTCHAR GREEK CAPITAL LETTER EPSILON
ENCODING 917
SWIDTH 640 0
DWIDTH 6 0
BBX 5 7 0 0
BITMAP
F8
80
80
F0
80
80
F8
ENDCHAR
STARTCHAR GREEK CAPITAL LETTER ZETA
ENCODING 918
SWIDTH 640 0
DWIDTH 6 0
BBX 5 7 0 0
BITMAP
F8
08
10
20
40
80
F8
ENDCHAR
STARTCHAR GREEK CAPITAL LETTER ETA
ENCODING 919
SWIDTH 640 0
DWIDTH 6 0
BBX 5 7 0 0
BITMAP
88
88
88
F8
88
88
88
ENDCHAR
STARTCHAR GREEK CAPITAL LETTER THETA
ENCODING 920
SWIDTH 640 0
DWIDTH 6 0
BBX 5 7 0 0
BITMAP
70
88
88
F8
88
88
70
ENDCHAR
STARTCHAR GREEK CAPITAL LETTER IOTA
ENCODING 921
SWIDTH 640 0
DWIDTH 6 0
BBX 4 7 0 0
BITMAP
70
20
20
20
20
20
70
ENDCHAR
STARTCHAR GREEK CAPITAL LETTER KAPPA
ENCODING 922
SWIDTH 640 0
DWIDTH 6 0
BBX 5 7 0 0
BITMAP
88
90
A0
C0
A0
90
88
ENDCHAR
STARTCHAR GREEK CAPITAL LETTER LAMDA
ENCODING 923
SWIDTH 640 0
DWIDTH 6 0
BBX 5 7 0 0
BITMAP
20
20
50
50
50
88
88
ENDCHAR
STARTCHAR GREEK CAPITAL LETTER MU
ENCODING 924
SWIDTH 640 0
DWIDTH 6 0
BBX 5 7 0 0
BITMAP
88
D8
A8
88
88
88
88
ENDCHAR
STARTCHAR GREEK CAPITAL LETTER NU
ENCODING 925
SWIDTH 640 0
DWIDTH 6 0
BBX 5 6 0 0
BITMAP
C8
C8
A8
A8
98
98
ENDCHAR
STARTCHAR GREEK CAPITAL LETTER XI
ENCODING 926
SWIDTH 640 0
DWIDTH 6 0
BBX 5 7 0 0
BITMAP
F8
00
00
70
00
00
F8
ENDCHAR
STARTCHAR GREEK CAPITAL LETTER OMICRON
ENCODING 927
SWIDTH 640 0
DWIDTH 6 0
BBX 5 7 0 0
BITMAP
70
88
88
88
88
88
70
ENDCHAR
STARTCHAR GREEK CAPITAL LETTER PI
ENCODING 928
SWIDTH 640 0
DWIDTH 6 0
BBX 5 7 0 0
BITMAP
F8
88
88
88
88
88
88
ENDCHAR
STARTCHAR GREEK CAPITAL LETTER RHO
ENCODING 929
SWIDTH 640 0
DWIDTH 6 0
BBX 5 7 0 0
BITMAP
F0
88
88
F0
80
80
80
ENDCHAR
STARTCHAR GREEK CAPITAL LETTER SIGMA
ENCODING 931
SWIDTH 640 0
DWIDTH 6 0
BBX 5 7 0 0
BITMAP
F8
80
40
20
40
80
F8
ENDCHAR
STARTCHAR GREEK CAPITAL LETTER TAU
ENCODING 932
SWIDTH 640 0
DWIDTH 6 0
BBX 5 7 0 0
BITMAP
F8
20
20
20
20
20
20
ENDCHAR
STARTCHAR GREEK CAPITAL LETTER UPSILON
ENCODING 933
SWIDTH 640 0
DWIDTH 6 0
BBX 5 7 0 0
BITMAP
88
88
88
50
20
20
20
ENDCHAR
STARTCHAR GREEK CAPITAL LETTER PHI
ENCODING 934
SWIDTH 640 0
DWIDTH 6 0
BBX 5 7 0 0
BITMAP
20
70
A8
A8
A8
70
20
ENDCHAR
STARTCHAR GREEK CAPITAL LETTER CHI
ENCODING 935
SWIDTH 640 0
DWIDTH 6 0
BBX 5 7 0 0
BITMAP
88
88
50
20
50
88
88
ENDCHAR
STARTCHAR GREEK CAPITAL LETTER PSI
ENCODING 936
SWIDTH 640 0
DWIDTH 6 0
BBX 5 7 0 0
BITMAP
A8
A8
A8
70
20
20
20
ENDCHAR
STARTCHAR GREEK CAPITAL LETTER OMEGA
ENCODING 937
SWIDTH 640 0
DWIDTH 6 0
BBX 5 7 0 0
BITMAP
70
88
88
88
88
50
D8
ENDCHAR
STARTCHAR GREEK CAPITAL LETTER IOTA WITH DIALYTIKA
ENCODING 938
SWIDTH 640 0
DWIDTH 6 0
BBX 3 9 1 0
BITMAP
A0
00
40
40
40
40
40
40
40
ENDCHAR
STARTCHAR GREEK CAPITAL LETTER UPSILON WITH DIALYTIKA
ENCODING 939
SWIDTH 640 0
DWIDTH 6 0
BBX 5 9 0 0
BITMAP
50
00
88
88
88
50
20
20
20
ENDCHAR
STARTCHAR GREEK SMALL LETTER ALPHA WITH TONOS
ENCODING 940
SWIDTH 640 0
DWIDTH 6 0
BBX 5 8 0 0
BITMAP
10
20
00
78
88
88
88
78
ENDCHAR
STARTCHAR GREEK SMALL LETTER EPSILON WITH TONOS
ENCODING 941
SWIDTH 640 0
DWIDTH 6 0
BBX 4 8 0 0
BITMAP
20
40
00
70
80
E0
80
70
ENDCHAR
STARTCHAR GREEK SMALL LETTER ETA WITH TONOS
ENCODING 942
SWIDTH 640 0
DWIDTH 6 0
BBX 5 10 0 -2
BITMAP
20
40
00
B0
C8
88
88
88
08
08
ENDCHAR
STARTCHAR GREEK SMALL LETTER IOTA WITH TONOS
ENCODING 943
SWIDTH 640 0
DWIDTH 6 0
BBX 2 8 2 0
BITMAP
40
80
00
80
80
80
80
80
ENDCHAR
STARTCHAR GREEK SMALL LETTER UPSILON WITH DIALYTIKA AND TONOS
ENCODING 944
SWIDTH 640 0
DWIDTH 6 0
BBX 6 8 0 0
BITMAP
10
B4
20
88
88
88
98
68
ENDCHAR
STARTCHAR GREEK SMALL LETTER ALPHA
ENCODING 945
SWIDTH 640 0
DWIDTH 6 0
BBX 5 5 0 0
BITMAP
78
88
88
88
78
ENDCHAR
STARTCHAR GREEK SMALL LETTER BETA
ENCODING 946
SWIDTH 640 0
DWIDTH 6 0
BBX 4 9 0 -2
BITMAP
60
90
90
A0
90
D0
A0
80
80
ENDCHAR
STARTCHAR GREEK SMALL LETTER GAMMA
ENCODING 947
SWIDTH 640 0
DWIDTH 6 0
BBX 5 7 0 -2
BITMAP
88
88
50
50
20
20
20
ENDCHAR
STARTCHAR GREEK SMALL LETTER DELTA
ENCODING 948
SWIDTH 640 0
DWIDTH 6 0
BBX 5 8 0 0
BITMAP
F8
40
20
70
88
88
88
70
ENDCHAR
STARTCHAR GREEK SMALL LETTER EPSILON
ENCODING 949
SWIDTH 640 0
DWIDTH 6 0
BBX 4 5 0 0
BITMAP
70
80
E0
80
70
ENDCHAR
STARTCHAR GREEK SMALL LETTER ZETA
ENCODING 950
SWIDTH 640 0
DWIDTH 6 0
BBX 4 9 0 -2
BITMAP
F0
20
40
80
80
80
60
10
20
ENDCHAR
STARTCHAR GREEK SMALL LETTER ETA
ENCODING 951
SWIDTH 640 0
DWIDTH 6 0
BBX 5 7 0 -2
BITMAP
B0
C8
88
88
88
08
08
ENDCHAR
STARTCHAR GREEK SMALL LETTER THETA
ENCODING 952
SWIDTH 640 0
DWIDTH 6 0
BBX 4 7 0 0
BITMAP
60
90
90
F0
90
90
60
ENDCHAR
STARTCHAR GREEK SMALL LETTER IOTA
ENCODING 953
SWIDTH 640 0
DWIDTH 6 0
BBX 1 5 2 0
BITMAP
80
80
80
80
80
ENDCHAR
STARTCHAR GREEK SMALL LETTER KAPPA
ENCODING 954
SWIDTH 640 0
DWIDTH 6 0
BBX 5 5 0 0
BITMAP
88
90
E0
90
88
ENDCHAR
STARTCHAR GREEK SMALL LETTER LAMDA
ENCODING 955
SWIDTH 640 0
DWIDTH 6 0
BBX 5 8 0 0
BITMAP
40
40
20
20
50
50
88
88
ENDCHAR
STARTCHAR GREEK SMALL LETTER MU
ENCODING 956
SWIDTH 640 0
DWIDTH 6 0
BBX 5 7 0 -2
BITMAP
90
90
90
90
E8
80
80
ENDCHAR
STARTCHAR GREEK SMALL LETTER NU
ENCODING 957
SWIDTH 640 0
DWIDTH 6 0
BBX 5 5 0 0
BITMAP
88
88
50
50
20
ENDCHAR
STARTCHAR GREEK SMALL LETTER XI
ENCODING 958
SWIDTH 640 0
DWIDTH 6 0
BBX 4 9 0 -2
BITMAP
60
90
80
60
80
80
60
10
20
ENDCHAR
STARTCHAR GREEK SMALL LETTER OMICRON
ENCODING 959
SWIDTH 640 0
DWIDTH 6 0
BBX 5 5 0 0
BITMAP
70
88
88
88
70
ENDCHAR
STARTCHAR GREEK SMALL LETTER PI
ENCODING 960
SWIDTH 640 0
DWIDTH 6 0
BBX 5 5 0 0
BITMAP
F8
50
50
50
50
ENDCHAR
STARTCHAR GREEK SMALL LETTER RHO
ENCODING 961
SWIDTH 640 0
DWIDTH 6 0
BBX 5 7 0 -2
BITMAP
70
88
88
88
F0
80
80
ENDCHAR
STARTCHAR GREEK SMALL LETTER FINAL SIGMA
ENCODING 962
SWIDTH 640 0
DWIDTH 6 0
BBX 5 7 0 -2
BITMAP
70
88
80
80
70
08
30
ENDCHAR
STARTCHAR GREEK SMALL LETTER SIGMA
ENCODING 963
SWIDTH 640 0
DWIDTH 6 0
BBX 6 5 0 0
BITMAP
7C
88
88
88
70
ENDCHAR
STARTCHAR GREEK SMALL LETTER TAU
ENCODING 964
SWIDTH 640 0
DWIDTH 6 0
BBX 5 5 0 0
BITMAP
78
A0
20
20
10
ENDCHAR
STARTCHAR GREEK SMALL LETTER UPSILON
ENCODING 965
SWIDTH 640 0
DWIDTH 6 0
BBX 5 5 0 0
BITMAP
88
88
88
88
70
ENDCHAR
STARTCHAR GREEK SMALL LETTER PHI
ENCODING 966
SWIDTH 640 0
DWIDTH 6 0
BBX 5 7 0 -2
BITMAP
B0
A8
A8
A8
70
20
20
ENDCHAR
STARTCHAR GREEK SMALL LETTER CHI
ENCODING 967
SWIDTH 640 0
DWIDTH 6 0
BBX 5 7 0 -2
BITMAP
88
88
50
20
50
88
88
ENDCHAR
STARTCHAR GREEK SMALL LETTER PSI
ENCODING 968
SWIDTH 640 0
DWIDTH 6 0
BBX 5 7 0 -2
BITMAP
A8
A8
A8
70
20
20
20
ENDCHAR
STARTCHAR GREEK SMALL LETTER OMEGA
ENCODING 969
SWIDTH 640 0
DWIDTH 6 0
BBX 5 5 0 0
BITMAP
50
88
A8
A8
50
ENDCHAR
STARTCHAR GREEK SMALL LETTER IOTA WITH DIALYTIKA
ENCODING 970
SWIDTH 640 0
DWIDTH 6 0
BBX 4 7 0 0
BITMAP
50
00
20
20
20
20
20
ENDCHAR
STARTCHAR GREEK SMALL LETTER UPSILON WITH DIALYTIKA
ENCODING 971
SWIDTH 640 0
DWIDTH 6 0
BBX 5 7 0 0
BITMAP
50
00
88
88
88
88
70
ENDCHAR
STARTCHAR GREEK SMALL LETTER OMICRON WITH TONOS
ENCODING 972
SWIDTH 640 0
DWIDTH 6 0
BBX 5 8 0 0
BITMAP
20
40
00
70
88
88
88
70
ENDCHAR
STARTCHAR GREEK SMALL LETTER UPSILON WITH TONOS
ENCODING 973
SWIDTH 640 0
DWIDTH 6 0
BBX 5 8 0 0
BITMAP
20
40
00
88
88
88
88
70
ENDCHAR
STARTCHAR GREEK SMALL LETTER OMEGA WITH TONOS
ENCODING 974
SWIDTH 640 0
DWIDTH 6 0
BBX 5 8 0 0
BITMAP
20
40
00
50
88
A8
A8
50
ENDCHAR
STARTCHAR GREEK CAPITAL KAI SYMBOL
ENCODING 975
SWIDTH 640 0
DWIDTH 6 0
BBX 5 8 0 -1
BITMAP
88
90
A0
C0
A0
90
88
10
ENDCHAR
STARTCHAR GREEK BETA SYMBOL
ENCODING 976
SWIDTH 640 0
DWIDTH 6 0
BBX 4 7 0 0
BITMAP
60
90
A0
E0
90
90
60
ENDCHAR
STARTCHAR GREEK THETA SYMBOL
ENCODING 977
SWIDTH 640 0
DWIDTH 6 0
BBX 6 7 0 0
BITMAP
30
48
48
3C
C8
48
30
ENDCHAR
STARTCHAR GREEK UPSILON WITH HOOK SYMBOL
ENCODING 978
SWIDTH 640 0
DWIDTH 6 0
BBX 6 7 0 0
BITMAP
88
8C
88
50
20
20
20
ENDCHAR
STARTCHAR GREEK UPSILON WITH ACUTE AND HOOK SYMBOL
ENCODING 979
SWIDTH 640 0
DWIDTH 6 0
BBX 6 8 0 0
BITMAP
40
88
8C
88
50
20
20
20
ENDCHAR
STARTCHAR GREEK UPSILON WITH DIAERESIS AND HOOK SYMBOL
ENCODING 980
SWIDTH 640 0
DWIDTH 6 0
BBX 6 9 0 0
BITMAP
50
00
88
8C
88
50
20
20
20
ENDCHAR
STARTCHAR GREEK PHI SYMBOL
ENCODING 981
SWIDTH 640 0
DWIDTH 6 0
BBX 5 9 0 -2
BITMAP
20
20
70
A8
A8
A8
70
20
20
ENDCHAR
STARTCHAR GREEK PI SYMBOL
ENCODING 982
SWIDTH 640 0
DWIDTH 6 0
BBX 5 5 0 0
BITMAP
F8
88
A8
A8
50
ENDCHAR
STARTCHAR GREEK KAI SYMBOL
ENCODING 983
SWIDTH 640 0
DWIDTH 6 0
BBX 6 7 0 -2
BITMAP
88
50
70
50
8C
04
08
ENDCHAR
STARTCHAR GREEK LETTER ARCHAIC KOPPA
ENCODING 984
SWIDTH 640 0
DWIDTH 6 0
BBX 5 9 0 -2
BITMAP
70
88
88
88
88
88
70
20
20
ENDCHAR
STARTCHAR GREEK SMALL LETTER ARCHAIC KOPPA
ENCODING 985
SWIDTH 640 0
DWIDTH 6 0
BBX 5 7 0 -2
BITMAP
70
88
88
88
70
20
20
ENDCHAR
STARTCHAR GREEK LETTER STIGMA
ENCODING 986
SWIDTH 640 0
DWIDTH 6 0
BBX 5 9 0 -2
BITMAP
70
88
80
80
80
80
70
08
30
ENDCHAR
STARTCHAR GREEK SMALL LETTER STIGMA
ENCODING 987
SWIDTH 640 0
DWIDTH 6 0
BBX 5 7 0 -2
BITMAP
70
88
80
80
70
08
30
ENDCHAR
STARTCHAR GREEK LETTER DIGAMMA
ENCODING 988
SWIDTH 640 0
DWIDTH 6 0
BBX 5 7 0 0
BITMAP
F8
80
80
F0
90
80
80
ENDCHAR
STARTCHAR GREEK SMALL LETTER DIGAMMA
ENCODING 989
SWIDTH 640 0
DWIDTH 6 0
BBX 4 7 0 -2
BITMAP
F0
80
E0
A0
80
80
80
ENDCHAR
STARTCHAR GREEK LETTER KOPPA
ENCODING 990
SWIDTH 640 0
DWIDTH 6 0
BBX 6 8 0 -2
BITMAP
80
40
48
58
68
48
08
04
ENDCHAR
STARTCHAR GREEK SMALL LETTER KOPPA
ENCODING 991
SWIDTH 640 0
DWIDTH 6 0
BBX 4 7 0 -1
BITMAP
20
40
80
F0
10
20
40
ENDCHAR
STARTCHAR GREEK LETTER SAMPI
ENCODING 992
SWIDTH 640 0
DWIDTH 6 0
BBX 4 9 0 -2
BITMAP
80
40
20
60
90
30
50
10
10
ENDCHAR
STARTCHAR GREEK SMALL LETTER SAMPI
ENCODING 993
SWIDTH 640 0
DWIDTH 6 0
BBX 4 9 0 -2
BITMAP
80
40
20
60
90
30
50
10
10
ENDCHAR
STARTCHAR COPTIC CAPITAL LETTER SHEI
ENCODING 994
SWIDTH 640 0
DWIDTH 6 0
BBX 5 9 0 -2
BITMAP
A8
A8
A8
A8
A8
A8
58
08
F0
ENDCHAR
STARTCHAR COPTIC SMALL LETTER SHEI
ENCODING 995
SWIDTH 640 0
DWIDTH 6 0
BBX 5 7 0 -2
BITMAP
A8
A8
A8
A8
58
08
F0
ENDCHAR
STARTCHAR COPTIC CAPITAL LETTER FEI
ENCODING 996
SWIDTH 640 0
DWIDTH 6 0
BBX 5 7 0 0
BITMAP
68
88
88
78
08
08
08
ENDCHAR
STARTCHAR COPTIC SMALL LETTER FEI
ENCODING 997
SWIDTH 640 0
DWIDTH 6 0
BBX 4 6 0 0
BITMAP
50
90
90
70
10
10
ENDCHAR
STARTCHAR COPTIC CAPITAL LETTER KHEI
ENCODING 998
SWIDTH 640 0
DWIDTH 6 0
BBX 5 9 0 -2
BITMAP
80
80
80
F0
88
88
88
08
F0
ENDCHAR
STARTCHAR COPTIC SMALL LETTER KHEI
ENCODING 999
SWIDTH 640 0
DWIDTH 6 0
BBX 5 7 0 -1
BITMAP
10
70
A8
48
08
70
80
ENDCHAR
STARTCHAR COPTIC CAPITAL LETTER HORI
ENCODING 1000
SWIDTH 640 0
DWIDTH 6 0
BBX 5 7 0 0
BITMAP
70
88
08
70
80
88
70
ENDCHAR
STARTCHAR COPTIC SMALL LETTER HORI
ENCODING 1001
SWIDTH 640 0
DWIDTH 6 0
BBX 5 7 0 0
BITMAP
70
88
08
70
80
80
78
ENDCHAR
STARTCHAR COPTIC CAPITAL LETTER GANGIA
ENCODING 1002
SWIDTH 640 0
DWIDTH 6 0
BBX 5 7 0 0
BITMAP
50
A8
20
50
50
88
F8
ENDCHAR
STARTCHAR COPTIC SMALL LETTER GANGIA
ENCODING 1003
SWIDTH 640 0
DWIDTH 6 0
BBX 5 5 0 0
BITMAP
50
A8
20
50
70
ENDCHAR
STARTCHAR COPTIC CAPITAL LETTER SHIMA
ENCODING 1004
SWIDTH 640 0
DWIDTH 6 0
BBX 5 8 0 0
BITMAP
78
80
F0
88
88
88
88
70
ENDCHAR
STARTCHAR COPTIC SMALL LETTER SHIMA
ENCODING 1005
SWIDTH 640 0
DWIDTH 6 0
BBX 5 7 0 0
BITMAP
70
80
B0
88
88
88
70
ENDCHAR
STARTCHAR COPTIC CAPITAL LETTER DEI
ENCODING 1006
SWIDTH 640 0
DWIDTH 6 0
BBX 5 7 0 0
BITMAP
20
70
A8
20
20
20
20
ENDCHAR
STARTCHAR COPTIC SMALL LETTER DEI
ENCODING 1007
SWIDTH 640 0
DWIDTH 6 0
BBX 5 7 0 0
BITMAP
30
20
F8
A0
20
20
60
ENDCHAR
STARTCHAR GREEK KAPPA SYMBOL
ENCODING 1008
SWIDTH 640 0
DWIDTH 6 0
BBX 5 5 0 0
BITMAP
C8
50
70
50
98
ENDCHAR
STARTCHAR GREEK RHO SYMBOL
ENCODING 1009
SWIDTH 640 0
DWIDTH 6 0
BBX 5 8 0 -3
BITMAP
70
88
88
88
F0
80
70
08
ENDCHAR
STARTCHAR GREEK LUNATE SIGMA SYMBOL
ENCODING 1010
SWIDTH 640 0
DWIDTH 6 0
BBX 5 5 0 0
BITMAP
70
88
80
88
70
ENDCHAR
STARTCHAR GREEK LETTER YOT
ENCODING 1011
SWIDTH 640 0
DWIDTH 6 0
BBX 3 9 0 -2
BITMAP
20
00
20
20
20
20
20
20
C0
ENDCHAR
STARTCHAR GREEK CAPITAL THETA SYMBOL
ENCODING 1012
SWIDTH 640 0
DWIDTH 6 0
BBX 5 7 0 0
BITMAP
70
88
88
F8
88
88
70
ENDCHAR
STARTCHAR GREEK LUNATE EPSILON SYMBOL
ENCODING 1013
SWIDTH 640 0
DWIDTH 6 0
BBX 4 5 0 0
BITMAP
70
80
E0
80
70
ENDCHAR
STARTCHAR GREEK REVERSED LUNATE EPSILON SYMBOL
ENCODING 1014
SWIDTH 640 0
DWIDTH 6 0
BBX 4 5 0 0
BITMAP
E0
10
70
10
E0
ENDCHAR
STARTCHAR GREEK CAPITAL LETTER SHO
ENCODING 1015
SWIDTH 640 0
DWIDTH 6 0
BBX 5 7 0 0
BITMAP
80
F0
88
88
88
F0
80
ENDCHAR
STARTCHAR GREEK SMALL LETTER SHO
ENCODING 1016
SWIDTH 640 0
DWIDTH 6 0
BBX 5 9 0 -2
BITMAP
80
80
F0
88
88
88
F0
80
80
ENDCHAR
STARTCHAR GREEK CAPITAL LUNATE SIGMA SYMBOL
ENCODING 1017
SWIDTH 640 0
DWIDTH 6 0
BBX 5 7 0 0
BITMAP
70
88
80
80
80
88
70
ENDCHAR
STARTCHAR GREEK CAPITAL LETTER SAN
ENCODING 1018
SWIDTH 640 0
DWIDTH 6 0
BBX 5 7 0 0
BITMAP
88
D8
A8
88
88
88
88
ENDCHAR
STARTCHAR GREEK SMALL LETTER SAN
ENCODING 1019
SWIDTH 640 0
DWIDTH 6 0
BBX 5 6 0 -2
BITMAP
88
D8
A8
A8
80
80
ENDCHAR
STARTCHAR GREEK RHO WITH STROKE SYMBOL
ENCODING 1020
SWIDTH 640 0
DWIDTH 6 0
BBX 5 8 0 -3
BITMAP
70
88
88
88
F0
80
C0
80
ENDCHAR
STARTCHAR GREEK CAPITAL REVERSED LUNATE SIGMA SYMBOL
ENCODING 1021
SWIDTH 640 0
DWIDTH 6 0
BBX 5 7 0 0
BITMAP
70
88
08
08
08
88
70
ENDCHAR
STARTCHAR GREEK CAPITAL DOTTED LUNATE SIGMA SYMBOL
ENCODING 1022
SWIDTH 640 0
DWIDTH 6 0
BBX 5 7 0 0
BITMAP
70
88
80
A0
80
88
70
ENDCHAR
STARTCHAR GREEK CAPITAL REVERSED DOTTED LUNATE SIGMA SYMBOL
ENCODING 1023
SWIDTH 640 0
DWIDTH 6 0
BBX 5 7 0 0
BITMAP
70
88
08
28
08
88
70
ENDCHAR
STARTCHAR CYRILLIC CAPITAL LETTER IE WITH GRAVE
ENCODING 1024
SWIDTH 640 0
DWIDTH 6 0
BBX 5 9 0 0
BITMAP
40
20
F8
80
80
F0
80
80
F8
ENDCHAR
STARTCHAR CYRILLIC CAPITAL LETTER IO
ENCODING 1025
SWIDTH 640 0
DWIDTH 6 0
BBX 5 9 0 0
BITMAP
50
00
F8
80
80
F0
80
80
F8
ENDCHAR
STARTCHAR CYRILLIC CAPITAL LETTER DJE
ENCODING 1026
SWIDTH 640 0
DWIDTH 6 0
BBX 5 8 0 -1
BITMAP
F0
40
70
48
48
48
48
10
ENDCHAR
STARTCHAR CYRILLIC CAPITAL LETTER GJE
ENCODING 1027
SWIDTH 640 0
DWIDTH 6 0
BBX 4 9 1 0
BITMAP
20
40
F0
80
80
80
80
80
80
ENDCHAR
STARTCHAR CYRILLIC CAPITAL LETTER UKRAINIAN IE
ENCODING 1028
SWIDTH 640 0
DWIDTH 6 0
BBX 5 7 0 0
BITMAP
70
88
80
E0
80
88
70
ENDCHAR
STARTCHAR CYRILLIC CAPITAL LETTER DZE
ENCODING 1029
SWIDTH 640 0
DWIDTH 6 0
BBX 5 7 0 0
BITMAP
70
88
80
70
08
88
70
ENDCHAR
STARTCHAR CYRILLIC CAPITAL LETTER BYELORUSSIAN-UKRAINIAN I
ENCODING 1030
SWIDTH 640 0
DWIDTH 6 0
BBX 1 7 2 0
BITMAP
80
80
80
80
80
80
80
ENDCHAR
STARTCHAR CYRILLIC CAPITAL LETTER YI
ENCODING 1031
SWIDTH 640 0
DWIDTH 6 0
BBX 3 9 1 0
BITMAP
A0
00
40
40
40
40
40
40
40
ENDCHAR
STARTCHAR CYRILLIC CAPITAL LETTER JE
ENCODING 1032
SWIDTH 640 0
DWIDTH 6 0
BBX 5 7 0 0
BITMAP
08
08
08
08
88
88
70
ENDCHAR
STARTCHAR CYRILLIC CAPITAL LETTER LJE
ENCODING 1033
SWIDTH 640 0
DWIDTH 6 0
BBX 6 7 0 0
BITMAP
30
50
50
58
54
54
98
ENDCHAR
STARTCHAR CYRILLIC CAPITAL LETTER NJE
ENCODING 1034
SWIDTH 640 0
DWIDTH 6 0
BBX 5 7 0 0
BITMAP
A0
A0
A0
F0
A8
A8
B0
ENDCHAR
STARTCHAR CYRILLIC CAPITAL LETTER TSHE
ENCODING 1035
SWIDTH 640 0
DWIDTH 6 0
BBX 5 7 0 0
BITMAP
F0
40
70
48
48
48
48
ENDCHAR
STARTCHAR CYRILLIC CAPITAL LETTER KJE
ENCODING 1036
SWIDTH 640 0
DWIDTH 6 0
BBX 5 9 0 0
BITMAP
10
20
88
90
A0
C0
A0
90
88
ENDCHAR
STARTCHAR CYRILLIC CAPITAL LETTER I WITH GRAVE
ENCODING 1037
SWIDTH 640 0
DWIDTH 6 0
BBX 5 9 0 0
BITMAP
40
20
98
98
A8
A8
A8
C8
C8
ENDCHAR
STARTCHAR CYRILLIC CAPITAL LETTER SHORT U
ENCODING 1038
SWIDTH 640 0
DWIDTH 6 0
BBX 5 9 0 0
BITMAP
50
20
88
88
88
78
08
88
70
ENDCHAR
STARTCHAR CYRILLIC CAPITAL LETTER DZHE
ENCODING 1039
SWIDTH 640 0
DWIDTH 6 0
BBX 5 9 0 -2
BITMAP
88
88
88
88
88
88
F8
20
20
ENDCHAR
STARTCHAR CYRILLIC CAPITAL LETTER A
ENCODING 1040
SWIDTH 640 0
DWIDTH 6 0
BBX 5 7 0 0
BITMAP
70
88
88
F8
88
88
88
ENDCHAR
STARTCHAR CYRILLIC CAPITAL LETTER BE
ENCODING 1041
SWIDTH 640 0
DWIDTH 6 0
BBX 5 7 0 0
BITMAP
F0
80
80
F0
88
88
F0
ENDCHAR
STARTCHAR CYRILLIC CAPITAL LETTER VE
ENCODING 1042
SWIDTH 640 0
DWIDTH 6 0
BBX 5 7 0 0
BITMAP
F0
88
88
F0
88
88
F0
ENDCHAR
STARTCHAR CYRILLIC CAPITAL LETTER GHE
ENCODING 1043
SWIDTH 640 0
DWIDTH 6 0
BBX 4 7 1 0
BITMAP
F0
80
80
80
80
80
80
ENDCHAR
STARTCHAR CYRILLIC CAPITAL LETTER DE
ENCODING 1044
SWIDTH 640 0
DWIDTH 6 0
BBX 6 9 0 -2
BITMAP
38
48
48
48
48
48
FC
84
84
ENDCHAR
STARTCHAR CYRILLIC CAPITAL LETTER IE
ENCODING 1045
SWIDTH 640 0
DWIDTH 6 0
BBX 5 7 0 0
BITMAP
F8
80
80
F0
80
80
F8
ENDCHAR
STARTCHAR CYRILLIC CAPITAL LETTER ZHE
ENCODING 1046
SWIDTH 640 0
DWIDTH 6 0
BBX 5 7 0 0
BITMAP
A8
A8
A8
70
A8
A8
A8
ENDCHAR
STARTCHAR CYRILLIC CAPITAL LETTER ZE
ENCODING 1047
SWIDTH 640 0
DWIDTH 6 0
BBX 5 7 0 0
BITMAP
70
88
08
30
08
88
70
ENDCHAR
STARTCHAR CYRILLIC CAPITAL LETTER I
ENCODING 1048
SWIDTH 640 0
DWIDTH 6 0
BBX 5 7 0 0
BITMAP
98
98
A8
A8
A8
C8
C8
ENDCHAR
STARTCHAR CYRILLIC CAPITAL LETTER SHORT I
ENCODING 1049
SWIDTH 640 0
DWIDTH 6 0
BBX 5 9 0 0
BITMAP
50
20
98
98
A8
A8
A8
C8
C8
ENDCHAR
STARTCHAR CYRILLIC CAPITAL LETTER KA
ENCODING 1050
SWIDTH 640 0
DWIDTH 6 0
BBX 5 7 0 0
BITMAP
88
90
A0
C0
A0
90
88
ENDCHAR
STARTCHAR CYRILLIC CAPITAL LETTER EL
ENCODING 1051
SWIDTH 640 0
DWIDTH 6 0
BBX 5 7 0 0
BITMAP
38
48
48
48
48
48
88
ENDCHAR
STARTCHAR CYRILLIC CAPITAL LETTER EM
ENCODING 1052
SWIDTH 640 0
DWIDTH 6 0
BBX 5 7 0 0
BITMAP
88
D8
A8
88
88
88
88
ENDCHAR
STARTCHAR CYRILLIC CAPITAL LETTER EN
ENCODING 1053
SWIDTH 640 0
DWIDTH 6 0
BBX 5 7 0 0
BITMAP
88
88
88
F8
88
88
88
ENDCHAR
STARTCHAR CYRILLIC CAPITAL LETTER O
ENCODING 1054
SWIDTH 640 0
DWIDTH 6 0
BBX 5 7 0 0
BITMAP
70
88
88
88
88
88
70
ENDCHAR
STARTCHAR CYRILLIC CAPITAL LETTER PE
ENCODING 1055
SWIDTH 640 0
DWIDTH 6 0
BBX 5 7 0 0
BITMAP
F8
88
88
88
88
88
88
ENDCHAR
STARTCHAR CYRILLIC CAPITAL LETTER ER
ENCODING 1056
SWIDTH 640 0
DWIDTH 6 0
BBX 5 7 0 0
BITMAP
F0
88
88
F0
80
80
80
ENDCHAR
STARTCHAR CYRILLIC CAPITAL LETTER ES
ENCODING 1057
SWIDTH 640 0
DWIDTH 6 0
BBX 5 7 0 0
BITMAP
70
88
80
80
80
88
70
ENDCHAR
STARTCHAR CYRILLIC CAPITAL LETTER TE
ENCODING 1058
SWIDTH 640 0
DWIDTH 6 0
BBX 5 7 0 0
BITMAP
F8
20
20
20
20
20
20
ENDCHAR
STARTCHAR CYRILLIC CAPITAL LETTER U
ENCODING 1059
SWIDTH 640 0
DWIDTH 6 0
BBX 5 7 0 0
BITMAP
88
88
88
78
08
88
70
ENDCHAR
STARTCHAR CYRILLIC CAPITAL LETTER EF
ENCODING 1060
SWIDTH 640 0
DWIDTH 6 0
BBX 5 7 0 0
BITMAP
20
70
A8
A8
A8
70
20
ENDCHAR
STARTCHAR CYRILLIC CAPITAL LETTER HA
ENCODING 1061
SWIDTH 640 0
DWIDTH 6 0
BBX 5 7 0 0
BITMAP
88
88
50
20
50
88
88
ENDCHAR
STARTCHAR CYRILLIC CAPITAL LETTER TSE
ENCODING 1062
SWIDTH 640 0
DWIDTH 6 0
BBX 6 9 0 -2
BITMAP
88
88
88
88
88
88
FC
04
04
ENDCHAR
STARTCHAR CYRILLIC CAPITAL LETTER CHE
ENCODING 1063
SWIDTH 640 0
DWIDTH 6 0
BBX 5 7 0 0
BITMAP
88
88
88
78
08
08
08
ENDCHAR
STARTCHAR CYRILLIC CAPITAL LETTER SHA
ENCODING 1064
SWIDTH 640 0
DWIDTH 6 0
BBX 5 7 0 0
BITMAP
A8
A8
A8
A8
A8
A8
F8
ENDCHAR
STARTCHAR CYRILLIC CAPITAL LETTER SHCHA
ENCODING 1065
SWIDTH 640 0
DWIDTH 6 0
BBX 6 9 0 -2
BITMAP
A8
A8
A8
A8
A8
A8
FC
04
04
ENDCHAR
STARTCHAR CYRILLIC CAPITAL LETTER HARD SIGN
ENCODING 1066
SWIDTH 640 0
DWIDTH 6 0
BBX 5 7 0 0
BITMAP
C0
40
40
70
48
48
70
ENDCHAR
STARTCHAR CYRILLIC CAPITAL LETTER YERU
ENCODING 1067
SWIDTH 640 0
DWIDTH 6 0
BBX 5 7 0 0
BITMAP
88
88
88
E8
98
98
E8
ENDCHAR
STARTCHAR CYRILLIC CAPITAL LETTER SOFT SIGN
ENCODING 1068
SWIDTH 640 0
DWIDTH 6 0
BBX 5 7 0 0
BITMAP
80
80
80
F0
88
88
F0
ENDCHAR
STARTCHAR CYRILLIC CAPITAL LETTER E
ENCODING 1069
SWIDTH 640 0
DWIDTH 6 0
BBX 5 7 0 0
BITMAP
70
88
08
78
08
88
70
ENDCHAR
STARTCHAR CYRILLIC CAPITAL LETTER YU
ENCODING 1070
SWIDTH 640 0
DWIDTH 6 0
BBX 5 7 0 0
BITMAP
90
A8
A8
E8
A8
A8
90
ENDCHAR
STARTCHAR CYRILLIC CAPITAL LETTER YA
ENCODING 1071
SWIDTH 640 0
DWIDTH 6 0
BBX 5 7 0 0
BITMAP
38
48
48
38
28
48
88
ENDCHAR
STARTCHAR CYRILLIC SMALL LETTER A
ENCODING 1072
SWIDTH 640 0
DWIDTH 6 0
BBX 5 5 0 0
BITMAP
78
88
88
98
68
ENDCHAR
STARTCHAR CYRILLIC SMALL LETTER BE
ENCODING 1073
SWIDTH 640 0
DWIDTH 6 0
BBX 5 8 0 0
BITMAP
08
70
80
F0
88
88
88
70
ENDCHAR
STARTCHAR CYRILLIC SMALL LETTER VE
ENCODING 1074
SWIDTH 640 0
DWIDTH 6 0
BBX 5 5 0 0
BITMAP
F0
88
F0
88
F0
ENDCHAR
STARTCHAR CYRILLIC SMALL LETTER GHE
ENCODING 1075
SWIDTH 640 0
DWIDTH 6 0
BBX 4 5 1 0
BITMAP
F0
80
80
80
80
ENDCHAR
STARTCHAR CYRILLIC SMALL LETTER DE
ENCODING 1076
SWIDTH 640 0
DWIDTH 6 0
BBX 6 7 0 -2
BITMAP
38
48
48
48
FC
84
84
ENDCHAR
STARTCHAR CYRILLIC SMALL LETTER IE
ENCODING 1077
SWIDTH 640 0
DWIDTH 6 0
BBX 5 5 0 0
BITMAP
70
88
F8
80
78
ENDCHAR
STARTCHAR CYRILLIC SMALL LETTER ZHE
ENCODING 1078
SWIDTH 640 0
DWIDTH 6 0
BBX 5 5 0 0
BITMAP
A8
A8
70
A8
A8
ENDCHAR
STARTCHAR CYRILLIC SMALL LETTER ZE
ENCODING 1079
SWIDTH 640 0
DWIDTH 6 0
BBX 5 5 0 0
BITMAP
70
88
30
88
70
ENDCHAR
STARTCHAR CYRILLIC SMALL LETTER I
ENCODING 1080
SWIDTH 640 0
DWIDTH 6 0
BBX 5 5 0 0
BITMAP
88
98
A8
C8
88
ENDCHAR
STARTCHAR CYRILLIC SMALL LETTER SHORT I
ENCODING 1081
SWIDTH 640 0
DWIDTH 6 0
BBX 5 7 0 0
BITMAP
50
20
88
98
A8
C8
88
ENDCHAR
STARTCHAR CYRILLIC SMALL LETTER KA
ENCODING 1082
SWIDTH 640 0
DWIDTH 6 0
BBX 5 5 0 0
BITMAP
88
90
E0
90
88
ENDCHAR
STARTCHAR CYRILLIC SMALL LETTER EL
ENCODING 1083
SWIDTH 640 0
DWIDTH 6 0
BBX 5 5 0 0
BITMAP
38
48
48
48
88
ENDCHAR
STARTCHAR CYRILLIC SMALL LETTER EM
ENCODING 1084
SWIDTH 640 0
DWIDTH 6 0
BBX 5 5 0 0
BITMAP
88
D8
A8
88
88
ENDCHAR
STARTCHAR CYRILLIC SMALL LETTER EN
ENCODING 1085
SWIDTH 640 0
DWIDTH 6 0
BBX 5 5 0 0
BITMAP
88
88
F8
88
88
ENDCHAR
STARTCHAR CYRILLIC SMALL LETTER O
ENCODING 1086
SWIDTH 640 0
DWIDTH 6 0
BBX 5 5 0 0
BITMAP
70
88
88
88
70
ENDCHAR
STARTCHAR CYRILLIC SMALL LETTER PE
ENCODING 1087
SWIDTH 640 0
DWIDTH 6 0
BBX 5 5 0 0
BITMAP
F8
88
88
88
88
ENDCHAR
STARTCHAR CYRILLIC SMALL LETTER ER
ENCODING 1088
SWIDTH 640 0
DWIDTH 6 0
BBX 5 7 0 -2
BITMAP
F0
88
88
88
F0
80
80
ENDCHAR
STARTCHAR CYRILLIC SMALL LETTER ES
ENCODING 1089
SWIDTH 640 0
DWIDTH 6 0
BBX 5 5 0 0
BITMAP
70
88
80
88
70
ENDCHAR
STARTCHAR CYRILLIC SMALL LETTER TE
ENCODING 1090
SWIDTH 640 0
DWIDTH 6 0
BBX 5 5 0 0
BITMAP
F8
20
20
20
20
ENDCHAR
STARTCHAR CYRILLIC SMALL LETTER U
ENCODING 1091
SWIDTH 640 0
DWIDTH 6 0
BBX 5 7 0 -2
BITMAP
88
88
88
88
78
08
70
ENDCHAR
STARTCHAR CYRILLIC SMALL LETTER EF
ENCODING 1092
SWIDTH 640 0
DWIDTH 6 0
BBX 5 9 0 -2
BITMAP
20
20
70
A8
A8
A8
70
20
20
ENDCHAR
STARTCHAR CYRILLIC SMALL LETTER HA
ENCODING 1093
SWIDTH 640 0
DWIDTH 6 0
BBX 5 5 0 0
BITMAP
88
50
20
50
88
ENDCHAR
STARTCHAR CYRILLIC SMALL LETTER TSE
ENCODING 1094
SWIDTH 640 0
DWIDTH 6 0
BBX 6 7 0 -2
BITMAP
88
88
88
88
FC
04
04
ENDCHAR
STARTCHAR CYRILLIC SMALL LETTER CHE
ENCODING 1095
SWIDTH 640 0
DWIDTH 6 0
BBX 5 5 0 0
BITMAP
88
88
78
08
08
ENDCHAR
STARTCHAR CYRILLIC SMALL LETTER SHA
ENCODING 1096
SWIDTH 640 0
DWIDTH 6 0
BBX 5 5 0 0
BITMAP
A8
A8
A8
A8
F8
ENDCHAR
STARTCHAR CYRILLIC SMALL LETTER SHCHA
ENCODING 1097
SWIDTH 640 0
DWIDTH 6 0
BBX 6 7 0 -2
BITMAP
A8
A8
A8
A8
FC
04
04
ENDCHAR
STARTCHAR CYRILLIC SMALL LETTER HARD SIGN
ENCODING 1098
SWIDTH 640 0
DWIDTH 6 0
BBX 5 5 0 0
BITMAP
C0
40
70
48
70
ENDCHAR
STARTCHAR CYRILLIC SMALL LETTER YERU
ENCODING 1099
SWIDTH 640 0
DWIDTH 6 0
BBX 5 5 0 0
BITMAP
88
88
E8
98
E8
ENDCHAR
STARTCHAR CYRILLIC SMALL LETTER SOFT SIGN
ENCODING 1100
SWIDTH 640 0
DWIDTH 6 0
BBX 5 5 0 0
BITMAP
80
80
F0
88
F0
ENDCHAR
STARTCHAR CYRILLIC SMALL LETTER E
ENCODING 1101
SWIDTH 640 0
DWIDTH 6 0
BBX 5 5 0 0
BITMAP
F0
08
78
08
F0
ENDCHAR
STARTCHAR CYRILLIC SMALL LETTER YU
ENCODING 1102
SWIDTH 640 0
DWIDTH 6 0
BBX 5 5 0 0
BITMAP
90
A8
E8
A8
90
ENDCHAR
STARTCHAR CYRILLIC SMALL LETTER YA
ENCODING 1103
SWIDTH 640 0
DWIDTH 6 0
BBX 5 5 0 0
BITMAP
78
88
78
48
88
ENDCHAR
STARTCHAR CYRILLIC SMALL LETTER IE WITH GRAVE
ENCODING 1104
SWIDTH 640 0
DWIDTH 6 0
BBX 5 8 0 0
BITMAP
40
20
00
70
88
F8
80
78
ENDCHAR
STARTCHAR CYRILLIC SMALL LETTER IO
ENCODING 1105
SWIDTH 640 0
DWIDTH 6 0
BBX 5 7 0 0
BITMAP
50
00
70
88
F8
80
78
ENDCHAR
STARTCHAR CYRILLIC SMALL LETTER DJE
ENCODING 1106
SWIDTH 640 0
DWIDTH 6 0
BBX 5 8 0 -1
BITMAP
40
40
F0
40
70
48
48
10
ENDCHAR
STARTCHAR CYRILLIC SMALL LETTER GJE
ENCODING 1107
SWIDTH 640 0
DWIDTH 6 0
BBX 4 8 1 0
BITMAP
20
40
00
F0
80
80
80
80
ENDCHAR
STARTCHAR CYRILLIC SMALL LETTER UKRAINIAN IE
ENCODING 1108
SWIDTH 640 0
DWIDTH 6 0
BBX 5 5 0 0
BITMAP
70
88
E0
80
78
ENDCHAR
STARTCHAR CYRILLIC SMALL LETTER DZE
ENCODING 1109
SWIDTH 640 0
DWIDTH 6 0
BBX 5 5 0 0
BITMAP
78
80
70
08
F0
ENDCHAR
STARTCHAR CYRILLIC SMALL LETTER BYELORUSSIAN-UKRAINIAN I
ENCODING 1110
SWIDTH 640 0
DWIDTH 6 0
BBX 1 7 2 0
BITMAP
80
00
80
80
80
80
80
ENDCHAR
STARTCHAR CYRILLIC SMALL LETTER YI
ENCODING 1111
SWIDTH 640 0
DWIDTH 6 0
BBX 3 7 1 0
BITMAP
A0
00
40
40
40
40
40
ENDCHAR
STARTCHAR CYRILLIC SMALL LETTER JE
ENCODING 1112
SWIDTH 640 0
DWIDTH 6 0
BBX 3 9 0 -2
BITMAP
20
00
20
20
20
20
20
20
C0
ENDCHAR
STARTCHAR CYRILLIC SMALL LETTER LJE
ENCODING 1113
SWIDTH 640 0
DWIDTH 6 0
BBX 6 5 0 0
BITMAP
30
50
58
54
98
ENDCHAR
STARTCHAR CYRILLIC SMALL LETTER NJE
ENCODING 1114
SWIDTH 640 0
DWIDTH 6 0
BBX 5 5 0 0
BITMAP
A0
A0
F0
A8
B0
ENDCHAR
STARTCHAR CYRILLIC SMALL LETTER TSHE
ENCODING 1115
SWIDTH 640 0
DWIDTH 6 0
BBX 5 7 0 0
BITMAP
40
40
F0
40
70
48
48
ENDCHAR
STARTCHAR CYRILLIC SMALL LETTER KJE
ENCODING 1116
SWIDTH 640 0
DWIDTH 6 0
BBX 5 8 0 0
BITMAP
10
20
00
88
90
E0
90
88
ENDCHAR
STARTCHAR CYRILLIC SMALL LETTER I WITH GRAVE
ENCODING 1117
SWIDTH 533 0
DWIDTH 5 0
BBX 5 8 0 0
BITMAP
40
20
00
88
98
A8
C8
88
ENDCHAR
STARTCHAR CYRILLIC SMALL LETTER SHORT U
ENCODING 1118
SWIDTH 640 0
DWIDTH 6 0
BBX 5 9 0 -2
BITMAP
50
20
88
88
88
88
78
08
70
ENDCHAR
STARTCHAR CYRILLIC SMALL LETTER DZHE
ENCODING 1119
SWIDTH 640 0
DWIDTH 6 0
BBX 5 7 0 -2
BITMAP
88
88
88
88
F8
20
20
ENDCHAR
STARTCHAR CYRILLIC CAPITAL LETTER OMEGA
ENCODING 1120
SWIDTH 533 0
DWIDTH 5 0
BBX 5 7 0 0
BITMAP
A8
A8
A8
A8
A8
A8
50
ENDCHAR
STARTCHAR CYRILLIC SMALL LETTER OMEGA
ENCODING 1121
SWIDTH 533 0
DWIDTH 5 0
BBX 5 5 0 0
BITMAP
A8
A8
A8
A8
50
ENDCHAR
STARTCHAR CYRILLIC CAPITAL LETTER YAT
ENCODING 1122
SWIDTH 533 0
DWIDTH 5 0
BBX 5 8 0 0
BITMAP
40
E0
40
70
48
48
48
70
ENDCHAR
STARTCHAR CYRILLIC SMALL LETTER YAT
ENCODING 1123
SWIDTH 533 0
DWIDTH 5 0
BBX 5 7 0 0
BITMAP
40
E0
40
70
48
48
70
ENDCHAR
STARTCHAR CYRILLIC CAPITAL LETTER IOTIFIED E
ENCODING 1124
SWIDTH 533 0
DWIDTH 5 0
BBX 5 7 0 0
BITMAP
90
A8
A0
F0
A0
A8
90
ENDCHAR
STARTCHAR CYRILLIC SMALL LETTER IOTIFIED E
ENCODING 1125
SWIDTH 533 0
DWIDTH 5 0
BBX 5 5 0 0
BITMAP
98
A0
F0
A0
98
ENDCHAR
STARTCHAR CYRILLIC CAPITAL LETTER LITTLE YUS
ENCODING 1126
SWIDTH 533 0
DWIDTH 5 0
BBX 5 7 0 0
BITMAP
20
20
50
50
F8
A8
A8
ENDCHAR
STARTCHAR CYRILLIC SMALL LETTER LITTLE YUS
ENCODING 1127
SWIDTH 533 0
DWIDTH 5 0
BBX 5 6 0 0
BITMAP
20
20
50
70
A8
A8
ENDCHAR
STARTCHAR CYRILLIC CAPITAL LETTER IOTIFIED LITTLE YUS
ENCODING 1128
SWIDTH 533 0
DWIDTH 5 0
BBX 5 7 0 0
BITMAP
A0
A0
D0
D0
F8
A8
A8
ENDCHAR
STARTCHAR CYRILLIC SMALL LETTER IOTIFIED LITTLE YUS
ENCODING 1129
SWIDTH 533 0
DWIDTH 5 0
BBX 5 6 0 0
BITMAP
A0
A0
D0
F0
A8
A8
ENDCHAR
STARTCHAR CYRILLIC CAPITAL LETTER BIG YUS
ENCODING 1130
SWIDTH 533 0
DWIDTH 5 0
BBX 5 7 0 0
BITMAP
F8
88
50
70
A8
A8
A8
ENDCHAR
STARTCHAR CYRILLIC SMALL LETTER BIG YUS
ENCODING 1131
SWIDTH 533 0
DWIDTH 5 0
BBX 5 5 0 0
BITMAP
70
50
20
70
A8
ENDCHAR
STARTCHAR CYRILLIC CAPITAL LETTER IOTIFIED BIG YUS
ENCODING 1132
SWIDTH 533 0
DWIDTH 5 0
BBX 5 7 0 0
BITMAP
F0
D0
A0
F0
A8
A8
A8
ENDCHAR
STARTCHAR CYRILLIC SMALL LETTER IOTIFIED BIG YUS
ENCODING 1133
SWIDTH 533 0
DWIDTH 5 0
BBX 5 5 0 0
BITMAP
F0
D0
A0
F0
A8
ENDCHAR
STARTCHAR CYRILLIC CAPITAL LETTER KSI
ENCODING 1134
SWIDTH 533 0
DWIDTH 5 0
BBX 4 11 1 -2
BITMAP
A0
40
00
E0
10
60
10
10
60
80
60
ENDCHAR
STARTCHAR CYRILLIC SMALL LETTER KSI
ENCODING 1135
SWIDTH 533 0
DWIDTH 5 0
BBX 4 10 1 -2
BITMAP
A0
40
00
E0
10
60
10
60
80
40
ENDCHAR
STARTCHAR CYRILLIC CAPITAL LETTER PSI
ENCODING 1136
SWIDTH 533 0
DWIDTH 5 0
BBX 5 7 0 0
BITMAP
A8
A8
A8
A8
70
20
20
ENDCHAR
STARTCHAR CYRILLIC SMALL LETTER PSI
ENCODING 1137
SWIDTH 533 0
DWIDTH 5 0
BBX 5 6 0 0
BITMAP
A8
A8
A8
70
20
20
ENDCHAR
STARTCHAR CYRILLIC CAPITAL LETTER FITA
ENCODING 1138
SWIDTH 533 0
DWIDTH 5 0
BBX 5 7 0 0
BITMAP
70
88
88
F8
88
88
70
ENDCHAR
STARTCHAR CYRILLIC SMALL LETTER FITA
ENCODING 1139
SWIDTH 533 0
DWIDTH 5 0
BBX 5 5 0 0
BITMAP
70
88
F8
88
70
ENDCHAR
STARTCHAR CYRILLIC CAPITAL LETTER IZHITSA
ENCODING 1140
SWIDTH 533 0
DWIDTH 5 0
BBX 5 7 0 0
BITMAP
88
90
90
50
50
20
20
ENDCHAR
STARTCHAR CYRILLIC SMALL LETTER IZHITSA
ENCODING 1141
SWIDTH 533 0
DWIDTH 5 0
BBX 5 5 0 0
BITMAP
88
90
50
50
20
ENDCHAR
STARTCHAR CYRILLIC CAPITAL LETTER IZHITSA WITH DOUBLE GRAVE ACCENT
ENCODING 1142
SWIDTH 533 0
DWIDTH 5 0
BBX 5 9 0 0
BITMAP
A0
50
00
88
90
50
50
20
20
ENDCHAR
STARTCHAR CYRILLIC SMALL LETTER IZHITSA WITH DOUBLE GRAVE ACCENT
ENCODING 1143
SWIDTH 533 0
DWIDTH 5 0
BBX 5 8 0 0
BITMAP
A0
50
00
88
90
50
50
20
ENDCHAR
STARTCHAR CYRILLIC CAPITAL LETTER UK
ENCODING 1144
SWIDTH 533 0
DWIDTH 5 0
BBX 5 9 0 -2
BITMAP
40
A0
A0
A8
A8
A8
58
08
30
ENDCHAR
STARTCHAR CYRILLIC SMALL LETTER UK
ENCODING 1145
SWIDTH 533 0
DWIDTH 5 0
BBX 5 7 0 -2
BITMAP
40
A8
A8
A8
58
08
30
ENDCHAR
STARTCHAR CYRILLIC CAPITAL LETTER ROUND OMEGA
ENCODING 1146
SWIDTH 533 0
DWIDTH 5 0
BBX 5 9 0 -1
BITMAP
20
70
A8
88
88
88
A8
70
20
ENDCHAR
STARTCHAR CYRILLIC SMALL LETTER ROUND OMEGA
ENCODING 1147
SWIDTH 533 0
DWIDTH 5 0
BBX 5 7 0 -1
BITMAP
20
70
A8
88
A8
70
20
ENDCHAR
STARTCHAR CYRILLIC CAPITAL LETTER OMEGA WITH TITLO
ENCODING 1148
SWIDTH 533 0
DWIDTH 5 0
BBX 5 9 0 0
BITMAP
60
90
08
20
88
88
88
A8
50
ENDCHAR
STARTCHAR CYRILLIC SMALL LETTER OMEGA WITH TITLO
ENCODING 1149
SWIDTH 533 0
DWIDTH 5 0
BBX 5 8 0 0
BITMAP
60
90
08
20
88
88
A8
50
ENDCHAR
STARTCHAR CYRILLIC CAPITAL LETTER OT
ENCODING 1150
SWIDTH 533 0
DWIDTH 5 0
BBX 5 9 0 0
BITMAP
F8
A8
00
A8
A8
A8
A8
A8
50
ENDCHAR
STARTCHAR CYRILLIC SMALL LETTER OT
ENCODING 1151
SWIDTH 533 0
DWIDTH 5 0
BBX 5 8 0 0
BITMAP
F8
A8
00
A8
A8
A8
A8
50
ENDCHAR
STARTCHAR CYRILLIC THOUSANDS SIGN
ENCODING 1154
SWIDTH 640 0
DWIDTH 6 0
BBX 4 8 0 0
BITMAP
10
10
60
30
C0
60
80
80
ENDCHAR
STARTCHAR CYRILLIC CAPITAL LETTER GHE WITH UPTURN
ENCODING 1168
SWIDTH 640 0
DWIDTH 6 0
BBX 4 9 1 0
BITMAP
10
10
F0
80
80
80
80
80
80
ENDCHAR
STARTCHAR CYRILLIC SMALL LETTER GHE WITH UPTURN
ENCODING 1169
SWIDTH 640 0
DWIDTH 6 0
BBX 4 7 1 0
BITMAP
10
10
F0
80
80
80
80
ENDCHAR
STARTCHAR CYRILLIC SMALL LETTER KOMI ZJE
ENCODING 1285
SWIDTH 640 0
DWIDTH 6 0
BBX 5 6 0 0
BITMAP
C0
20
C8
28
28
10
ENDCHAR
STARTCHAR ARABIC LETTER LAM
ENCODING 1604
SWIDTH 640 0
DWIDTH 6 0
BBX 5 7 0 1
BITMAP
10
10
10
08
88
88
70
ENDCHAR
STARTCHAR ARABIC LETTER DOTLESS FEH
ENCODING 1697
SWIDTH 640 0
DWIDTH 6 0
BBX 5 4 0 1
BITMAP
10
28
98
70
ENDCHAR
STARTCHAR NKO COMMA
ENCODING 2040
SWIDTH 640 0
DWIDTH 6 0
BBX 6 4 0 -2
BITMAP
FC
FC
FC
FC
ENDCHAR
STARTCHAR NKO EXCLAMATION MARK
ENCODING 2041
SWIDTH 640 0
DWIDTH 6 0
BBX 6 4 0 -2
BITMAP
54
A8
54
A8
ENDCHAR
STARTCHAR NKO LAJANYALAN
ENCODING 2042
SWIDTH 640 0
DWIDTH 6 0
BBX 5 9 0 -2
BITMAP
A8
00
A8
00
A8
00
A8
00
A8
ENDCHAR
STARTCHAR TELUGU DIGIT FOUR
ENCODING 3178
SWIDTH 640 0
DWIDTH 6 0
BBX 5 6 0 0
BITMAP
50
88
88
70
50
20
ENDCHAR
STARTCHAR KANNADA LETTER TTHA
ENCODING 3232
SWIDTH 640 0
DWIDTH 6 0
BBX 6 7 0 0
BITMAP
18
04
F8
44
54
44
38
ENDCHAR
STARTCHAR KANNADA LETTER THA
ENCODING 3237
SWIDTH 640 0
DWIDTH 6 0
BBX 6 10 0 -2
BITMAP
08
04
F8
44
54
44
54
28
00
10
ENDCHAR
STARTCHAR THAI CHARACTER NGO NGU
ENCODING 3591
SWIDTH 640 0
DWIDTH 6 0
BBX 4 7 0 0
BITMAP
20
50
30
90
50
50
20
ENDCHAR
STARTCHAR THAI CURRENCY SYMBOL BAHT
ENCODING 3647
SWIDTH 640 0
DWIDTH 6 0
BBX 5 9 0 -1
BITMAP
20
F0
A8
A8
F0
A8
A8
F0
20
ENDCHAR
STARTCHAR THAI DIGIT ONE
ENCODING 3665
SWIDTH 640 0
DWIDTH 6 0
BBX 5 4 0 1
BITMAP
70
88
A8
68
ENDCHAR
STARTCHAR LAO LETTER CO
ENCODING 3720
SWIDTH 640 0
DWIDTH 6 0
BBX 6 6 0 3
BITMAP
78
84
B4
6C
5C
24
ENDCHAR
STARTCHAR TIBETAN MARK ANG KHANG GYON
ENCODING 3900
SWIDTH 640 0
DWIDTH 6 0
BBX 4 9 2 -1
BITMAP
10
20
40
40
20
40
80
80
80
ENDCHAR
STARTCHAR TIBETAN MARK ANG KHANG GYAS
ENCODING 3901
SWIDTH 640 0
DWIDTH 6 0
BBX 4 9 0 -1
BITMAP
80
40
20
20
40
20
10
10
10
ENDCHAR
STARTCHAR GEORGIAN LETTER LAS
ENCODING 4314
SWIDTH 640 0
DWIDTH 6 0
BBX 6 6 0 -1
BITMAP
54
AC
80
40
F8
04
ENDCHAR
STARTCHAR CANADIAN SYLLABICS FO
ENCODING 5463
SWIDTH 640 0
DWIDTH 6 0
BBX 5 6 0 0
BITMAP
40
A0
50
08
30
C0
ENDCHAR
STARTCHAR CANADIAN SYLLABICS FA
ENCODING 5465
SWIDTH 640 0
DWIDTH 6 0
BBX 5 6 0 0
BITMAP
10
28
50
80
60
18
ENDCHAR
STARTCHAR LATIN LETTER AIN
ENCODING 7461
SWIDTH 640 0
DWIDTH 6 0
BBX 6 6 0 0
BITMAP
30
78
78
30
B4
48
ENDCHAR
STARTCHAR LATIN CAPITAL LETTER A WITH RING BELOW
ENCODING 7680
SWIDTH 533 0
DWIDTH 5 0
BBX 5 10 0 -3
BITMAP
70
88
88
F8
88
88
88
20
50
20
ENDCHAR
STARTCHAR LATIN SMALL LETTER A WITH RING BELOW
ENCODING 7681
SWIDTH 533 0
DWIDTH 5 0
BBX 5 8 0 -3
BITMAP
78
88
88
98
68
20
50
20
ENDCHAR
STARTCHAR LATIN CAPITAL LETTER B WITH DOT ABOVE
ENCODING 7682
SWIDTH 533 0
DWIDTH 5 0
BBX 5 9 0 0
BITMAP
20
00
F0
88
88
F0
88
88
F0
ENDCHAR
STARTCHAR LATIN SMALL LETTER B WITH DOT ABOVE
ENCODING 7683
SWIDTH 640 0
DWIDTH 6 0
BBX 5 8 0 0
BITMAP
20
80
80
F0
88
88
88
F0
ENDCHAR
STARTCHAR LATIN CAPITAL LETTER B WITH DOT BELOW
ENCODING 7684
SWIDTH 533 0
DWIDTH 5 0
BBX 5 9 0 -2
BITMAP
F0
88
88
F0
88
88
F0
00
20
ENDCHAR
STARTCHAR LATIN SMALL LETTER B WITH DOT BELOW
ENCODING 7685
SWIDTH 640 0
DWIDTH 6 0
BBX 5 9 0 -2
BITMAP
80
80
F0
88
88
88
F0
00
20
ENDCHAR
STARTCHAR LATIN CAPITAL LETTER B WITH LINE BELOW
ENCODING 7686
SWIDTH 533 0
DWIDTH 5 0
BBX 5 9 0 -2
BITMAP
F0
88
88
F0
88
88
F0
00
70
ENDCHAR
STARTCHAR LATIN SMALL LETTER B WITH LINE BELOW
ENCODING 7687
SWIDTH 640 0
DWIDTH 6 0
BBX 5 9 0 -2
BITMAP
80
80
F0
88
88
88
F0
00
70
ENDCHAR
STARTCHAR LATIN CAPITAL LETTER C WITH CEDILLA AND ACUTE
ENCODING 7688
SWIDTH 640 0
DWIDTH 6 0
BBX 5 12 0 -3
BITMAP
10
20
70
88
80
80
80
88
70
20
10
20
ENDCHAR
STARTCHAR LATIN SMALL LETTER C WITH CEDILLA AND ACUTE
ENCODING 7689
SWIDTH 640 0
DWIDTH 6 0
BBX 5 11 0 -3
BITMAP
10
20
00
70
88
80
80
78
20
10
20
ENDCHAR
STARTCHAR LATIN CAPITAL LETTER D WITH DOT ABOVE
ENCODING 7690
SWIDTH 640 0
DWIDTH 6 0
BBX 5 9 0 0
BITMAP
20
00
F0
88
88
88
88
88
F0
ENDCHAR
STARTCHAR LATIN SMALL LETTER D WITH DOT ABOVE
ENCODING 7691
SWIDTH 640 0
DWIDTH 6 0
BBX 5 8 0 0
BITMAP
20
08
08
78
88
88
88
78
ENDCHAR
STARTCHAR LATIN CAPITAL LETTER D WITH DOT BELOW
ENCODING 7692
SWIDTH 640 0
DWIDTH 6 0
BBX 5 9 0 -2
BITMAP
F0
88
88
88
88
88
F0
00
20
ENDCHAR
STARTCHAR LATIN SMALL LETTER D WITH DOT BELOW
ENCODING 7693
SWIDTH 640 0
DWIDTH 6 0
BBX 5 9 0 -2
BITMAP
08
08
78
88
88
88
78
00
20
ENDCHAR
STARTCHAR LATIN CAPITAL LETTER D WITH LINE BELOW
ENCODING 7694
SWIDTH 640 0
DWIDTH 6 0
BBX 5 9 0 -2
BITMAP
F0
88
88
88
88
88
F0
00
70
ENDCHAR
STARTCHAR LATIN SMALL LETTER D WITH LINE BELOW
ENCODING 7695
SWIDTH 640 0
DWIDTH 6 0
BBX 5 9 0 -2
BITMAP
08
08
78
88
88
88
78
00
70
ENDCHAR
STARTCHAR LATIN CAPITAL LETTER D WITH CEDILLA
ENCODING 7696
SWIDTH 640 0
DWIDTH 6 0
BBX 5 10 0 -3
BITMAP
F0
88
88
88
88
88
F0
20
10
20
ENDCHAR
STARTCHAR LATIN SMALL LETTER D WITH CEDILLA
ENCODING 7697
SWIDTH 640 0
DWIDTH 6 0
BBX 5 10 0 -3
BITMAP
08
08
78
88
88
88
78
20
10
20
ENDCHAR
STARTCHAR LATIN CAPITAL LETTER D WITH CIRCUMFLEX BELOW
ENCODING 7698
SWIDTH 640 0
DWIDTH 6 0
BBX 5 9 0 -2
BITMAP
F0
88
88
88
88
88
F0
20
50
ENDCHAR
STARTCHAR LATIN SMALL LETTER D WITH CIRCUMFLEX BELOW
ENCODING 7699
SWIDTH 640 0
DWIDTH 6 0
BBX 5 9 0 -2
BITMAP
08
08
78
88
88
88
78
20
50
ENDCHAR
STARTCHAR LATIN CAPITAL LETTER E WITH MACRON AND GRAVE
ENCODING 7700
SWIDTH 640 0
DWIDTH 6 0
BBX 5 9 0 0
BITMAP
40
70
F8
80
80
F0
80
80
F8
ENDCHAR
STARTCHAR LATIN SMALL LETTER E WITH MACRON AND GRAVE
ENCODING 7701
SWIDTH 640 0
DWIDTH 6 0
BBX 5 9 0 0
BITMAP
40
20
70
00
70
88
F8
80
78
ENDCHAR
STARTCHAR LATIN CAPITAL LETTER E WITH MACRON AND ACUTE
ENCODING 7702
SWIDTH 640 0
DWIDTH 6 0
BBX 5 9 0 0
BITMAP
10
70
F8
80
80
F0
80
80
F8
ENDCHAR
STARTCHAR LATIN SMALL LETTER E WITH MACRON AND ACUTE
ENCODING 7703
SWIDTH 640 0
DWIDTH 6 0
BBX 5 9 0 0
BITMAP
10
20
70
00
70
88
F8
80
78
ENDCHAR
STARTCHAR LATIN CAPITAL LETTER E WITH CIRCUMFLEX BELOW
ENCODING 7704
SWIDTH 640 0
DWIDTH 6 0
BBX 5 9 0 -2
BITMAP
F8
80
80
F0
80
80
F8
20
50
ENDCHAR
STARTCHAR LATIN SMALL LETTER E WITH CIRCUMFLEX BELOW
ENCODING 7705
SWIDTH 640 0
DWIDTH 6 0
BBX 5 7 0 -2
BITMAP
70
88
F8
80
78
20
50
ENDCHAR
STARTCHAR LATIN CAPITAL LETTER E WITH TILDE BELOW
ENCODING 7706
SWIDTH 640 0
DWIDTH 6 0
BBX 5 10 0 -3
BITMAP
F8
80
80
F0
80
80
F8
00
68
90
ENDCHAR
STARTCHAR LATIN SMALL LETTER E WITH TILDE BELOW
ENCODING 7707
SWIDTH 640 0
DWIDTH 6 0
BBX 5 8 0 -3
BITMAP
70
88
F8
80
78
00
68
90
ENDCHAR
STARTCHAR LATIN CAPITAL LETTER E WITH CEDILLA AND BREVE
ENCODING 7708
SWIDTH 640 0
DWIDTH 6 0
BBX 5 12 0 -3
BITMAP
88
70
F8
80
80
F0
80
80
F8
20
10
20
ENDCHAR
STARTCHAR LATIN SMALL LETTER E WITH CEDILLA AND BREVE
ENCODING 7709
SWIDTH 640 0
DWIDTH 6 0
BBX 5 11 0 -3
BITMAP
88
70
00
70
88
F8
80
78
20
10
20
ENDCHAR
STARTCHAR LATIN CAPITAL LETTER F WITH DOT ABOVE
ENCODING 7710
SWIDTH 640 0
DWIDTH 6 0
BBX 5 9 0 0
BITMAP
20
00
F8
80
80
F0
80
80
80
ENDCHAR
STARTCHAR LATIN SMALL LETTER F WITH DOT ABOVE
ENCODING 7711
SWIDTH 640 0
DWIDTH 6 0
BBX 4 9 0 0
BITMAP
20
00
30
40
40
E0
40
40
40
ENDCHAR
STARTCHAR LATIN CAPITAL LETTER G WITH MACRON
ENCODING 7712
SWIDTH 640 0
DWIDTH 6 0
BBX 5 9 0 0
BITMAP
70
00
70
88
80
98
88
88
70
ENDCHAR
STARTCHAR LATIN SMALL LETTER G WITH MACRON
ENCODING 7713
SWIDTH 640 0
DWIDTH 6 0
BBX 5 9 0 -2
BITMAP
70
00
78
88
88
88
78
08
70
ENDCHAR
STARTCHAR LATIN CAPITAL LETTER H WITH DOT ABOVE
ENCODING 7714
SWIDTH 640 0
DWIDTH 6 0
BBX 5 9 0 0
BITMAP
20
00
88
88
88
F8
88
88
88
ENDCHAR
STARTCHAR LATIN SMALL LETTER H WITH DOT ABOVE
ENCODING 7715
SWIDTH 640 0
DWIDTH 6 0
BBX 5 8 0 0
BITMAP
20
80
80
F0
88
88
88
88
ENDCHAR
STARTCHAR LATIN CAPITAL LETTER H WITH DOT BELOW
ENCODING 7716
SWIDTH 640 0
DWIDTH 6 0
BBX 5 9 0 -2
BITMAP
88
88
88
F8
88
88
88
00
20
ENDCHAR
STARTCHAR LATIN SMALL LETTER H WITH DOT BELOW
ENCODING 7717
SWIDTH 640 0
DWIDTH 6 0
BBX 5 9 0 -2
BITMAP
80
80
F0
88
88
88
88
00
20
ENDCHAR
STARTCHAR LATIN CAPITAL LETTER H WITH DIAERESIS
ENCODING 7718
SWIDTH 640 0
DWIDTH 6 0
BBX 5 9 0 0
BITMAP
50
00
88
88
88
F8
88
88
88
ENDCHAR
STARTCHAR LATIN SMALL LETTER H WITH DIAERESIS
ENCODING 7719
SWIDTH 640 0
DWIDTH 6 0
BBX 5 9 0 0
BITMAP
50
00
80
80
F0
88
88
88
88
ENDCHAR
STARTCHAR LATIN CAPITAL LETTER H WITH CEDILLA
ENCODING 7720
SWIDTH 533 0
DWIDTH 5 0
BBX 5 9 0 -2
BITMAP
88
88
88
F8
88
88
88
40
80
ENDCHAR
STARTCHAR LATIN SMALL LETTER H WITH CEDILLA
ENCODING 7721
SWIDTH 640 0
DWIDTH 6 0
BBX 5 9 0 -2
BITMAP
80
80
F0
88
88
88
88
40
80
ENDCHAR
STARTCHAR LATIN CAPITAL LETTER H WITH BREVE BELOW
ENCODING 7722
SWIDTH 640 0
DWIDTH 6 0
BBX 5 10 0 -3
BITMAP
88
88
88
F8
88
88
88
00
88
70
ENDCHAR
STARTCHAR LATIN SMALL LETTER H WITH BREVE BELOW
ENCODING 7723
SWIDTH 640 0
DWIDTH 6 0
BBX 5 10 0 -3
BITMAP
80
80
F0
88
88
88
88
00
88
70
ENDCHAR
STARTCHAR LATIN CAPITAL LETTER I WITH TILDE BELOW
ENCODING 7724
SWIDTH 533 0
DWIDTH 5 0
BBX 5 10 0 -3
BITMAP
70
20
20
20
20
20
70
00
68
90
ENDCHAR
STARTCHAR LATIN SMALL LETTER I WITH TILDE BELOW
ENCODING 7725
SWIDTH 533 0
DWIDTH 5 0
BBX 5 10 0 -3
BITMAP
20
00
60
20
20
20
30
00
68
90
ENDCHAR
STARTCHAR LATIN CAPITAL LETTER I WITH DIAERESIS AND ACUTE
ENCODING 7726
SWIDTH 640 0
DWIDTH 6 0
BBX 3 9 1 0
BITMAP
20
E0
00
E0
40
40
40
40
E0
ENDCHAR
STARTCHAR LATIN SMALL LETTER I WITH DIAERESIS AND ACUTE
ENCODING 7727
SWIDTH 640 0
DWIDTH 6 0
BBX 3 9 1 0
BITMAP
20
40
A0
00
C0
40
40
40
60
ENDCHAR
STARTCHAR LATIN CAPITAL LETTER K WITH ACUTE
ENCODING 7728
SWIDTH 640 0
DWIDTH 6 0
BBX 5 9 0 0
BITMAP
10
20
88
90
A0
C0
A0
90
88
ENDCHAR
STARTCHAR LATIN SMALL LETTER K WITH ACUTE
ENCODING 7729
SWIDTH 640 0
DWIDTH 6 0
BBX 5 9 0 0
BITMAP
10
20
80
80
90
A0
E0
90
88
ENDCHAR
STARTCHAR LATIN CAPITAL LETTER K WITH DOT BELOW
ENCODING 7730
SWIDTH 640 0
DWIDTH 6 0
BBX 5 9 0 -2
BITMAP
88
90
A0
C0
A0
90
88
00
20
ENDCHAR
STARTCHAR LATIN SMALL LETTER K WITH DOT BELOW
ENCODING 7731
SWIDTH 640 0
DWIDTH 6 0
BBX 5 9 0 -2
BITMAP
80
80
90
A0
E0
90
88
00
20
ENDCHAR
STARTCHAR LATIN CAPITAL LETTER K WITH LINE BELOW
ENCODING 7732
SWIDTH 640 0
DWIDTH 6 0
BBX 5 9 0 -2
BITMAP
88
90
A0
C0
A0
90
88
00
70
ENDCHAR
STARTCHAR LATIN SMALL LETTER K WITH LINE BELOW
ENCODING 7733
SWIDTH 640 0
DWIDTH 6 0
BBX 5 9 0 -2
BITMAP
80
80
90
A0
E0
90
88
00
70
ENDCHAR
STARTCHAR LATIN CAPITAL LETTER L WITH DOT BELOW
ENCODING 7734
SWIDTH 640 0
DWIDTH 6 0
BBX 5 9 0 -2
BITMAP
80
80
80
80
80
80
F8
00
20
ENDCHAR
STARTCHAR LATIN SMALL LETTER L WITH DOT BELOW
ENCODING 7735
SWIDTH 640 0
DWIDTH 6 0
BBX 3 9 1 -2
BITMAP
C0
40
40
40
40
40
60
00
40
ENDCHAR
STARTCHAR LATIN CAPITAL LETTER L WITH DOT BELOW AND MACRON
ENCODING 7736
SWIDTH 640 0
DWIDTH 6 0
BBX 5 11 0 -2
BITMAP
70
00
80
80
80
80
80
80
F8
00
20
ENDCHAR
STARTCHAR LATIN SMALL LETTER L WITH DOT BELOW AND MACRON
ENCODING 7737
SWIDTH 640 0
DWIDTH 6 0
BBX 3 11 1 -2
BITMAP
E0
00
C0
40
40
40
40
40
60
00
40
ENDCHAR
STARTCHAR LATIN CAPITAL LETTER L WITH LINE BELOW
ENCODING 7738
SWIDTH 640 0
DWIDTH 6 0
BBX 5 9 0 -2
BITMAP
80
80
80
80
80
80
F8
00
70
ENDCHAR
STARTCHAR LATIN SMALL LETTER L WITH LINE BELOW
ENCODING 7739
SWIDTH 640 0
DWIDTH 6 0
BBX 3 9 1 -2
BITMAP
C0
40
40
40
40
40
60
00
E0
ENDCHAR
STARTCHAR LATIN CAPITAL LETTER L WITH CIRCUMFLEX BELOW
ENCODING 7740
SWIDTH 640 0
DWIDTH 6 0
BBX 5 10 0 -3
BITMAP
80
80
80
80
80
80
F8
00
20
50
ENDCHAR
STARTCHAR LATIN SMALL LETTER L WITH CIRCUMFLEX BELOW
ENCODING 7741
SWIDTH 640 0
DWIDTH 6 0
BBX 3 10 1 -3
BITMAP
C0
40
40
40
40
40
60
00
40
A0
ENDCHAR
STARTCHAR LATIN CAPITAL LETTER M WITH ACUTE
ENCODING 7742
SWIDTH 640 0
DWIDTH 6 0
BBX 5 9 0 0
BITMAP
10
20
88
D8
A8
88
88
88
88
ENDCHAR
STARTCHAR LATIN SMALL LETTER M WITH ACUTE
ENCODING 7743
SWIDTH 640 0
DWIDTH 6 0
BBX 5 8 0 0
BITMAP
10
20
00
F0
A8
A8
A8
A8
ENDCHAR
STARTCHAR LATIN CAPITAL LETTER M WITH DOT ABOVE
ENCODING 7744
SWIDTH 640 0
DWIDTH 6 0
BBX 5 9 0 0
BITMAP
20
00
88
D8
A8
88
88
88
88
ENDCHAR
STARTCHAR LATIN SMALL LETTER M WITH DOT ABOVE
ENCODING 7745
SWIDTH 640 0
DWIDTH 6 0
BBX 5 7 0 0
BITMAP
20
00
F0
A8
A8
A8
A8
ENDCHAR
STARTCHAR LATIN CAPITAL LETTER M WITH DOT BELOW
ENCODING 7746
SWIDTH 640 0
DWIDTH 6 0
BBX 5 9 0 -2
BITMAP
88
D8
A8
88
88
88
88
00
20
ENDCHAR
STARTCHAR LATIN SMALL LETTER M WITH DOT BELOW
ENCODING 7747
SWIDTH 640 0
DWIDTH 6 0
BBX 5 7 0 -2
BITMAP
F0
A8
A8
A8
A8
00
20
ENDCHAR
STARTCHAR LATIN CAPITAL LETTER N WITH DOT ABOVE
ENCODING 7748
SWIDTH 640 0
DWIDTH 6 0
BBX 5 9 0 0
BITMAP
20
00
C8
C8
A8
A8
A8
98
98
ENDCHAR
STARTCHAR LATIN SMALL LETTER N WITH DOT ABOVE
ENCODING 7749
SWIDTH 640 0
DWIDTH 6 0
BBX 5 7 0 0
BITMAP
20
00
B0
C8
88
88
88
ENDCHAR
STARTCHAR LATIN CAPITAL LETTER N WITH DOT BELOW
ENCODING 7750
SWIDTH 640 0
DWIDTH 6 0
BBX 5 9 0 -2
BITMAP
C8
C8
A8
A8
A8
98
98
00
20
ENDCHAR
STARTCHAR LATIN SMALL LETTER N WITH DOT BELOW
ENCODING 7751
SWIDTH 640 0
DWIDTH 6 0
BBX 5 7 0 -2
BITMAP
B0
C8
88
88
88
00
20
ENDCHAR
STARTCHAR LATIN CAPITAL LETTER N WITH LINE BELOW
ENCODING 7752
SWIDTH 640 0
DWIDTH 6 0
BBX 5 9 0 -2
BITMAP
C8
C8
A8
A8
A8
98
98
00
70
ENDCHAR
STARTCHAR LATIN SMALL LETTER N WITH LINE BELOW
ENCODING 7753
SWIDTH 640 0
DWIDTH 6 0
BBX 5 7 0 -2
BITMAP
B0
C8
88
88
88
00
70
ENDCHAR
STARTCHAR LATIN CAPITAL LETTER N WITH CIRCUMFLEX BELOW
ENCODING 7754
SWIDTH 640 0
DWIDTH 6 0
BBX 5 10 0 -3
BITMAP
C8
C8
A8
A8
A8
98
98
00
20
50
ENDCHAR
STARTCHAR LATIN SMALL LETTER N WITH CIRCUMFLEX BELOW
ENCODING 7755
SWIDTH 640 0
DWIDTH 6 0
BBX 5 8 0 -3
BITMAP
B0
C8
88
88
88
00
20
50
ENDCHAR
STARTCHAR LATIN CAPITAL LETTER O WITH TILDE AND ACUTE
ENCODING 7756
SWIDTH 640 0
DWIDTH 6 0
BBX 5 9 0 0
BITMAP
10
68
90
70
88
88
88
88
70
ENDCHAR
STARTCHAR LATIN SMALL LETTER O WITH TILDE AND ACUTE
ENCODING 7757
SWIDTH 640 0
DWIDTH 6 0
BBX 5 9 0 0
BITMAP
10
20
68
90
70
88
88
88
70
ENDCHAR
STARTCHAR LATIN CAPITAL LETTER O WITH TILDE AND DIAERESIS
ENCODING 7758
SWIDTH 640 0
DWIDTH 6 0
BBX 5 9 0 0
BITMAP
50
68
90
70
88
88
88
88
70
ENDCHAR
STARTCHAR LATIN SMALL LETTER O WITH TILDE AND DIAERESIS
ENCODING 7759
SWIDTH 640 0
DWIDTH 6 0
BBX 5 9 0 0
BITMAP
50
00
68
90
70
88
88
88
70
ENDCHAR
STARTCHAR LATIN CAPITAL LETTER O WITH MACRON AND GRAVE
ENCODING 7760
SWIDTH 640 0
DWIDTH 6 0
BBX 5 9 0 0
BITMAP
40
70
00
70
88
88
88
88
70
ENDCHAR
STARTCHAR LATIN SMALL LETTER O WITH MACRON AND GRAVE
ENCODING 7761
SWIDTH 640 0
DWIDTH 6 0
BBX 5 9 0 0
BITMAP
40
20
70
00
70
88
88
88
70
ENDCHAR
STARTCHAR LATIN CAPITAL LETTER O WITH MACRON AND ACUTE
ENCODING 7762
SWIDTH 640 0
DWIDTH 6 0
BBX 5 9 0 0
BITMAP
10
70
00
70
88
88
88
88
70
ENDCHAR
STARTCHAR LATIN SMALL LETTER O WITH MACRON AND ACUTE
ENCODING 7763
SWIDTH 640 0
DWIDTH 6 0
BBX 5 9 0 0
BITMAP
10
20
70
00
70
88
88
88
70
ENDCHAR
STARTCHAR LATIN CAPITAL LETTER P WITH ACUTE
ENCODING 7764
SWIDTH 640 0
DWIDTH 6 0
BBX 5 9 0 0
BITMAP
10
20
F0
88
88
F0
80
80
80
ENDCHAR
STARTCHAR LATIN SMALL LETTER P WITH ACUTE
ENCODING 7765
SWIDTH 640 0
DWIDTH 6 0
BBX 5 10 0 -2
BITMAP
10
20
00
F0
88
88
88
F0
80
80
ENDCHAR
STARTCHAR LATIN CAPITAL LETTER P WITH DOT ABOVE
ENCODING 7766
SWIDTH 640 0
DWIDTH 6 0
BBX 5 9 0 0
BITMAP
20
00
F0
88
88
F0
80
80
80
ENDCHAR
STARTCHAR LATIN SMALL LETTER P WITH DOT ABOVE
ENCODING 7767
SWIDTH 640 0
DWIDTH 6 0
BBX 5 9 0 -2
BITMAP
20
00
F0
88
88
88
F0
80
80
ENDCHAR
STARTCHAR LATIN CAPITAL LETTER R WITH DOT ABOVE
ENCODING 7768
SWIDTH 640 0
DWIDTH 6 0
BBX 5 9 0 0
BITMAP
20
00
F0
88
88
F0
88
88
88
ENDCHAR
STARTCHAR LATIN SMALL LETTER R WITH DOT ABOVE
ENCODING 7769
SWIDTH 640 0
DWIDTH 6 0
BBX 5 7 0 0
BITMAP
20
00
B0
C8
80
80
80
ENDCHAR
STARTCHAR LATIN CAPITAL LETTER R WITH DOT BELOW
ENCODING 7770
SWIDTH 640 0
DWIDTH 6 0
BBX 5 9 0 -2
BITMAP
F0
88
88
F0
88
88
88
00
20
ENDCHAR
STARTCHAR LATIN SMALL LETTER R WITH DOT BELOW
ENCODING 7771
SWIDTH 640 0
DWIDTH 6 0
BBX 5 7 0 -2
BITMAP
B0
C8
80
80
80
00
20
ENDCHAR
STARTCHAR LATIN CAPITAL LETTER R WITH DOT BELOW AND MACRON
ENCODING 7772
SWIDTH 640 0
DWIDTH 6 0
BBX 5 11 0 -2
BITMAP
70
00
F0
88
88
F0
88
88
88
00
20
ENDCHAR
STARTCHAR LATIN SMALL LETTER R WITH DOT BELOW AND MACRON
ENCODING 7773
SWIDTH 640 0
DWIDTH 6 0
BBX 5 9 0 -2
BITMAP
70
00
B0
C8
80
80
80
00
20
ENDCHAR
STARTCHAR LATIN CAPITAL LETTER R WITH LINE BELOW
ENCODING 7774
SWIDTH 640 0
DWIDTH 6 0
BBX 5 9 0 -2
BITMAP
F0
88
88
F0
88
88
88
00
70
ENDCHAR
STARTCHAR LATIN SMALL LETTER R WITH LINE BELOW
ENCODING 7775
SWIDTH 640 0
DWIDTH 6 0
BBX 5 7 0 -2
BITMAP
B0
C8
80
80
80
00
70
ENDCHAR
STARTCHAR LATIN CAPITAL LETTER S WITH DOT ABOVE
ENCODING 7776
SWIDTH 640 0
DWIDTH 6 0
BBX 5 9 0 0
BITMAP
20
00
70
88
80
70
08
88
70
ENDCHAR
STARTCHAR LATIN SMALL LETTER S WITH DOT ABOVE
ENCODING 7777
SWIDTH 640 0
DWIDTH 6 0
BBX 5 7 0 0
BITMAP
20
00
78
80
70
08
F0
ENDCHAR
STARTCHAR LATIN CAPITAL LETTER S WITH DOT BELOW
ENCODING 7778
SWIDTH 640 0
DWIDTH 6 0
BBX 5 9 0 -2
BITMAP
70
88
80
70
08
88
70
00
20
ENDCHAR
STARTCHAR LATIN SMALL LETTER S WITH DOT BELOW
ENCODING 7779
SWIDTH 640 0
DWIDTH 6 0
BBX 5 7 0 -2
BITMAP
78
80
70
08
F0
00
20
ENDCHAR
STARTCHAR LATIN CAPITAL LETTER S WITH ACUTE AND DOT ABOVE
ENCODING 7780
SWIDTH 640 0
DWIDTH 6 0
BBX 5 9 0 0
BITMAP
30
20
70
88
80
70
08
88
70
ENDCHAR
STARTCHAR LATIN SMALL LETTER S WITH ACUTE AND DOT ABOVE
ENCODING 7781
SWIDTH 640 0
DWIDTH 6 0
BBX 5 9 0 0
BITMAP
20
10
20
00
78
80
70
08
F0
ENDCHAR
STARTCHAR LATIN CAPITAL LETTER S WITH CARON AND DOT ABOVE
ENCODING 7782
SWIDTH 640 0
DWIDTH 6 0
BBX 5 9 0 0
BITMAP
70
20
70
88
80
70
08
88
70
ENDCHAR
STARTCHAR LATIN SMALL LETTER S WITH CARON AND DOT ABOVE
ENCODING 7783
SWIDTH 640 0
DWIDTH 6 0
BBX 5 9 0 0
BITMAP
20
00
50
20
78
80
70
08
F0
ENDCHAR
STARTCHAR LATIN CAPITAL LETTER S WITH DOT BELOW AND DOT ABOVE
ENCODING 7784
SWIDTH 640 0
DWIDTH 6 0
BBX 5 11 0 -2
BITMAP
20
00
70
88
80
70
08
88
70
00
20
ENDCHAR
STARTCHAR LATIN SMALL LETTER S WITH DOT BELOW AND DOT ABOVE
ENCODING 7785
SWIDTH 640 0
DWIDTH 6 0
BBX 5 9 0 -2
BITMAP
20
00
78
80
70
08
F0
00
20
ENDCHAR
STARTCHAR LATIN CAPITAL LETTER T WITH DOT ABOVE
ENCODING 7786
SWIDTH 640 0
DWIDTH 6 0
BBX 5 9 0 0
BITMAP
20
00
F8
20
20
20
20
20
20
ENDCHAR
STARTCHAR LATIN SMALL LETTER T WITH DOT ABOVE
ENCODING 7787
SWIDTH 640 0
DWIDTH 6 0
BBX 4 9 1 0
BITMAP
40
00
40
40
F0
40
40
40
30
ENDCHAR
STARTCHAR LATIN CAPITAL LETTER T WITH DOT BELOW
ENCODING 7788
SWIDTH 640 0
DWIDTH 6 0
BBX 5 9 0 -2
BITMAP
F8
20
20
20
20
20
20
00
20
ENDCHAR
STARTCHAR LATIN SMALL LETTER T WITH DOT BELOW
ENCODING 7789
SWIDTH 640 0
DWIDTH 6 0
BBX 4 9 1 -2
BITMAP
40
40
F0
40
40
40
30
00
40
ENDCHAR
STARTCHAR LATIN CAPITAL LETTER T WITH LINE BELOW
ENCODING 7790
SWIDTH 640 0
DWIDTH 6 0
BBX 5 9 0 -2
BITMAP
F8
20
20
20
20
20
20
00
70
ENDCHAR
STARTCHAR LATIN SMALL LETTER T WITH LINE BELOW
ENCODING 7791
SWIDTH 640 0
DWIDTH 6 0
BBX 4 9 1 -2
BITMAP
40
40
F0
40
40
40
30
00
E0
ENDCHAR
STARTCHAR LATIN CAPITAL LETTER T WITH CIRCUMFLEX BELOW
ENCODING 7792
SWIDTH 640 0
DWIDTH 6 0
BBX 5 10 0 -3
BITMAP
F8
20
20
20
20
20
20
00
20
50
ENDCHAR
STARTCHAR LATIN SMALL LETTER T WITH CIRCUMFLEX BELOW
ENCODING 7793
SWIDTH 640 0
DWIDTH 6 0
BBX 4 10 1 -3
BITMAP
40
40
F0
40
40
40
30
00
40
A0
ENDCHAR
STARTCHAR LATIN CAPITAL LETTER U WITH DIAERESIS BELOW
ENCODING 7794
SWIDTH 640 0
DWIDTH 6 0
BBX 5 9 0 -2
BITMAP
88
88
88
88
88
88
70
00
50
ENDCHAR
STARTCHAR LATIN SMALL LETTER U WITH DIAERESIS BELOW
ENCODING 7795
SWIDTH 640 0
DWIDTH 6 0
BBX 5 7 0 -2
BITMAP
88
88
88
98
68
00
50
ENDCHAR
STARTCHAR LATIN CAPITAL LETTER U WITH TILDE BELOW
ENCODING 7796
SWIDTH 640 0
DWIDTH 6 0
BBX 5 10 0 -3
BITMAP
88
88
88
88
88
88
70
00
68
90
ENDCHAR
STARTCHAR LATIN SMALL LETTER U WITH TILDE BELOW
ENCODING 7797
SWIDTH 533 0
DWIDTH 5 0
BBX 5 8 0 -3
BITMAP
88
88
88
98
68
00
68
90
ENDCHAR
STARTCHAR LATIN CAPITAL LETTER U WITH CIRCUMFLEX BELOW
ENCODING 7798
SWIDTH 640 0
DWIDTH 6 0
BBX 5 10 0 -3
BITMAP
88
88
88
88
88
88
70
00
20
50
ENDCHAR
STARTCHAR LATIN SMALL LETTER U WITH CIRCUMFLEX BELOW
ENCODING 7799
SWIDTH 640 0
DWIDTH 6 0
BBX 5 8 0 -3
BITMAP
88
88
88
98
68
00
20
50
ENDCHAR
STARTCHAR LATIN CAPITAL LETTER U WITH TILDE AND ACUTE
ENCODING 7800
SWIDTH 640 0
DWIDTH 6 0
BBX 5 9 0 0
BITMAP
10
68
90
88
88
88
88
88
70
ENDCHAR
STARTCHAR LATIN SMALL LETTER U WITH TILDE AND ACUTE
ENCODING 7801
SWIDTH 640 0
DWIDTH 6 0
BBX 5 9 0 0
BITMAP
10
68
90
00
88
88
88
98
68
ENDCHAR
STARTCHAR LATIN CAPITAL LETTER U WITH MACRON AND DIAERESIS
ENCODING 7802
SWIDTH 640 0
DWIDTH 6 0
BBX 5 9 0 0
BITMAP
50
70
88
88
88
88
88
88
70
ENDCHAR
STARTCHAR LATIN SMALL LETTER U WITH MACRON AND DIAERESIS
ENCODING 7803
SWIDTH 640 0
DWIDTH 6 0
BBX 5 9 0 0
BITMAP
50
00
70
00
88
88
88
98
68
ENDCHAR
STARTCHAR LATIN CAPITAL LETTER V WITH TILDE
ENCODING 7804
SWIDTH 640 0
DWIDTH 6 0
BBX 5 9 0 0
BITMAP
68
90
88
88
88
50
50
20
20
ENDCHAR
STARTCHAR LATIN SMALL LETTER V WITH TILDE
ENCODING 7805
SWIDTH 640 0
DWIDTH 6 0
BBX 5 8 0 0
BITMAP
68
90
00
88
88
50
50
20
ENDCHAR
STARTCHAR LATIN CAPITAL LETTER V WITH DOT BELOW
ENCODING 7806
SWIDTH 640 0
DWIDTH 6 0
BBX 5 9 0 -2
BITMAP
88
88
88
50
50
20
20
00
20
ENDCHAR
STARTCHAR LATIN SMALL LETTER V WITH DOT BELOW
ENCODING 7807
SWIDTH 640 0
DWIDTH 6 0
BBX 5 7 0 -2
BITMAP
88
88
50
50
20
00
20
ENDCHAR
STARTCHAR LATIN CAPITAL LETTER W WITH GRAVE
ENCODING 7808
SWIDTH 640 0
DWIDTH 6 0
BBX 5 9 0 0
BITMAP
40
20
88
88
88
A8
A8
50
50
ENDCHAR
STARTCHAR LATIN SMALL LETTER W WITH GRAVE
ENCODING 7809
SWIDTH 640 0
DWIDTH 6 0
BBX 5 8 0 0
BITMAP
40
20
00
88
A8
A8
A8
50
ENDCHAR
STARTCHAR LATIN CAPITAL LETTER W WITH ACUTE
ENCODING 7810
SWIDTH 640 0
DWIDTH 6 0
BBX 5 9 0 0
BITMAP
10
20
88
88
88
A8
A8
50
50
ENDCHAR
STARTCHAR LATIN SMALL LETTER W WITH ACUTE
ENCODING 7811
SWIDTH 640 0
DWIDTH 6 0
BBX 5 8 0 0
BITMAP
10
20
00
88
A8
A8
A8
50
ENDCHAR
STARTCHAR LATIN CAPITAL LETTER W WITH DIAERESIS
ENCODING 7812
SWIDTH 640 0
DWIDTH 6 0
BBX 5 9 0 0
BITMAP
50
00
88
88
88
A8
A8
50
50
ENDCHAR
STARTCHAR LATIN SMALL LETTER W WITH DIAERESIS
ENCODING 7813
SWIDTH 640 0
DWIDTH 6 0
BBX 5 7 0 0
BITMAP
50
00
88
A8
A8
A8
50
ENDCHAR
STARTCHAR LATIN CAPITAL LETTER W WITH DOT ABOVE
ENCODING 7814
SWIDTH 640 0
DWIDTH 6 0
BBX 5 9 0 0
BITMAP
20
00
88
88
88
A8
A8
50
50
ENDCHAR
STARTCHAR LATIN SMALL LETTER W WITH DOT ABOVE
ENCODING 7815
SWIDTH 640 0
DWIDTH 6 0
BBX 5 7 0 0
BITMAP
20
00
88
A8
A8
A8
50
ENDCHAR
STARTCHAR LATIN CAPITAL LETTER W WITH DOT BELOW
ENCODING 7816
SWIDTH 640 0
DWIDTH 6 0
BBX 5 9 0 -2
BITMAP
88
88
88
A8
A8
50
50
00
20
ENDCHAR
STARTCHAR LATIN SMALL LETTER W WITH DOT BELOW
ENCODING 7817
SWIDTH 640 0
DWIDTH 6 0
BBX 5 7 0 -2
BITMAP
88
A8
A8
A8
50
00
20
ENDCHAR
STARTCHAR LATIN CAPITAL LETTER X WITH DOT ABOVE
ENCODING 7818
SWIDTH 640 0
DWIDTH 6 0
BBX 5 9 0 0
BITMAP
20
00
88
88
50
20
50
88
88
ENDCHAR
STARTCHAR LATIN SMALL LETTER X WITH DOT ABOVE
ENCODING 7819
SWIDTH 640 0
DWIDTH 6 0
BBX 5 7 0 0
BITMAP
20
00
88
50
20
50
88
ENDCHAR
STARTCHAR LATIN CAPITAL LETTER X WITH DIAERESIS
ENCODING 7820
SWIDTH 640 0
DWIDTH 6 0
BBX 5 9 0 0
BITMAP
50
00
88
88
50
20
50
88
88
ENDCHAR
STARTCHAR LATIN SMALL LETTER X WITH DIAERESIS
ENCODING 7821
SWIDTH 640 0
DWIDTH 6 0
BBX 5 7 0 0
BITMAP
50
00
88
50
20
50
88
ENDCHAR
STARTCHAR LATIN CAPITAL LETTER Y WITH DOT ABOVE
ENCODING 7822
SWIDTH 640 0
DWIDTH 6 0
BBX 5 9 0 0
BITMAP
20
00
88
88
88
50
20
20
20
ENDCHAR
STARTCHAR LATIN SMALL LETTER Y WITH DOT ABOVE
ENCODING 7823
SWIDTH 640 0
DWIDTH 6 0
BBX 5 9 0 -2
BITMAP
20
00
88
88
88
88
78
08
70
ENDCHAR
STARTCHAR LATIN CAPITAL LETTER Z WITH CIRCUMFLEX
ENCODING 7824
SWIDTH 640 0
DWIDTH 6 0
BBX 5 9 0 0
BITMAP
20
50
F8
08
10
20
40
80
F8
ENDCHAR
STARTCHAR LATIN SMALL LETTER Z WITH CIRCUMFLEX
ENCODING 7825
SWIDTH 640 0
DWIDTH 6 0
BBX 5 8 0 0
BITMAP
20
50
00
F8
10
20
40
F8
ENDCHAR
STARTCHAR LATIN CAPITAL LETTER Z WITH DOT BELOW
ENCODING 7826
SWIDTH 640 0
DWIDTH 6 0
BBX 5 9 0 -2
BITMAP
F8
08
10
20
40
80
F8
00
20
ENDCHAR
STARTCHAR LATIN SMALL LETTER Z WITH DOT BELOW
ENCODING 7827
SWIDTH 640 0
DWIDTH 6 0
BBX 5 7 0 -2
BITMAP
F8
10
20
40
F8
00
20
ENDCHAR
STARTCHAR LATIN CAPITAL LETTER Z WITH LINE BELOW
ENCODING 7828
SWIDTH 640 0
DWIDTH 6 0
BBX 5 9 0 -2
BITMAP
F8
08
10
20
40
80
F8
00
70
ENDCHAR
STARTCHAR LATIN SMALL LETTER Z WITH LINE BELOW
ENCODING 7829
SWIDTH 640 0
DWIDTH 6 0
BBX 5 7 0 -2
BITMAP
F8
10
20
40
F8
00
70
ENDCHAR
STARTCHAR LATIN SMALL LETTER H WITH LINE BELOW
ENCODING 7830
SWIDTH 533 0
DWIDTH 5 0
BBX 5 9 0 -2
BITMAP
80
80
F0
88
88
88
88
00
F8
ENDCHAR
STARTCHAR LATIN SMALL LETTER T WITH DIAERESIS
ENCODING 7831
SWIDTH 640 0
DWIDTH 6 0
BBX 4 9 1 0
BITMAP
A0
00
40
40
F0
40
40
40
30
ENDCHAR
STARTCHAR LATIN SMALL LETTER W WITH RING ABOVE
ENCODING 7832
SWIDTH 533 0
DWIDTH 5 0
BBX 5 8 0 0
BITMAP
20
50
20
88
A8
A8
A8
50
ENDCHAR
STARTCHAR LATIN SMALL LETTER Y WITH RING ABOVE
ENCODING 7833
SWIDTH 533 0
DWIDTH 5 0
BBX 5 10 0 -2
BITMAP
20
50
20
88
88
88
88
78
08
70
ENDCHAR
STARTCHAR LATIN SMALL LETTER A WITH RIGHT HALF RING
ENCODING 7834
SWIDTH 533 0
DWIDTH 5 0
BBX 5 9 0 0
BITMAP
20
10
20
00
78
88
88
98
68
ENDCHAR
STARTCHAR LATIN SMALL LETTER LONG S WITH DOT ABOVE
ENCODING 7835
SWIDTH 640 0
DWIDTH 6 0
BBX 4 9 1 0
BITMAP
20
00
30
40
C0
40
40
40
40
ENDCHAR
STARTCHAR LATIN SMALL LETTER LONG S WITH DIAGONAL STROKE
ENCODING 7836
SWIDTH 640 0
DWIDTH 6 0
BBX 4 7 1 0
BITMAP
30
40
C0
60
C0
40
40
ENDCHAR
STARTCHAR LATIN SMALL LETTER LONG S WITH HIGH STROKE
ENCODING 7837
SWIDTH 640 0
DWIDTH 6 0
BBX 4 7 1 0
BITMAP
30
E0
40
C0
40
40
40
ENDCHAR
STARTCHAR LATIN CAPITAL LETTER SHARP S
ENCODING 7838
SWIDTH 640 0
DWIDTH 6 0
BBX 5 9 0 -1
BITMAP
30
48
88
90
90
88
88
B0
80
ENDCHAR
STARTCHAR LATIN SMALL LETTER DELTA
ENCODING 7839
SWIDTH 640 0
DWIDTH 6 0
BBX 5 8 0 0
BITMAP
70
88
80
70
88
88
88
70
ENDCHAR
STARTCHAR LATIN CAPITAL LETTER A WITH DOT BELOW
ENCODING 7840
SWIDTH 533 0
DWIDTH 5 0
BBX 5 8 0 -1
BITMAP
70
88
88
F8
88
88
88
20
ENDCHAR
STARTCHAR LATIN SMALL LETTER A WITH DOT BELOW
ENCODING 7841
SWIDTH 533 0
DWIDTH 5 0
BBX 5 7 0 -2
BITMAP
78
88
88
98
68
00
20
ENDCHAR
STARTCHAR LATIN CAPITAL LETTER A WITH HOOK ABOVE
ENCODING 7842
SWIDTH 533 0
DWIDTH 5 0
BBX 5 9 0 0
BITMAP
40
20
70
88
88
F8
88
88
88
ENDCHAR
STARTCHAR LATIN SMALL LETTER A WITH HOOK ABOVE
ENCODING 7843
SWIDTH 533 0
DWIDTH 5 0
BBX 5 9 0 0
BITMAP
20
50
10
20
78
88
88
98
68
ENDCHAR
STARTCHAR LATIN CAPITAL LETTER A WITH CIRCUMFLEX AND ACUTE
ENCODING 7844
SWIDTH 533 0
DWIDTH 5 0
BBX 5 9 0 0
BITMAP
48
B0
70
88
88
F8
88
88
88
ENDCHAR
STARTCHAR LATIN SMALL LETTER A WITH CIRCUMFLEX AND ACUTE
ENCODING 7845
SWIDTH 533 0
DWIDTH 5 0
BBX 5 8 0 0
BITMAP
48
B0
00
78
88
88
98
68
ENDCHAR
STARTCHAR LATIN CAPITAL LETTER A WITH CIRCUMFLEX AND GRAVE
ENCODING 7846
SWIDTH 533 0
DWIDTH 5 0
BBX 5 9 0 0
BITMAP
90
68
70
88
88
F8
88
88
88
ENDCHAR
STARTCHAR LATIN SMALL LETTER A WITH CIRCUMFLEX AND GRAVE
ENCODING 7847
SWIDTH 533 0
DWIDTH 5 0
BBX 5 8 0 0
BITMAP
90
68
00
78
88
88
98
68
ENDCHAR
STARTCHAR LATIN SMALL LETTER O WITH CIRCUMFLEX AND GRAVE
ENCODING 7891
SWIDTH 640 0
DWIDTH 6 0
BBX 5 9 0 0
BITMAP
40
20
50
00
70
88
88
88
70
ENDCHAR
STARTCHAR HYPHEN
ENCODING 8208
SWIDTH 640 0
DWIDTH 6 0
BBX 3 1 1 3
BITMAP
E0
ENDCHAR
STARTCHAR NON-BREAKING HYPHEN
ENCODING 8209
SWIDTH 640 0
DWIDTH 6 0
BBX 3 1 1 3
BITMAP
E0
ENDCHAR
STARTCHAR FIGURE DASH
ENCODING 8210
SWIDTH 640 0
DWIDTH 6 0
BBX 4 1 1 3
BITMAP
F0
ENDCHAR
STARTCHAR EN DASH
ENCODING 8211
SWIDTH 640 0
DWIDTH 6 0
BBX 4 1 1 3
BITMAP
F0
ENDCHAR
STARTCHAR EM DASH
ENCODING 8212
SWIDTH 640 0
DWIDTH 6 0
BBX 6 1 0 3
BITMAP
FC
ENDCHAR
STARTCHAR HORIZONTAL BAR
ENCODING 8213
SWIDTH 640 0
DWIDTH 6 0
BBX 7 1 0 3
BITMAP
FE
ENDCHAR
STARTCHAR DOUBLE VERTICAL LINE
ENCODING 8214
SWIDTH 640 0
DWIDTH 6 0
BBX 4 10 0 -2
BITMAP
50
50
50
50
50
50
50
50
50
50
ENDCHAR
STARTCHAR DOUBLE LOW LINE
ENCODING 8215
SWIDTH 640 0
DWIDTH 6 0
BBX 5 1 0 0
BITMAP
F8
ENDCHAR
STARTCHAR LEFT SINGLE QUOTATION MARK
ENCODING 8216
SWIDTH 640 0
DWIDTH 6 0
BBX 2 3 2 4
BITMAP
40
80
C0
ENDCHAR
STARTCHAR RIGHT SINGLE QUOTATION MARK
ENCODING 8217
SWIDTH 640 0
DWIDTH 6 0
BBX 2 3 2 4
BITMAP
C0
40
80
ENDCHAR
STARTCHAR SINGLE LOW-9 QUOTATION MARK
ENCODING 8218
SWIDTH 640 0
DWIDTH 6 0
BBX 2 4 2 -2
BITMAP
C0
C0
40
80
ENDCHAR
STARTCHAR SINGLE HIGH-REVERSED-9 QUOTATION MARK
ENCODING 8219
SWIDTH 640 0
DWIDTH 6 0
BBX 2 3 2 4
BITMAP
C0
80
40
ENDCHAR
STARTCHAR LEFT DOUBLE QUOTATION MARK
ENCODING 8220
SWIDTH 640 0
DWIDTH 6 0
BBX 4 3 1 4
BITMAP
50
A0
F0
ENDCHAR
STARTCHAR RIGHT DOUBLE QUOTATION MARK
ENCODING 8221
SWIDTH 640 0
DWIDTH 6 0
BBX 4 3 1 4
BITMAP
F0
50
A0
ENDCHAR
STARTCHAR DOUBLE LOW-9 QUOTATION MARK
ENCODING 8222
SWIDTH 640 0
DWIDTH 6 0
BBX 4 3 1 -1
BITMAP
F0
50
A0
ENDCHAR
STARTCHAR DOUBLE HIGH-REVERSED-9 QUOTATION MARK
ENCODING 8223
SWIDTH 640 0
DWIDTH 6 0
BBX 4 3 1 4
BITMAP
F0
A0
50
ENDCHAR
STARTCHAR DAGGER
ENCODING 8224
SWIDTH 640 0
DWIDTH 6 0
BBX 3 6 1 1
BITMAP
40
E0
40
40
40
40
ENDCHAR
STARTCHAR DOUBLE DAGGER
ENCODING 8225
SWIDTH 640 0
DWIDTH 6 0
BBX 3 9 1 -2
BITMAP
40
40
E0
40
40
40
E0
40
40
ENDCHAR
STARTCHAR BULLET
ENCODING 8226
SWIDTH 640 0
DWIDTH 6 0
BBX 5 5 0 1
BITMAP
70
F8
F8
F8
70
ENDCHAR
STARTCHAR TRIANGULAR BULLET
ENCODING 8227
SWIDTH 640 0
DWIDTH 6 0
BBX 6 5 0 1
BITMAP
C0
F0
FC
F0
C0
ENDCHAR
STARTCHAR ONE DOT LEADER
ENCODING 8228
SWIDTH 640 0
DWIDTH 6 0
BBX 1 1 2 0
BITMAP
80
ENDCHAR
STARTCHAR TWO DOT LEADER
ENCODING 8229
SWIDTH 640 0
DWIDTH 6 0
BBX 3 1 1 0
BITMAP
A0
ENDCHAR
STARTCHAR HORIZONTAL ELLIPSIS
ENCODING 8230
SWIDTH 640 0
DWIDTH 6 0
BBX 5 1 0 0
BITMAP
A8
ENDCHAR
STARTCHAR HYPHENATION POINT
ENCODING 8231
SWIDTH 640 0
DWIDTH 6 0
BBX 1 1 2 2
BITMAP
80
ENDCHAR
STARTCHAR PER MILLE SIGN
ENCODING 8240
SWIDTH 640 0
DWIDTH 6 0
BBX 7 7 -1 0
BITMAP
48
A8
50
20
54
AA
94
ENDCHAR
STARTCHAR PER TEN THOUSAND SIGN
ENCODING 8241
SWIDTH 746 0
DWIDTH 7 0
BBX 7 7 0 0
BITMAP
48
A8
50
20
54
AA
D4
ENDCHAR
STARTCHAR PRIME
ENCODING 8242
SWIDTH 640 0
DWIDTH 6 0
BBX 2 3 1 4
BITMAP
40
40
80
ENDCHAR
STARTCHAR DOUBLE PRIME
ENCODING 8243
SWIDTH 640 0
DWIDTH 6 0
BBX 4 3 0 4
BITMAP
50
50
A0
ENDCHAR
STARTCHAR TRIPLE PRIME
ENCODING 8244
SWIDTH 640 0
DWIDTH 6 0
BBX 6 3 0 4
BITMAP
54
54
A8
ENDCHAR
STARTCHAR REVERSED PRIME
ENCODING 8245
SWIDTH 640 0
DWIDTH 6 0
BBX 2 3 1 4
BITMAP
80
80
40
ENDCHAR
STARTCHAR REVERSED DOUBLE PRIME
ENCODING 8246
SWIDTH 640 0
DWIDTH 6 0
BBX 4 3 0 4
BITMAP
A0
A0
50
ENDCHAR
STARTCHAR REVERSED TRIPLE PRIME
ENCODING 8247
SWIDTH 640 0
DWIDTH 6 0
BBX 6 3 0 4
BITMAP
A8
A8
54
ENDCHAR
STARTCHAR CARET
ENCODING 8248
SWIDTH 640 0
DWIDTH 6 0
BBX 5 3 0 0
BITMAP
20
50
88
ENDCHAR
STARTCHAR SINGLE LEFT-POINTING ANGLE QUOTATION MARK
ENCODING 8249
SWIDTH 640 0
DWIDTH 6 0
BBX 2 4 1 1
BITMAP
40
80
80
40
ENDCHAR
STARTCHAR SINGLE RIGHT-POINTING ANGLE QUOTATION MARK
ENCODING 8250
SWIDTH 640 0
DWIDTH 6 0
BBX 2 4 2 1
BITMAP
80
40
40
80
ENDCHAR
STARTCHAR DOUBLE EXCLAMATION MARK
ENCODING 8252
SWIDTH 640 0
DWIDTH 6 0
BBX 3 7 1 0
BITMAP
A0
A0
A0
A0
A0
00
A0
ENDCHAR
STARTCHAR INTERROBANG
ENCODING 8253
SWIDTH 640 0
DWIDTH 6 0
BBX 5 7 0 0
BITMAP
70
A8
28
30
20
00
20
ENDCHAR
STARTCHAR OVERLINE
ENCODING 8254
SWIDTH 640 0
DWIDTH 6 0
BBX 3 1 0 7
BITMAP
E0
ENDCHAR
STARTCHAR UNDERTIE
ENCODING 8255
SWIDTH 640 0
DWIDTH 6 0
BBX 5 2 0 0
BITMAP
88
70
ENDCHAR
STARTCHAR CHARACTER TIE
ENCODING 8256
SWIDTH 640 0
DWIDTH 6 0
BBX 5 2 0 6
BITMAP
70
88
ENDCHAR
STARTCHAR CARET INSERTION POINT
ENCODING 8257
SWIDTH 640 0
DWIDTH 6 0
BBX 3 6 1 -2
BITMAP
20
20
40
40
A0
A0
ENDCHAR
STARTCHAR ASTERISM
ENCODING 8258
SWIDTH 640 0
DWIDTH 6 0
BBX 5 6 0 0
BITMAP
20
70
20
50
F8
50
ENDCHAR
STARTCHAR HYPHEN BULLET
ENCODING 8259
SWIDTH 640 0
DWIDTH 6 0
BBX 4 2 1 2
BITMAP
F0
F0
ENDCHAR
STARTCHAR FRACTION SLASH
ENCODING 8260
SWIDTH 640 0
DWIDTH 6 0
BBX 5 10 0 -2
BITMAP
08
08
10
10
20
20
40
40
80
80
ENDCHAR
STARTCHAR LEFT SQUARE BRACKET WITH QUILL
ENCODING 8261
SWIDTH 640 0
DWIDTH 6 0
BBX 4 9 0 -1
BITMAP
70
40
40
40
70
40
40
40
70
ENDCHAR
STARTCHAR RIGHT SQUARE BRACKET WITH QUILL
ENCODING 8262
SWIDTH 640 0
DWIDTH 6 0
BBX 4 9 0 -1
BITMAP
70
10
10
10
70
10
10
10
70
ENDCHAR
STARTCHAR DOUBLE QUESTION MARK
ENCODING 8263
SWIDTH 640 0
DWIDTH 6 0
BBX 5 7 0 0
BITMAP
50
A8
28
50
50
00
50
ENDCHAR
STARTCHAR QUESTION EXCLAMATION MARK
ENCODING 8264
SWIDTH 640 0
DWIDTH 6 0
BBX 5 7 0 0
BITMAP
48
A8
28
48
48
00
48
ENDCHAR
STARTCHAR EXCLAMATION QUESTION MARK
ENCODING 8265
SWIDTH 640 0
DWIDTH 6 0
BBX 5 7 0 0
BITMAP
90
A8
88
90
90
00
90
ENDCHAR
STARTCHAR TIRONIAN SIGN ET
ENCODING 8266
SWIDTH 640 0
DWIDTH 6 0
BBX 4 5 0 -1
BITMAP
F0
10
10
10
10
ENDCHAR
STARTCHAR REVERSED PILCROW SIGN
ENCODING 8267
SWIDTH 640 0
DWIDTH 6 0
BBX 6 8 0 0
BITMAP
F8
5C
5C
5C
78
50
50
D0
ENDCHAR
STARTCHAR BLACK LEFTWARDS BULLET
ENCODING 8268
SWIDTH 640 0
DWIDTH 6 0
BBX 5 4 0 1
BITMAP
58
D8
D8
58
ENDCHAR
STARTCHAR BLACK RIGHTWARDS BULLET
ENCODING 8269
SWIDTH 640 0
DWIDTH 6 0
BBX 5 4 0 1
BITMAP
D0
D8
D8
D0
ENDCHAR
STARTCHAR LOW ASTERISK
ENCODING 8270
SWIDTH 640 0
DWIDTH 6 0
BBX 5 5 0 -1
BITMAP
20
A8
70
A8
20
ENDCHAR
STARTCHAR REVERSED SEMICOLON
ENCODING 8271
SWIDTH 640 0
DWIDTH 6 0
BBX 2 8 2 -2
BITMAP
C0
C0
00
00
C0
C0
80
40
ENDCHAR
STARTCHAR CLOSE UP
ENCODING 8272
SWIDTH 640 0
DWIDTH 6 0
BBX 5 8 0 0
BITMAP
70
88
00
00
00
00
88
70
ENDCHAR
STARTCHAR TWO ASTERISKS ALIGNED VERTICALLY
ENCODING 8273
SWIDTH 640 0
DWIDTH 6 0
BBX 5 7 0 -1
BITMAP
20
A8
70
A8
70
A8
20
ENDCHAR
STARTCHAR COMMERCIAL MINUS SIGN
ENCODING 8274
SWIDTH 640 0
DWIDTH 6 0
BBX 4 8 0 -1
BITMAP
90
10
20
20
40
40
80
90
ENDCHAR
STARTCHAR SWUNG DASH
ENCODING 8275
SWIDTH 640 0
DWIDTH 6 0
BBX 6 2 0 3
BITMAP
64
98
ENDCHAR
STARTCHAR INVERTED UNDERTIE
ENCODING 8276
SWIDTH 640 0
DWIDTH 6 0
BBX 5 2 0 0
BITMAP
70
88
ENDCHAR
STARTCHAR FLOWER PUNCTUATION MARK
ENCODING 8277
SWIDTH 640 0
DWIDTH 6 0
BBX 5 5 0 1
BITMAP
A8
70
F8
70
A8
ENDCHAR
STARTCHAR THREE DOT PUNCTUATION
ENCODING 8278
SWIDTH 640 0
DWIDTH 6 0
BBX 3 5 0 0
BITMAP
20
00
80
00
20
ENDCHAR
STARTCHAR QUADRUPLE PRIME
ENCODING 8279
SWIDTH 640 0
DWIDTH 6 0
BBX 5 3 0 4
BITMAP
78
78
F0
ENDCHAR
STARTCHAR FOUR DOT PUNCTUATION
ENCODING 8280
SWIDTH 640 0
DWIDTH 6 0
BBX 5 5 0 0
BITMAP
20
00
88
00
20
ENDCHAR
STARTCHAR FIVE DOT PUNCTUATION
ENCODING 8281
SWIDTH 640 0
DWIDTH 6 0
BBX 5 5 0 0
BITMAP
88
00
20
00
88
ENDCHAR
STARTCHAR TWO DOT PUNCTUATION
ENCODING 8282
SWIDTH 640 0
DWIDTH 6 0
BBX 1 5 0 0
BITMAP
80
00
00
00
80
ENDCHAR
STARTCHAR FOUR DOT MARK
ENCODING 8283
SWIDTH 640 0
DWIDTH 6 0
BBX 5 7 0 0
BITMAP
20
00
00
88
00
00
20
ENDCHAR
STARTCHAR DOTTED CROSS
ENCODING 8284
SWIDTH 640 0
DWIDTH 6 0
BBX 5 5 0 0
BITMAP
A8
20
F8
20
A8
ENDCHAR
STARTCHAR TRICOLON
ENCODING 8285
SWIDTH 640 0
DWIDTH 6 0
BBX 2 8 2 -1
BITMAP
C0
C0
00
C0
C0
00
C0
C0
ENDCHAR
STARTCHAR VERTICAL FOUR DOTS
ENCODING 8286
SWIDTH 640 0
DWIDTH 6 0
BBX 1 7 0 0
BITMAP
80
00
80
00
80
00
80
ENDCHAR
STARTCHAR SUPERSCRIPT ZERO
ENCODING 8304
SWIDTH 640 0
DWIDTH 6 0
BBX 3 5 1 3
BITMAP
40
A0
A0
A0
40
ENDCHAR
STARTCHAR SUPERSCRIPT LATIN SMALL LETTER I
ENCODING 8305
SWIDTH 640 0
DWIDTH 6 0
BBX 3 6 1 3
BITMAP
40
00
C0
40
40
60
ENDCHAR
STARTCHAR SUPERSCRIPT FOUR
ENCODING 8308
SWIDTH 640 0
DWIDTH 6 0
BBX 3 5 1 3
BITMAP
80
A0
E0
20
20
ENDCHAR
STARTCHAR SUPERSCRIPT FIVE
ENCODING 8309
SWIDTH 640 0
DWIDTH 6 0
BBX 3 5 1 3
BITMAP
E0
80
C0
20
C0
ENDCHAR
STARTCHAR SUPERSCRIPT SIX
ENCODING 8310
SWIDTH 640 0
DWIDTH 6 0
BBX 3 5 1 3
BITMAP
40
80
C0
A0
40
ENDCHAR
STARTCHAR SUPERSCRIPT SEVEN
ENCODING 8311
SWIDTH 640 0
DWIDTH 6 0
BBX 3 5 1 3
BITMAP
E0
20
20
40
40
ENDCHAR
STARTCHAR SUPERSCRIPT EIGHT
ENCODING 8312
SWIDTH 640 0
DWIDTH 6 0
BBX 3 5 1 3
BITMAP
40
A0
40
A0
40
ENDCHAR
STARTCHAR SUPERSCRIPT NINE
ENCODING 8313
SWIDTH 640 0
DWIDTH 6 0
BBX 3 5 1 3
BITMAP
40
A0
60
20
40
ENDCHAR
STARTCHAR SUPERSCRIPT PLUS SIGN
ENCODING 8314
SWIDTH 640 0
DWIDTH 6 0
BBX 3 3 1 4
BITMAP
40
E0
40
ENDCHAR
STARTCHAR SUPERSCRIPT MINUS
ENCODING 8315
SWIDTH 640 0
DWIDTH 6 0
BBX 3 1 1 5
BITMAP
E0
ENDCHAR
STARTCHAR SUPERSCRIPT EQUALS SIGN
ENCODING 8316
SWIDTH 640 0
DWIDTH 6 0
BBX 3 3 1 4
BITMAP
E0
00
E0
ENDCHAR
STARTCHAR SUPERSCRIPT LEFT PARENTHESIS
ENCODING 8317
SWIDTH 640 0
DWIDTH 6 0
BBX 2 5 1 3
BITMAP
40
80
80
80
40
ENDCHAR
STARTCHAR SUPERSCRIPT RIGHT PARENTHESIS
ENCODING 8318
SWIDTH 640 0
DWIDTH 6 0
BBX 2 5 2 3
BITMAP
80
40
40
40
80
ENDCHAR
STARTCHAR SUPERSCRIPT LATIN SMALL LETTER N
ENCODING 8319
SWIDTH 640 0
DWIDTH 6 0
BBX 3 3 1 3
BITMAP
C0
A0
A0
ENDCHAR
STARTCHAR SUBSCRIPT ZERO
ENCODING 8320
SWIDTH 640 0
DWIDTH 6 0
BBX 3 5 1 -2
BITMAP
40
A0
A0
A0
40
ENDCHAR
STARTCHAR SUBSCRIPT ONE
ENCODING 8321
SWIDTH 640 0
DWIDTH 6 0
BBX 3 5 1 -2
BITMAP
C0
40
40
40
E0
ENDCHAR
STARTCHAR SUBSCRIPT TWO
ENCODING 8322
SWIDTH 640 0
DWIDTH 6 0
BBX 4 5 0 -2
BITMAP
60
10
20
40
70
ENDCHAR
STARTCHAR SUBSCRIPT THREE
ENCODING 8323
SWIDTH 640 0
DWIDTH 6 0
BBX 3 5 1 -2
BITMAP
C0
20
40
20
C0
ENDCHAR
STARTCHAR SUBSCRIPT FOUR
ENCODING 8324
SWIDTH 640 0
DWIDTH 6 0
BBX 3 5 1 -2
BITMAP
80
A0
E0
20
20
ENDCHAR
STARTCHAR SUBSCRIPT FIVE
ENCODING 8325
SWIDTH 640 0
DWIDTH 6 0
BBX 3 5 1 -2
BITMAP
E0
80
C0
20
C0
ENDCHAR
STARTCHAR SUBSCRIPT SIX
ENCODING 8326
SWIDTH 640 0
DWIDTH 6 0
BBX 3 5 1 -2
BITMAP
40
80
C0
A0
40
ENDCHAR
STARTCHAR SUBSCRIPT SEVEN
ENCODING 8327
SWIDTH 640 0
DWIDTH 6 0
BBX 3 5 1 -2
BITMAP
E0
20
20
40
40
ENDCHAR
STARTCHAR SUBSCRIPT EIGHT
ENCODING 8328
SWIDTH 640 0
DWIDTH 6 0
BBX 3 5 1 -2
BITMAP
40
A0
40
A0
40
ENDCHAR
STARTCHAR SUBSCRIPT NINE
ENCODING 8329
SWIDTH 640 0
DWIDTH 6 0
BBX 3 5 1 -2
BITMAP
40
A0
60
20
40
ENDCHAR
STARTCHAR SUBSCRIPT PLUS SIGN
ENCODING 8330
SWIDTH 640 0
DWIDTH 6 0
BBX 3 3 1 -1
BITMAP
40
E0
40
ENDCHAR
STARTCHAR SUBSCRIPT MINUS
ENCODING 8331
SWIDTH 640 0
DWIDTH 6 0
BBX 3 1 1 0
BITMAP
E0
ENDCHAR
STARTCHAR SUBSCRIPT EQUALS SIGN
ENCODING 8332
SWIDTH 640 0
DWIDTH 6 0
BBX 3 3 1 -1
BITMAP
E0
00
E0
ENDCHAR
STARTCHAR SUBSCRIPT LEFT PARENTHESIS
ENCODING 8333
SWIDTH 640 0
DWIDTH 6 0
BBX 2 5 1 -2
BITMAP
40
80
80
80
40
ENDCHAR
STARTCHAR SUBSCRIPT RIGHT PARENTHESIS
ENCODING 8334
SWIDTH 640 0
DWIDTH 6 0
BBX 2 5 2 -2
BITMAP
80
40
40
40
80
ENDCHAR
STARTCHAR LATIN SUBSCRIPT SMALL LETTER A
ENCODING 8336
SWIDTH 640 0
DWIDTH 6 0
BBX 3 5 1 -2
BITMAP
40
20
60
A0
60
ENDCHAR
STARTCHAR LATIN SUBSCRIPT SMALL LETTER E
ENCODING 8337
SWIDTH 640 0
DWIDTH 6 0
BBX 4 5 1 -2
BITMAP
40
A0
E0
80
60
ENDCHAR
STARTCHAR LATIN SUBSCRIPT SMALL LETTER O
ENCODING 8338
SWIDTH 640 0
DWIDTH 6 0
BBX 4 4 1 -2
BITMAP
60
90
90
60
ENDCHAR
STARTCHAR LATIN SUBSCRIPT SMALL LETTER X
ENCODING 8339
SWIDTH 640 0
DWIDTH 6 0
BBX 3 4 1 -2
BITMAP
A0
40
40
A0
ENDCHAR
STARTCHAR LATIN SUBSCRIPT SMALL LETTER SCHWA
ENCODING 8340
SWIDTH 640 0
DWIDTH 6 0
BBX 4 5 0 -2
BITMAP
60
10
70
50
20
ENDCHAR
STARTCHAR LATIN SUBSCRIPT SMALL LETTER H
ENCODING 8341
SWIDTH 640 0
DWIDTH 6 0
BBX 3 5 1 -2
BITMAP
80
80
C0
A0
A0
ENDCHAR
STARTCHAR LATIN SUBSCRIPT SMALL LETTER K
ENCODING 8342
SWIDTH 640 0
DWIDTH 6 0
BBX 4 5 0 -2
BITMAP
40
40
50
60
50
ENDCHAR
STARTCHAR LATIN SUBSCRIPT SMALL LETTER L
ENCODING 8343
SWIDTH 640 0
DWIDTH 6 0
BBX 3 5 1 -2
BITMAP
C0
40
40
40
60
ENDCHAR
STARTCHAR LATIN SUBSCRIPT SMALL LETTER M
ENCODING 8344
SWIDTH 640 0
DWIDTH 6 0
BBX 6 3 0 -2
BITMAP
68
54
54
ENDCHAR
STARTCHAR LATIN SUBSCRIPT SMALL LETTER N
ENCODING 8345
SWIDTH 640 0
DWIDTH 6 0
BBX 3 3 1 -2
BITMAP
C0
A0
A0
ENDCHAR
STARTCHAR LATIN SUBSCRIPT SMALL LETTER P
ENCODING 8346
SWIDTH 640 0
DWIDTH 6 0
BBX 3 4 1 -2
BITMAP
C0
A0
C0
80
ENDCHAR
STARTCHAR LATIN SUBSCRIPT SMALL LETTER S
ENCODING 8347
SWIDTH 640 0
DWIDTH 6 0
BBX 3 4 1 -2
BITMAP
60
C0
20
C0
ENDCHAR
STARTCHAR LATIN SUBSCRIPT SMALL LETTER T
ENCODING 8348
SWIDTH 640 0
DWIDTH 6 0
BBX 3 5 1 -2
BITMAP
40
E0
40
40
20
ENDCHAR
STARTCHAR EURO-CURRENCY SIGN
ENCODING 8352
SWIDTH 533 0
DWIDTH 5 0
BBX 5 7 0 0
BITMAP
70
80
B8
A0
78
20
38
ENDCHAR
STARTCHAR COLON SIGN
ENCODING 8353
SWIDTH 640 0
DWIDTH 6 0
BBX 6 10 0 -2
BITMAP
14
74
A8
A8
A8
D0
D8
70
A0
A0
ENDCHAR
STARTCHAR CRUZEIRO SIGN
ENCODING 8354
SWIDTH 533 0
DWIDTH 5 0
BBX 5 7 0 0
BITMAP
70
88
80
A8
B0
A8
70
ENDCHAR
STARTCHAR FRENCH FRANC SIGN
ENCODING 8355
SWIDTH 533 0
DWIDTH 5 0
BBX 5 7 0 0
BITMAP
78
40
40
70
40
E0
40
ENDCHAR
STARTCHAR LIRA SIGN
ENCODING 8356
SWIDTH 533 0
DWIDTH 5 0
BBX 5 7 0 0
BITMAP
30
48
E0
40
E0
48
B0
ENDCHAR
STARTCHAR MILL SIGN
ENCODING 8357
SWIDTH 533 0
DWIDTH 5 0
BBX 5 7 0 -1
BITMAP
10
D0
A8
A8
A8
E8
40
ENDCHAR
STARTCHAR NAIRA SIGN
ENCODING 8358
SWIDTH 533 0
DWIDTH 5 0
BBX 5 7 0 0
BITMAP
C8
C8
F8
A8
F8
98
98
ENDCHAR
STARTCHAR PESETA SIGN
ENCODING 8359
SWIDTH 533 0
DWIDTH 5 0
BBX 5 7 0 0
BITMAP
88
88
F8
A8
F8
50
50
ENDCHAR
STARTCHAR EURO SIGN
ENCODING 8364
SWIDTH 640 0
DWIDTH 6 0
BBX 5 7 0 0
BITMAP
30
48
E0
40
E0
48
30
ENDCHAR
STARTCHAR DEGREE CELSIUS
ENCODING 8451
SWIDTH 640 0
DWIDTH 6 0
BBX 6 9 0 0
BITMAP
40
A0
58
24
20
20
20
24
18
ENDCHAR
STARTCHAR DEGREE FAHRENHEIT
ENCODING 8457
SWIDTH 640 0
DWIDTH 6 0
BBX 6 9 0 0
BITMAP
40
A0
7C
20
20
38
20
20
20
ENDCHAR
STARTCHAR NUMERO SIGN
ENCODING 8470
SWIDTH 640 0
DWIDTH 6 0
BBX 6 7 0 0
BITMAP
90
90
D8
F4
B8
90
9C
ENDCHAR
STARTCHAR SOUND RECORDING COPYRIGHT
ENCODING 8471
SWIDTH 640 0
DWIDTH 6 0
BBX 5 8 0 -1
BITMAP
F0
08
C8
A8
C8
88
08
F0
ENDCHAR
STARTCHAR TRADE MARK SIGN
ENCODING 8482
SWIDTH 640 0
DWIDTH 6 0
BBX 6 3 0 4
BITMAP
F4
5C
5C
ENDCHAR
STARTCHAR OUNCE SIGN
ENCODING 8485
SWIDTH 533 0
DWIDTH 5 0
BBX 5 11 0 -3
BITMAP
F8
10
20
F8
10
20
70
08
08
88
70
ENDCHAR
STARTCHAR OHM SIGN
ENCODING 8486
SWIDTH 640 0
DWIDTH 6 0
BBX 5 7 0 0
BITMAP
70
88
88
88
88
50
D8
ENDCHAR
STARTCHAR INVERTED OHM SIGN
ENCODING 8487
SWIDTH 640 0
DWIDTH 6 0
BBX 5 7 0 0
BITMAP
D8
50
88
88
88
88
70
ENDCHAR
STARTCHAR KELVIN SIGN
ENCODING 8490
SWIDTH 640 0
DWIDTH 6 0
BBX 5 7 0 0
BITMAP
88
90
A0
C0
A0
90
88
ENDCHAR
STARTCHAR ANGSTROM SIGN
ENCODING 8491
SWIDTH 533 0
DWIDTH 5 0
BBX 5 9 0 0
BITMAP
20
50
70
88
88
F8
88
88
88
ENDCHAR
STARTCHAR SCRIPT SMALL E
ENCODING 8495
SWIDTH 640 0
DWIDTH 6 0
BBX 5 5 0 0
BITMAP
60
90
E0
88
70
ENDCHAR
STARTCHAR SCRIPT CAPITAL M
ENCODING 8499
SWIDTH 640 0
DWIDTH 6 0
BBX 6 7 0 0
BITMAP
28
28
78
78
68
A8
8C
ENDCHAR
STARTCHAR SCRIPT SMALL O
ENCODING 8500
SWIDTH 640 0
DWIDTH 6 0
BBX 6 5 0 0
BITMAP
60
94
98
90
60
ENDCHAR
STARTCHAR ROMAN NUMERAL FIFTY
ENCODING 8556
SWIDTH 640 0
DWIDTH 6 0
BBX 4 7 1 0
BITMAP
80
80
80
80
80
80
F0
ENDCHAR
STARTCHAR LEFTWARDS ARROW
ENCODING 8592
SWIDTH 640 0
DWIDTH 6 0
BBX 6 5 0 1
BITMAP
20
40
FC
40
20
ENDCHAR
STARTCHAR UPWARDS ARROW
ENCODING 8593
SWIDTH 640 0
DWIDTH 6 0
BBX 5 7 0 0
BITMAP
20
70
A8
20
20
20
20
ENDCHAR
STARTCHAR RIGHTWARDS ARROW
ENCODING 8594
SWIDTH 640 0
DWIDTH 6 0
BBX 6 5 0 1
BITMAP
10
08
FC
08
10
ENDCHAR
STARTCHAR DOWNWARDS ARROW
ENCODING 8595
SWIDTH 640 0
DWIDTH 6 0
BBX 5 7 0 0
BITMAP
20
20
20
20
A8
70
20
ENDCHAR
STARTCHAR LEFT RIGHT ARROW
ENCODING 8596
SWIDTH 640 0
DWIDTH 6 0
BBX 6 3 0 2
BITMAP
48
FC
48
ENDCHAR
STARTCHAR UP DOWN ARROW
ENCODING 8597
SWIDTH 640 0
DWIDTH 6 0
BBX 5 9 0 -2
BITMAP
20
70
A8
20
20
20
A8
70
20
ENDCHAR
STARTCHAR NORTH WEST ARROW
ENCODING 8598
SWIDTH 640 0
DWIDTH 6 0
BBX 5 5 0 0
BITMAP
E0
C0
A0
10
08
ENDCHAR
STARTCHAR NORTH EAST ARROW
ENCODING 8599
SWIDTH 640 0
DWIDTH 6 0
BBX 5 5 0 0
BITMAP
38
18
28
40
80
ENDCHAR
STARTCHAR SOUTH EAST ARROW
ENCODING 8600
SWIDTH 640 0
DWIDTH 6 0
BBX 5 5 0 0
BITMAP
80
40
28
18
38
ENDCHAR
STARTCHAR SOUTH WEST ARROW
ENCODING 8601
SWIDTH 640 0
DWIDTH 6 0
BBX 5 5 0 0
BITMAP
08
10
A0
C0
E0
ENDCHAR
STARTCHAR LEFTWARDS ARROW WITH STROKE
ENCODING 8602
SWIDTH 640 0
DWIDTH 6 0
BBX 6 3 0 2
BITMAP
50
FC
48
ENDCHAR
STARTCHAR RIGHTWARDS ARROW WITH STROKE
ENCODING 8603
SWIDTH 640 0
DWIDTH 6 0
BBX 6 3 0 2
BITMAP
28
FC
48
ENDCHAR
STARTCHAR LEFTWARDS WAVE ARROW
ENCODING 8604
SWIDTH 640 0
DWIDTH 6 0
BBX 6 3 0 1
BITMAP
E0
C8
B4
ENDCHAR
STARTCHAR RIGHTWARDS WAVE ARROW
ENCODING 8605
SWIDTH 640 0
DWIDTH 6 0
BBX 6 3 0 1
BITMAP
1C
4C
B4
ENDCHAR
STARTCHAR LEFTWARDS TWO HEADED ARROW
ENCODING 8606
SWIDTH 640 0
DWIDTH 6 0
BBX 6 5 0 1
BITMAP
28
50
FC
50
28
ENDCHAR
STARTCHAR UPWARDS TWO HEADED ARROW
ENCODING 8607
SWIDTH 640 0
DWIDTH 6 0
BBX 5 7 0 0
BITMAP
20
70
A8
70
A8
20
20
ENDCHAR
STARTCHAR RIGHTWARDS TWO HEADED ARROW
ENCODING 8608
SWIDTH 640 0
DWIDTH 6 0
BBX 6 5 0 1
BITMAP
50
28
FC
28
50
ENDCHAR
STARTCHAR DOWNWARDS TWO HEADED ARROW
ENCODING 8609
SWIDTH 640 0
DWIDTH 6 0
BBX 5 7 0 0
BITMAP
20
20
A8
70
A8
70
20
ENDCHAR
STARTCHAR LEFTWARDS ARROW WITH TAIL
ENCODING 8610
SWIDTH 640 0
DWIDTH 6 0
BBX 6 5 0 1
BITMAP
20
44
F8
44
20
ENDCHAR
STARTCHAR RIGHTWARDS ARROW WITH TAIL
ENCODING 8611
SWIDTH 640 0
DWIDTH 6 0
BBX 6 5 0 1
BITMAP
10
88
7C
88
10
ENDCHAR
STARTCHAR LEFTWARDS ARROW FROM BAR
ENCODING 8612
SWIDTH 640 0
DWIDTH 6 0
BBX 6 5 0 1
BITMAP
24
44
FC
44
24
ENDCHAR
STARTCHAR UPWARDS ARROW FROM BAR
ENCODING 8613
SWIDTH 640 0
DWIDTH 6 0
BBX 5 7 0 0
BITMAP
20
70
A8
20
20
20
F8
ENDCHAR
STARTCHAR RIGHTWARDS ARROW FROM BAR
ENCODING 8614
SWIDTH 640 0
DWIDTH 6 0
BBX 6 5 0 1
BITMAP
90
88
FC
88
90
ENDCHAR
STARTCHAR DOWNWARDS ARROW FROM BAR
ENCODING 8615
SWIDTH 640 0
DWIDTH 6 0
BBX 5 7 0 0
BITMAP
F8
20
20
20
A8
70
20
ENDCHAR
STARTCHAR UP DOWN ARROW WITH BASE
ENCODING 8616
SWIDTH 640 0
DWIDTH 6 0
BBX 5 9 0 -2
BITMAP
20
70
A8
20
A8
70
20
00
F8
ENDCHAR
STARTCHAR LEFTWARDS ARROW WITH HOOK
ENCODING 8617
SWIDTH 640 0
DWIDTH 6 0
BBX 6 5 0 1
BITMAP
28
44
F8
40
20
ENDCHAR
STARTCHAR RIGHTWARDS ARROW WITH HOOK
ENCODING 8618
SWIDTH 640 0
DWIDTH 6 0
BBX 6 5 0 1
BITMAP
50
88
7C
08
10
ENDCHAR
STARTCHAR LEFTWARDS ARROW WITH LOOP
ENCODING 8619
SWIDTH 640 0
DWIDTH 6 0
BBX 6 5 0 1
BITMAP
28
54
F8
50
20
ENDCHAR
STARTCHAR RIGHTWARDS ARROW WITH LOOP
ENCODING 8620
SWIDTH 640 0
DWIDTH 6 0
BBX 6 5 0 1
BITMAP
50
A8
7C
28
10
ENDCHAR
STARTCHAR LEFT RIGHT WAVE ARROW
ENCODING 8621
SWIDTH 640 0
DWIDTH 6 0
BBX 6 3 0 2
BITMAP
58
FC
68
ENDCHAR
STARTCHAR LEFT RIGHT ARROW WITH STROKE
ENCODING 8622
SWIDTH 640 0
DWIDTH 6 0
BBX 6 3 0 2
BITMAP
58
FC
68
ENDCHAR
STARTCHAR DOWNWARDS ZIGZAG ARROW
ENCODING 8623
SWIDTH 640 0
DWIDTH 6 0
BBX 5 8 0 0
BITMAP
08
10
20
78
10
A0
C0
E0
ENDCHAR
STARTCHAR UPWARDS ARROW WITH TIP LEFTWARDS
ENCODING 8624
SWIDTH 640 0
DWIDTH 6 0
BBX 6 9 0 0
BITMAP
20
40
FC
44
24
04
04
04
04
ENDCHAR
STARTCHAR UPWARDS ARROW WITH TIP RIGHTWARDS
ENCODING 8625
SWIDTH 640 0
DWIDTH 6 0
BBX 6 9 0 0
BITMAP
10
08
FC
88
90
80
80
80
80
ENDCHAR
STARTCHAR DOWNWARDS ARROW WITH TIP LEFTWARDS
ENCODING 8626
SWIDTH 640 0
DWIDTH 6 0
BBX 6 9 0 0
BITMAP
04
04
04
04
24
44
FC
40
20
ENDCHAR
STARTCHAR DOWNWARDS ARROW WITH TIP RIGHTWARDS
ENCODING 8627
SWIDTH 640 0
DWIDTH 6 0
BBX 6 9 0 -1
BITMAP
80
80
80
80
90
88
FC
08
10
ENDCHAR
STARTCHAR RIGHTWARDS ARROW WITH CORNER DOWNWARDS
ENCODING 8628
SWIDTH 640 0
DWIDTH 6 0
BBX 5 6 0 0
BITMAP
E0
20
20
A8
70
20
ENDCHAR
STARTCHAR DOWNWARDS ARROW WITH CORNER LEFTWARDS
ENCODING 8629
SWIDTH 640 0
DWIDTH 6 0
BBX 6 7 0 0
BITMAP
04
04
24
44
FC
40
20
ENDCHAR
STARTCHAR ANTICLOCKWISE TOP SEMICIRCLE ARROW
ENCODING 8630
SWIDTH 640 0
DWIDTH 6 0
BBX 6 6 0 0
BITMAP
18
24
20
A8
70
20
ENDCHAR
STARTCHAR CLOCKWISE TOP SEMICIRCLE ARROW
ENCODING 8631
SWIDTH 640 0
DWIDTH 6 0
BBX 6 6 0 0
BITMAP
60
90
10
54
38
10
ENDCHAR
STARTCHAR NORTH WEST ARROW TO LONG BAR
ENCODING 8632
SWIDTH 640 0
DWIDTH 6 0
BBX 5 7 0 0
BITMAP
F8
00
E0
C0
A0
10
08
ENDCHAR
STARTCHAR LEFTWARDS ARROW TO BAR OVER RIGHTWARDS ARROW TO BAR
ENCODING 8633
SWIDTH 640 0
DWIDTH 6 0
BBX 6 9 0 -1
BITMAP
24
14
FC
14
B4
A4
FC
A0
90
ENDCHAR
STARTCHAR ANTICLOCKWISE OPEN CIRCLE ARROW
ENCODING 8634
SWIDTH 640 0
DWIDTH 6 0
BBX 5 6 0 0
BITMAP
38
30
A8
88
88
70
ENDCHAR
STARTCHAR CLOCKWISE OPEN CIRCLE ARROW
ENCODING 8635
SWIDTH 640 0
DWIDTH 6 0
BBX 5 6 0 0
BITMAP
E0
60
A8
88
88
70
ENDCHAR
STARTCHAR LEFTWARDS HARPOON WITH BARB UPWARDS
ENCODING 8636
SWIDTH 640 0
DWIDTH 6 0
BBX 6 3 0 3
BITMAP
20
40
FC
ENDCHAR
STARTCHAR LEFTWARDS HARPOON WITH BARB DOWNWARDS
ENCODING 8637
SWIDTH 640 0
DWIDTH 6 0
BBX 6 3 0 1
BITMAP
FC
40
20
ENDCHAR
STARTCHAR UPWARDS HARPOON WITH BARB RIGHTWARDS
ENCODING 8638
SWIDTH 640 0
DWIDTH 6 0
BBX 3 7 2 0
BITMAP
80
C0
A0
80
80
80
80
ENDCHAR
STARTCHAR UPWARDS HARPOON WITH BARB LEFTWARDS
ENCODING 8639
SWIDTH 640 0
DWIDTH 6 0
BBX 3 7 0 0
BITMAP
20
60
A0
20
20
20
20
ENDCHAR
STARTCHAR RIGHTWARDS HARPOON WITH BARB UPWARDS
ENCODING 8640
SWIDTH 640 0
DWIDTH 6 0
BBX 6 3 0 3
BITMAP
10
08
FC
ENDCHAR
STARTCHAR RIGHTWARDS HARPOON WITH BARB DOWNWARDS
ENCODING 8641
SWIDTH 640 0
DWIDTH 6 0
BBX 6 3 0 1
BITMAP
FC
08
10
ENDCHAR
STARTCHAR DOWNWARDS HARPOON WITH BARB RIGHTWARDS
ENCODING 8642
SWIDTH 640 0
DWIDTH 6 0
BBX 3 7 2 0
BITMAP
80
80
80
80
A0
C0
80
ENDCHAR
STARTCHAR DOWNWARDS HARPOON WITH BARB LEFTWARDS
ENCODING 8643
SWIDTH 640 0
DWIDTH 6 0
BBX 3 7 0 0
BITMAP
20
20
20
20
A0
60
20
ENDCHAR
STARTCHAR RIGHTWARDS ARROW OVER LEFTWARDS ARROW
ENCODING 8644
SWIDTH 640 0
DWIDTH 6 0
BBX 6 9 0 -1
BITMAP
10
08
FC
08
30
40
FC
40
20
ENDCHAR
STARTCHAR UPWARDS ARROW LEFTWARDS OF DOWNWARDS ARROW
ENCODING 8645
SWIDTH 640 0
DWIDTH 6 0
BBX 6 7 0 0
BITMAP
48
E8
48
48
48
5C
48
ENDCHAR
STARTCHAR LEFTWARDS ARROW OVER RIGHTWARDS ARROW
ENCODING 8646
SWIDTH 640 0
DWIDTH 6 0
BBX 6 9 0 -1
BITMAP
20
40
FC
40
30
08
FC
08
10
ENDCHAR
STARTCHAR LEFTWARDS PAIRED ARROWS
ENCODING 8647
SWIDTH 640 0
DWIDTH 6 0
BBX 6 9 0 -1
BITMAP
20
40
FC
40
20
40
FC
40
20
ENDCHAR
STARTCHAR UPWARDS PAIRED ARROWS
ENCODING 8648
SWIDTH 640 0
DWIDTH 6 0
BBX 6 7 0 0
BITMAP
48
FC
48
48
48
48
48
ENDCHAR
STARTCHAR RIGHTWARDS PAIRED ARROWS
ENCODING 8649
SWIDTH 640 0
DWIDTH 6 0
BBX 6 9 0 -1
BITMAP
10
08
FC
08
10
08
FC
08
10
ENDCHAR
STARTCHAR DOWNWARDS PAIRED ARROWS
ENCODING 8650
SWIDTH 640 0
DWIDTH 6 0
BBX 6 7 0 0
BITMAP
48
48
48
48
48
FC
48
ENDCHAR
STARTCHAR LEFTWARDS HARPOON OVER RIGHTWARDS HARPOON
ENCODING 8651
SWIDTH 640 0
DWIDTH 6 0
BBX 6 7 0 -1
BITMAP
20
40
FC
00
FC
08
10
ENDCHAR
STARTCHAR RIGHTWARDS HARPOON OVER LEFTWARDS HARPOON
ENCODING 8652
SWIDTH 640 0
DWIDTH 6 0
BBX 6 7 0 -1
BITMAP
10
08
FC
00
FC
40
20
ENDCHAR
STARTCHAR LEFTWARDS DOUBLE ARROW
ENCODING 8656
SWIDTH 640 0
DWIDTH 6 0
BBX 6 5 0 -1
BITMAP
20
7C
80
7C
20
ENDCHAR
STARTCHAR UPWARDS ARROW WITH DOUBLE STROKE
ENCODING 8670
SWIDTH 640 0
DWIDTH 6 0
BBX 5 9 0 0
BITMAP
20
70
A8
20
20
F8
20
F8
20
ENDCHAR
STARTCHAR DOWNWARDS ARROW WITH DOUBLE STROKE
ENCODING 8671
SWIDTH 640 0
DWIDTH 6 0
BBX 5 9 0 0
BITMAP
20
F8
20
F8
20
20
A8
70
20
ENDCHAR
STARTCHAR RIGHTWARDS ARROW TO BAR
ENCODING 8677
SWIDTH 640 0
DWIDTH 6 0
BBX 5 5 0 0
BITMAP
28
18
F8
18
28
ENDCHAR
STARTCHAR UPWARDS WHITE ARROW
ENCODING 8679
SWIDTH 640 0
DWIDTH 6 0
BBX 5 6 0 0
BITMAP
20
50
D8
50
50
70
ENDCHAR
STARTCHAR UPWARDS WHITE DOUBLE ARROW
ENCODING 8686
SWIDTH 640 0
DWIDTH 6 0
BBX 5 8 0 0
BITMAP
20
50
F8
50
D8
50
50
70
ENDCHAR
STARTCHAR NORTH WEST ARROW TO CORNER
ENCODING 8689
SWIDTH 640 0
DWIDTH 6 0
BBX 6 6 0 0
BITMAP
FC
80
B8
B0
A8
84
ENDCHAR
STARTCHAR SOUTH EAST ARROW TO CORNER
ENCODING 8690
SWIDTH 640 0
DWIDTH 6 0
BBX 6 6 0 0
BITMAP
84
54
34
74
04
FC
ENDCHAR
STARTCHAR DOWNWARDS ARROW LEFTWARDS OF UPWARDS ARROW
ENCODING 8693
SWIDTH 640 0
DWIDTH 6 0
BBX 6 7 0 0
BITMAP
48
E8
48
48
48
5C
48
ENDCHAR
STARTCHAR THREE RIGHTWARDS ARROWS
ENCODING 8694
SWIDTH 640 0
DWIDTH 6 0
BBX 5 11 0 -2
BITMAP
10
F8
10
00
10
F8
10
00
10
F8
10
ENDCHAR
STARTCHAR LEFTWARDS ARROW WITH VERTICAL STROKE
ENCODING 8695
SWIDTH 640 0
DWIDTH 6 0
BBX 6 3 0 2
BITMAP
50
FC
50
ENDCHAR
STARTCHAR RIGHTWARDS ARROW WITH VERTICAL STROKE
ENCODING 8696
SWIDTH 640 0
DWIDTH 6 0
BBX 6 3 0 2
BITMAP
28
FC
28
ENDCHAR
STARTCHAR LEFTWARDS OPEN-HEADED ARROW
ENCODING 8701
SWIDTH 640 0
DWIDTH 6 0
BBX 6 3 0 2
BITMAP
40
BC
40
ENDCHAR
STARTCHAR RIGHTWARDS OPEN-HEADED ARROW
ENCODING 8702
SWIDTH 640 0
DWIDTH 6 0
BBX 6 3 0 2
BITMAP
08
F4
08
ENDCHAR
STARTCHAR LEFT RIGHT OPEN-HEADED ARROW
ENCODING 8703
SWIDTH 640 0
DWIDTH 6 0
BBX 6 3 0 2
BITMAP
48
B4
48
ENDCHAR
STARTCHAR FOR ALL
ENCODING 8704
SWIDTH 640 0
DWIDTH 6 0
BBX 5 7 0 0
BITMAP
88
88
F8
50
50
20
20
ENDCHAR
STARTCHAR COMPLEMENT
ENCODING 8705
SWIDTH 640 0
DWIDTH 6 0
BBX 5 7 0 0
BITMAP
70
88
88
80
88
88
70
ENDCHAR
STARTCHAR PARTIAL DIFFERENTIAL
ENCODING 8706
SWIDTH 640 0
DWIDTH 6 0
BBX 4 7 1 0
BITMAP
40
20
30
50
90
90
60
ENDCHAR
STARTCHAR THERE EXISTS
ENCODING 8707
SWIDTH 640 0
DWIDTH 6 0
BBX 5 7 0 0
BITMAP
F8
08
08
F8
08
08
F8
ENDCHAR
STARTCHAR THERE DOES NOT EXIST
ENCODING 8708
SWIDTH 640 0
DWIDTH 6 0
BBX 5 11 0 -2
BITMAP
08
08
F8
18
18
F8
28
28
F8
40
40
ENDCHAR
STARTCHAR EMPTY SET
ENCODING 8709
SWIDTH 640 0
DWIDTH 6 0
BBX 7 7 -1 0
BITMAP
3A
44
4C
54
64
44
B8
ENDCHAR
STARTCHAR INCREMENT
ENCODING 8710
SWIDTH 640 0
DWIDTH 6 0
BBX 5 6 0 0
BITMAP
20
20
50
50
88
F8
ENDCHAR
STARTCHAR NABLA
ENCODING 8711
SWIDTH 640 0
DWIDTH 6 0
BBX 5 6 0 0
BITMAP
F8
88
50
50
20
20
ENDCHAR
STARTCHAR ELEMENT OF
ENCODING 8712
SWIDTH 640 0
DWIDTH 6 0
BBX 5 7 0 0
BITMAP
38
40
80
F0
80
40
38
ENDCHAR
STARTCHAR NOT AN ELEMENT OF
ENCODING 8713
SWIDTH 640 0
DWIDTH 6 0
BBX 5 11 0 -2
BITMAP
08
08
38
50
90
F0
A0
60
78
40
40
ENDCHAR
STARTCHAR SMALL ELEMENT OF
ENCODING 8714
SWIDTH 640 0
DWIDTH 6 0
BBX 5 5 0 0
BITMAP
78
80
F0
80
78
ENDCHAR
STARTCHAR CONTAINS AS MEMBER
ENCODING 8715
SWIDTH 640 0
DWIDTH 6 0
BBX 5 7 0 0
BITMAP
E0
10
08
78
08
10
E0
ENDCHAR
STARTCHAR DOES NOT CONTAIN AS MEMBER
ENCODING 8716
SWIDTH 640 0
DWIDTH 6 0
BBX 5 11 0 -2
BITMAP
80
80
E0
50
48
78
28
30
F0
10
10
ENDCHAR
STARTCHAR SMALL CONTAINS AS MEMBER
ENCODING 8717
SWIDTH 640 0
DWIDTH 6 0
BBX 5 5 0 0
BITMAP
F0
08
78
08
F0
ENDCHAR
STARTCHAR N-ARY PRODUCT
ENCODING 8719
SWIDTH 640 0
DWIDTH 6 0
BBX 6 7 0 0
BITMAP
FC
48
48
48
48
48
48
ENDCHAR
STARTCHAR N-ARY COPRODUCT
ENCODING 8720
SWIDTH 640 0
DWIDTH 6 0
BBX 6 7 0 0
BITMAP
48
48
48
48
48
48
FC
ENDCHAR
STARTCHAR N-ARY SUMMATION
ENCODING 8721
SWIDTH 640 0
DWIDTH 6 0
BBX 5 7 0 0
BITMAP
F8
48
20
10
20
48
F8
ENDCHAR
STARTCHAR MINUS SIGN
ENCODING 8722
SWIDTH 640 0
DWIDTH 6 0
BBX 5 1 0 2
BITMAP
F8
ENDCHAR
STARTCHAR MINUS-OR-PLUS SIGN
ENCODING 8723
SWIDTH 640 0
DWIDTH 6 0
BBX 5 7 0 0
BITMAP
F8
00
20
20
F8
20
20
ENDCHAR
STARTCHAR DOT PLUS
ENCODING 8724
SWIDTH 640 0
DWIDTH 6 0
BBX 5 9 0 0
BITMAP
20
70
20
00
20
20
F8
20
20
ENDCHAR
STARTCHAR DIVISION SLASH
ENCODING 8725
SWIDTH 640 0
DWIDTH 6 0
BBX 5 10 0 -2
BITMAP
08
08
10
10
20
20
40
40
80
80
ENDCHAR
STARTCHAR SET MINUS
ENCODING 8726
SWIDTH 640 0
DWIDTH 6 0
BBX 5 10 0 -2
BITMAP
80
80
40
40
20
20
10
10
08
08
ENDCHAR
STARTCHAR ASTERISK OPERATOR
ENCODING 8727
SWIDTH 640 0
DWIDTH 6 0
BBX 5 5 0 1
BITMAP
20
A8
70
A8
20
ENDCHAR
STARTCHAR RING OPERATOR
ENCODING 8728
SWIDTH 426 0
DWIDTH 4 0
BBX 3 3 1 2
BITMAP
40
A0
40
ENDCHAR
STARTCHAR BULLET OPERATOR
ENCODING 8729
SWIDTH 426 0
DWIDTH 4 0
BBX 2 2 2 3
BITMAP
C0
C0
ENDCHAR
STARTCHAR SQUARE ROOT
ENCODING 8730
SWIDTH 640 0
DWIDTH 6 0
BBX 5 8 0 -1
BITMAP
08
08
08
10
D0
50
20
20
ENDCHAR
STARTCHAR CUBE ROOT
ENCODING 8731
SWIDTH 640 0
DWIDTH 6 0
BBX 6 10 0 -1
BITMAP
C0
20
C4
24
C8
08
D0
50
20
20
ENDCHAR
STARTCHAR FOURTH ROOT
ENCODING 8732
SWIDTH 640 0
DWIDTH 6 0
BBX 6 10 0 -1
BITMAP
80
A0
E4
24
28
08
D0
50
20
20
ENDCHAR
STARTCHAR PROPORTIONAL TO
ENCODING 8733
SWIDTH 640 0
DWIDTH 6 0
BBX 4 3 0 2
BITMAP
D0
A0
D0
ENDCHAR
STARTCHAR INFINITY
ENCODING 8734
SWIDTH 640 0
DWIDTH 6 0
BBX 5 3 0 2
BITMAP
D8
A8
D8
ENDCHAR
STARTCHAR RIGHT ANGLE
ENCODING 8735
SWIDTH 533 0
DWIDTH 5 0
BBX 5 5 0 0
BITMAP
80
80
80
80
F8
ENDCHAR
STARTCHAR ANGLE
ENCODING 8736
SWIDTH 533 0
DWIDTH 5 0
BBX 5 5 0 0
BITMAP
08
10
20
40
F8
ENDCHAR
STARTCHAR MEASURED ANGLE
ENCODING 8737
SWIDTH 533 0
DWIDTH 5 0
BBX 5 5 0 0
BITMAP
08
10
30
50
F8
ENDCHAR
STARTCHAR SPHERICAL ANGLE
ENCODING 8738
SWIDTH 426 0
DWIDTH 4 0
BBX 4 7 0 0
BITMAP
10
20
60
90
60
20
10
ENDCHAR
STARTCHAR DIVIDES
ENCODING 8739
SWIDTH 320 0
DWIDTH 3 0
BBX 1 9 2 -1
BITMAP
80
80
80
80
80
80
80
80
80
ENDCHAR
STARTCHAR DOES NOT DIVIDE
ENCODING 8740
SWIDTH 426 0
DWIDTH 4 0
BBX 3 9 1 -1
BITMAP
40
40
40
60
40
C0
40
40
40
ENDCHAR
STARTCHAR PARALLEL TO
ENCODING 8741
SWIDTH 426 0
DWIDTH 4 0
BBX 3 9 1 -1
BITMAP
A0
A0
A0
A0
A0
A0
A0
A0
A0
ENDCHAR
STARTCHAR NOT PARALLEL TO
ENCODING 8742
SWIDTH 533 0
DWIDTH 5 0
BBX 5 9 0 -1
BITMAP
50
50
50
58
70
D0
50
50
50
ENDCHAR
STARTCHAR LOGICAL AND
ENCODING 8743
SWIDTH 533 0
DWIDTH 5 0
BBX 5 6 0 0
BITMAP
20
20
50
50
88
88
ENDCHAR
STARTCHAR LOGICAL OR
ENCODING 8744
SWIDTH 533 0
DWIDTH 5 0
BBX 5 6 0 0
BITMAP
88
88
50
50
20
20
ENDCHAR
STARTCHAR INTERSECTION
ENCODING 8745
SWIDTH 640 0
DWIDTH 6 0
BBX 5 5 0 0
BITMAP
70
88
88
88
88
ENDCHAR
STARTCHAR UNION
ENCODING 8746
SWIDTH 640 0
DWIDTH 6 0
BBX 5 5 0 0
BITMAP
88
88
88
88
70
ENDCHAR
STARTCHAR INTEGRAL
ENCODING 8747
SWIDTH 426 0
DWIDTH 4 0
BBX 3 11 1 -2
BITMAP
20
40
40
40
40
40
40
40
40
40
80
ENDCHAR
STARTCHAR DOUBLE INTEGRAL
ENCODING 8748
SWIDTH 533 0
DWIDTH 5 0
BBX 5 11 0 -2
BITMAP
28
50
50
50
50
50
50
50
50
50
A0
ENDCHAR
STARTCHAR CONTOUR INTEGRAL
ENCODING 8750
SWIDTH 640 0
DWIDTH 6 0
BBX 5 11 0 -2
BITMAP
10
20
20
20
70
A8
70
20
20
20
40
ENDCHAR
STARTCHAR SURFACE INTEGRAL
ENCODING 8751
SWIDTH 533 0
DWIDTH 5 0
BBX 5 11 0 -2
BITMAP
28
50
50
50
70
D8
70
50
50
50
A0
ENDCHAR
STARTCHAR CLOCKWISE INTEGRAL
ENCODING 8753
SWIDTH 640 0
DWIDTH 6 0
BBX 6 11 0 -2
BITMAP
10
20
20
20
74
AC
3C
20
20
20
40
ENDCHAR
STARTCHAR CLOCKWISE CONTOUR INTEGRAL
ENCODING 8754
SWIDTH 640 0
DWIDTH 6 0
BBX 6 11 0 -2
BITMAP
10
20
20
20
74
AC
7C
20
20
20
40
ENDCHAR
STARTCHAR ANTICLOCKWISE CONTOUR INTEGRAL
ENCODING 8755
SWIDTH 640 0
DWIDTH 6 0
BBX 6 11 0 -2
BITMAP
10
20
20
20
7C
AC
74
20
20
20
40
ENDCHAR
STARTCHAR THEREFORE
ENCODING 8756
SWIDTH 640 0
DWIDTH 6 0
BBX 5 5 0 1
BITMAP
20
00
00
00
88
ENDCHAR
STARTCHAR BECAUSE
ENCODING 8757
SWIDTH 640 0
DWIDTH 6 0
BBX 5 5 0 1
BITMAP
88
00
00
00
20
ENDCHAR
STARTCHAR RATIO
ENCODING 8758
SWIDTH 320 0
DWIDTH 3 0
BBX 1 5 2 1
BITMAP
80
00
00
00
80
ENDCHAR
STARTCHAR PROPORTION
ENCODING 8759
SWIDTH 533 0
DWIDTH 5 0
BBX 5 5 0 1
BITMAP
88
00
00
00
88
ENDCHAR
STARTCHAR DOT MINUS
ENCODING 8760
SWIDTH 533 0
DWIDTH 5 0
BBX 5 3 0 3
BITMAP
20
00
F8
ENDCHAR
STARTCHAR EXCESS
ENCODING 8761
SWIDTH 533 0
DWIDTH 5 0
BBX 5 5 0 1
BITMAP
08
00
E0
00
08
ENDCHAR
STARTCHAR GEOMETRIC PROPORTION
ENCODING 8762
SWIDTH 533 0
DWIDTH 5 0
BBX 5 5 0 1
BITMAP
88
00
F8
00
88
ENDCHAR
STARTCHAR HOMOTHETIC
ENCODING 8763
SWIDTH 533 0
DWIDTH 5 0
BBX 5 6 0 1
BITMAP
20
00
68
B0
00
20
ENDCHAR
STARTCHAR TILDE OPERATOR
ENCODING 8764
SWIDTH 533 0
DWIDTH 5 0
BBX 5 2 0 3
BITMAP
68
B0
ENDCHAR
STARTCHAR REVERSED TILDE
ENCODING 8765
SWIDTH 533 0
DWIDTH 5 0
BBX 5 2 0 3
BITMAP
B0
68
ENDCHAR
STARTCHAR INVERTED LAZY S
ENCODING 8766
SWIDTH 640 0
DWIDTH 6 0
BBX 6 4 0 2
BITMAP
48
A4
94
48
ENDCHAR
STARTCHAR SINE WAVE
ENCODING 8767
SWIDTH 533 0
DWIDTH 5 0
BBX 5 5 0 1
BITMAP
40
A0
A8
28
10
ENDCHAR
STARTCHAR WREATH PRODUCT
ENCODING 8768
SWIDTH 426 0
DWIDTH 4 0
BBX 3 7 1 0
BITMAP
40
20
20
40
80
80
40
ENDCHAR
STARTCHAR NOT TILDE
ENCODING 8769
SWIDTH 533 0
DWIDTH 5 0
BBX 5 6 0 1
BITMAP
20
20
68
B0
20
20
ENDCHAR
STARTCHAR MINUS TILDE
ENCODING 8770
SWIDTH 533 0
DWIDTH 5 0
BBX 5 4 0 2
BITMAP
F8
00
68
B0
ENDCHAR
STARTCHAR ASYMPTOTICALLY EQUAL TO
ENCODING 8771
SWIDTH 533 0
DWIDTH 5 0
BBX 5 4 0 2
BITMAP
68
B0
00
F8
ENDCHAR
STARTCHAR NOT ASYMPTOTICALLY EQUAL TO
ENCODING 8772
SWIDTH 533 0
DWIDTH 5 0
BBX 5 6 0 1
BITMAP
20
68
B0
20
F8
20
ENDCHAR
STARTCHAR APPROXIMATELY EQUAL TO
ENCODING 8773
SWIDTH 533 0
DWIDTH 5 0
BBX 5 6 0 0
BITMAP
68
B0
00
F8
00
F8
ENDCHAR
STARTCHAR APPROXIMATELY BUT NOT ACTUALLY EQUAL TO
ENCODING 8774
SWIDTH 533 0
DWIDTH 5 0
BBX 5 7 0 -1
BITMAP
68
B0
00
F8
20
F8
20
ENDCHAR
STARTCHAR NEITHER APPROXIMATELY NOR ACTUALLY EQUAL TO
ENCODING 8775
SWIDTH 533 0
DWIDTH 5 0
BBX 5 8 0 -1
BITMAP
20
68
B0
20
F8
20
F8
20
ENDCHAR
STARTCHAR ALMOST EQUAL TO
ENCODING 8776
SWIDTH 640 0
DWIDTH 6 0
BBX 5 4 0 1
BITMAP
68
90
68
90
ENDCHAR
STARTCHAR NOT ALMOST EQUAL TO
ENCODING 8777
SWIDTH 640 0
DWIDTH 6 0
BBX 5 6 0 0
BITMAP
20
68
B0
68
B0
20
ENDCHAR
STARTCHAR ALMOST EQUAL OR EQUAL TO
ENCODING 8778
SWIDTH 640 0
DWIDTH 6 0
BBX 5 6 0 0
BITMAP
68
90
68
90
00
F8
ENDCHAR
STARTCHAR TRIPLE TILDE
ENCODING 8779
SWIDTH 640 0
DWIDTH 6 0
BBX 5 6 0 0
BITMAP
68
90
68
90
68
90
ENDCHAR
STARTCHAR ALL EQUAL TO
ENCODING 8780
SWIDTH 533 0
DWIDTH 5 0
BBX 5 6 0 0
BITMAP
68
B0
00
F8
00
F8
ENDCHAR
STARTCHAR EQUIVALENT TO
ENCODING 8781
SWIDTH 533 0
DWIDTH 5 0
BBX 5 5 0 1
BITMAP
88
70
00
70
88
ENDCHAR
STARTCHAR GEOMETRICALLY EQUIVALENT TO
ENCODING 8782
SWIDTH 533 0
DWIDTH 5 0
BBX 5 5 0 1
BITMAP
20
D8
00
D8
20
ENDCHAR
STARTCHAR DIFFERENCE BETWEEN
ENCODING 8783
SWIDTH 533 0
DWIDTH 5 0
BBX 5 4 0 2
BITMAP
20
D8
00
F8
ENDCHAR
STARTCHAR APPROACHES THE LIMIT
ENCODING 8784
SWIDTH 640 0
DWIDTH 6 0
BBX 5 5 0 2
BITMAP
20
00
F8
00
F8
ENDCHAR
STARTCHAR GEOMETRICALLY EQUAL TO
ENCODING 8785
SWIDTH 640 0
DWIDTH 6 0
BBX 5 7 0 0
BITMAP
20
00
F8
00
F8
00
20
ENDCHAR
STARTCHAR APPROXIMATELY EQUAL TO OR THE IMAGE OF
ENCODING 8786
SWIDTH 533 0
DWIDTH 5 0
BBX 5 7 0 0
BITMAP
80
00
F8
00
F8
00
08
ENDCHAR
STARTCHAR IMAGE OF OR APPROXIMATELY EQUAL TO
ENCODING 8787
SWIDTH 533 0
DWIDTH 5 0
BBX 5 7 0 0
BITMAP
08
00
F8
00
F8
00
80
ENDCHAR
STARTCHAR COLON EQUALS
ENCODING 8788
SWIDTH 640 0
DWIDTH 6 0
BBX 5 3 0 2
BITMAP
B8
00
B8
ENDCHAR
STARTCHAR EQUALS COLON
ENCODING 8789
SWIDTH 640 0
DWIDTH 6 0
BBX 5 3 0 2
BITMAP
E8
00
E8
ENDCHAR
STARTCHAR RING IN EQUAL TO
ENCODING 8790
SWIDTH 640 0
DWIDTH 6 0
BBX 5 3 0 2
BITMAP
F8
50
F8
ENDCHAR
STARTCHAR RING EQUAL TO
ENCODING 8791
SWIDTH 640 0
DWIDTH 6 0
BBX 5 6 0 2
BITMAP
20
50
20
F8
00
F8
ENDCHAR
STARTCHAR CORRESPONDS TO
ENCODING 8792
SWIDTH 640 0
DWIDTH 6 0
BBX 5 6 0 2
BITMAP
70
88
00
F8
00
F8
ENDCHAR
STARTCHAR ESTIMATES
ENCODING 8793
SWIDTH 640 0
DWIDTH 6 0
BBX 5 6 0 2
BITMAP
20
50
00
F8
00
F8
ENDCHAR
STARTCHAR EQUIANGULAR TO
ENCODING 8794
SWIDTH 640 0
DWIDTH 6 0
BBX 5 6 0 2
BITMAP
50
20
00
F8
00
F8
ENDCHAR
STARTCHAR STAR EQUALS
ENCODING 8795
SWIDTH 640 0
DWIDTH 6 0
BBX 5 7 0 2
BITMAP
A8
70
A8
00
F8
00
F8
ENDCHAR
STARTCHAR DELTA EQUAL TO
ENCODING 8796
SWIDTH 640 0
DWIDTH 6 0
BBX 5 7 0 2
BITMAP
20
50
F8
00
F8
00
F8
ENDCHAR
STARTCHAR MEASURED BY
ENCODING 8798
SWIDTH 640 0
DWIDTH 6 0
BBX 5 6 0 2
BITMAP
F0
A8
00
F8
00
F8
ENDCHAR
STARTCHAR QUESTIONED EQUAL TO
ENCODING 8799
SWIDTH 640 0
DWIDTH 6 0
BBX 5 8 0 1
BITMAP
20
10
20
00
20
F8
00
F8
ENDCHAR
STARTCHAR NOT EQUAL TO
ENCODING 8800
SWIDTH 640 0
DWIDTH 6 0
BBX 5 5 0 1
BITMAP
10
F8
20
F8
40
ENDCHAR
STARTCHAR IDENTICAL TO
ENCODING 8801
SWIDTH 533 0
DWIDTH 5 0
BBX 5 5 0 1
BITMAP
F8
00
F8
00
F8
ENDCHAR
STARTCHAR NOT IDENTICAL TO
ENCODING 8802
SWIDTH 533 0
DWIDTH 5 0
BBX 5 7 0 0
BITMAP
08
F8
10
F8
40
F8
80
ENDCHAR
STARTCHAR STRICTLY EQUIVALENT TO
ENCODING 8803
SWIDTH 640 0
DWIDTH 6 0
BBX 5 7 0 0
BITMAP
F8
00
F8
00
F8
00
F8
ENDCHAR
STARTCHAR LESS-THAN OR EQUAL TO
ENCODING 8804
SWIDTH 533 0
DWIDTH 5 0
BBX 5 7 0 -1
BITMAP
18
60
80
60
18
00
F8
ENDCHAR
STARTCHAR GREATER-THAN OR EQUAL TO
ENCODING 8805
SWIDTH 533 0
DWIDTH 5 0
BBX 5 7 0 -1
BITMAP
C0
30
08
30
C0
00
F8
ENDCHAR
STARTCHAR LESS-THAN OVER EQUAL TO
ENCODING 8806
SWIDTH 533 0
DWIDTH 5 0
BBX 5 9 0 -3
BITMAP
18
60
80
60
18
00
F8
00
F8
ENDCHAR
STARTCHAR GREATER-THAN OVER EQUAL TO
ENCODING 8807
SWIDTH 533 0
DWIDTH 5 0
BBX 5 9 0 -3
BITMAP
C0
30
08
30
C0
00
F8
00
F8
ENDCHAR
STARTCHAR LESS-THAN BUT NOT EQUAL TO
ENCODING 8808
SWIDTH 533 0
DWIDTH 5 0
BBX 5 10 0 -3
BITMAP
18
60
80
60
18
10
F8
20
F8
40
ENDCHAR
STARTCHAR GREATER-THAN BUT NOT EQUAL TO
ENCODING 8809
SWIDTH 533 0
DWIDTH 5 0
BBX 5 10 0 -3
BITMAP
C0
30
08
30
C0
10
F8
20
F8
40
ENDCHAR
STARTCHAR MUCH LESS-THAN
ENCODING 8810
SWIDTH 533 0
DWIDTH 5 0
BBX 5 5 0 1
BITMAP
28
50
A0
50
28
ENDCHAR
STARTCHAR MUCH GREATER-THAN
ENCODING 8811
SWIDTH 533 0
DWIDTH 5 0
BBX 5 5 0 1
BITMAP
A0
50
28
50
A0
ENDCHAR
STARTCHAR BETWEEN
ENCODING 8812
SWIDTH 426 0
DWIDTH 4 0
BBX 3 9 1 -1
BITMAP
A0
40
A0
A0
A0
A0
A0
40
A0
ENDCHAR
STARTCHAR NOT EQUIVALENT TO
ENCODING 8813
SWIDTH 533 0
DWIDTH 5 0
BBX 5 7 0 0
BITMAP
10
98
70
20
70
C8
40
ENDCHAR
STARTCHAR NOT LESS-THAN
ENCODING 8814
SWIDTH 533 0
DWIDTH 5 0
BBX 5 9 0 -1
BITMAP
10
10
18
60
A0
60
58
40
40
ENDCHAR
STARTCHAR NOT GREATER-THAN
ENCODING 8815
SWIDTH 533 0
DWIDTH 5 0
BBX 5 9 0 -1
BITMAP
10
10
D0
30
28
30
C0
40
40
ENDCHAR
STARTCHAR NEITHER LESS-THAN NOR EQUAL TO
ENCODING 8816
SWIDTH 533 0
DWIDTH 5 0
BBX 5 10 0 -2
BITMAP
08
08
18
70
A0
60
58
40
F8
80
ENDCHAR
STARTCHAR NEITHER GREATER-THAN NOR EQUAL TO
ENCODING 8817
SWIDTH 533 0
DWIDTH 5 0
BBX 5 10 0 -2
BITMAP
08
08
D0
30
28
30
C0
40
F8
80
ENDCHAR
STARTCHAR LESS-THAN OR EQUIVALENT TO
ENCODING 8818
SWIDTH 533 0
DWIDTH 5 0
BBX 5 8 0 -2
BITMAP
18
60
80
60
18
00
68
B0
ENDCHAR
STARTCHAR GREATER-THAN OR EQUIVALENT TO
ENCODING 8819
SWIDTH 533 0
DWIDTH 5 0
BBX 5 8 0 -2
BITMAP
C0
30
08
30
C0
00
68
B0
ENDCHAR
STARTCHAR NEITHER LESS-THAN NOR EQUIVALENT TO
ENCODING 8820
SWIDTH 533 0
DWIDTH 5 0
BBX 5 10 0 -2
BITMAP
08
08
18
70
A0
60
58
40
E8
B0
ENDCHAR
STARTCHAR NEITHER GREATER-THAN NOR EQUIVALENT TO
ENCODING 8821
SWIDTH 533 0
DWIDTH 5 0
BBX 5 10 0 -2
BITMAP
08
08
F0
10
28
30
C0
40
E8
B0
ENDCHAR
STARTCHAR LESS-THAN OR GREATER-THAN
ENCODING 8822
SWIDTH 533 0
DWIDTH 5 0
BBX 5 10 0 -2
BITMAP
18
60
80
60
18
C0
30
08
30
C0
ENDCHAR
STARTCHAR GREATER-THAN OR LESS-THAN
ENCODING 8823
SWIDTH 533 0
DWIDTH 5 0
BBX 5 10 0 -2
BITMAP
C0
30
08
30
C0
18
60
80
60
18
ENDCHAR
STARTCHAR NEITHER LESS-THAN NOR GREATER-THAN
ENCODING 8824
SWIDTH 533 0
DWIDTH 5 0
BBX 5 12 0 -3
BITMAP
20
38
60
A0
60
38
E0
30
28
30
E0
20
ENDCHAR
STARTCHAR NEITHER GREATER-THAN NOR LESS-THAN
ENCODING 8825
SWIDTH 533 0
DWIDTH 5 0
BBX 5 12 0 -3
BITMAP
20
E0
30
28
30
E0
38
60
A0
60
38
20
ENDCHAR
STARTCHAR PRECEDES
ENCODING 8826
SWIDTH 533 0
DWIDTH 5 0
BBX 5 5 0 1
BITMAP
08
30
C0
30
08
ENDCHAR
STARTCHAR SUCCEEDS
ENCODING 8827
SWIDTH 533 0
DWIDTH 5 0
BBX 5 5 0 1
BITMAP
80
60
18
60
80
ENDCHAR
STARTCHAR PRECEDES OR EQUAL TO
ENCODING 8828
SWIDTH 533 0
DWIDTH 5 0
BBX 5 7 0 -1
BITMAP
08
30
C0
30
C8
30
08
ENDCHAR
STARTCHAR SUCCEEDS OR EQUAL TO
ENCODING 8829
SWIDTH 533 0
DWIDTH 5 0
BBX 5 7 0 -1
BITMAP
80
60
18
60
98
60
80
ENDCHAR
STARTCHAR PRECEDES OR EQUIVALENT TO
ENCODING 8830
SWIDTH 533 0
DWIDTH 5 0
BBX 5 8 0 -2
BITMAP
08
30
C0
30
08
00
68
B0
ENDCHAR
STARTCHAR SUCCEEDS OR EQUIVALENT TO
ENCODING 8831
SWIDTH 533 0
DWIDTH 5 0
BBX 5 8 0 -2
BITMAP
80
60
18
60
80
00
68
B0
ENDCHAR
STARTCHAR DOES NOT PRECEDE
ENCODING 8832
SWIDTH 533 0
DWIDTH 5 0
BBX 5 9 0 -1
BITMAP
10
10
18
30
E0
30
48
40
40
ENDCHAR
STARTCHAR DOES NOT SUCCEED
ENCODING 8833
SWIDTH 533 0
DWIDTH 5 0
BBX 5 9 0 -1
BITMAP
10
10
90
60
38
60
C0
40
40
ENDCHAR
STARTCHAR SUBSET OF
ENCODING 8834
SWIDTH 640 0
DWIDTH 6 0
BBX 5 5 0 1
BITMAP
78
80
80
80
78
ENDCHAR
STARTCHAR SUPERSET OF
ENCODING 8835
SWIDTH 640 0
DWIDTH 6 0
BBX 5 5 0 1
BITMAP
F0
08
08
08
F0
ENDCHAR
STARTCHAR NOT A SUBSET OF
ENCODING 8836
SWIDTH 640 0
DWIDTH 6 0
BBX 5 9 0 -1
BITMAP
10
10
78
A0
A0
A0
78
40
40
ENDCHAR
STARTCHAR NOT A SUPERSET OF
ENCODING 8837
SWIDTH 640 0
DWIDTH 6 0
BBX 5 9 0 -1
BITMAP
10
10
F0
28
28
28
F0
40
40
ENDCHAR
STARTCHAR SUBSET OF OR EQUAL TO
ENCODING 8838
SWIDTH 640 0
DWIDTH 6 0
BBX 5 7 0 -1
BITMAP
78
80
80
80
78
00
F8
ENDCHAR
STARTCHAR SUPERSET OF OR EQUAL TO
ENCODING 8839
SWIDTH 640 0
DWIDTH 6 0
BBX 5 7 0 -1
BITMAP
F0
08
08
08
F0
00
F8
ENDCHAR
STARTCHAR NEITHER A SUBSET OF NOR EQUAL TO
ENCODING 8840
SWIDTH 640 0
DWIDTH 6 0
BBX 5 9 0 -1
BITMAP
10
10
78
A0
A0
A0
78
40
F8
ENDCHAR
STARTCHAR NEITHER A SUPERSET OF NOR EQUAL TO
ENCODING 8841
SWIDTH 640 0
DWIDTH 6 0
BBX 5 9 0 -1
BITMAP
10
10
F0
28
28
28
F0
40
F8
ENDCHAR
STARTCHAR SUBSET OF WITH NOT EQUAL TO
ENCODING 8842
SWIDTH 640 0
DWIDTH 6 0
BBX 5 8 0 -2
BITMAP
78
80
80
80
78
10
F8
40
ENDCHAR
STARTCHAR SUPERSET OF WITH NOT EQUAL TO
ENCODING 8843
SWIDTH 640 0
DWIDTH 6 0
BBX 5 8 0 -2
BITMAP
F0
08
08
08
F0
10
F8
40
ENDCHAR
STARTCHAR MULTISET
ENCODING 8844
SWIDTH 533 0
DWIDTH 5 0
BBX 5 7 0 0
BITMAP
A8
E8
F8
E8
A8
88
70
ENDCHAR
STARTCHAR MULTISET MULTIPLICATION
ENCODING 8845
SWIDTH 533 0
DWIDTH 5 0
BBX 5 7 0 0
BITMAP
88
88
88
A8
88
88
70
ENDCHAR
STARTCHAR MULTISET UNION
ENCODING 8846
SWIDTH 533 0
DWIDTH 5 0
BBX 5 7 0 0
BITMAP
88
88
A8
F8
A8
88
70
ENDCHAR
STARTCHAR SQUARE IMAGE OF
ENCODING 8847
SWIDTH 533 0
DWIDTH 5 0
BBX 5 5 0 1
BITMAP
F8
80
80
80
F8
ENDCHAR
STARTCHAR SQUARE ORIGINAL OF
ENCODING 8848
SWIDTH 533 0
DWIDTH 5 0
BBX 5 5 0 1
BITMAP
F8
08
08
08
F8
ENDCHAR
STARTCHAR SQUARE IMAGE OF OR EQUAL TO
ENCODING 8849
SWIDTH 533 0
DWIDTH 5 0
BBX 5 7 0 -1
BITMAP
F8
80
80
80
F8
00
F8
ENDCHAR
STARTCHAR SQUARE ORIGINAL OF OR EQUAL TO
ENCODING 8850
SWIDTH 533 0
DWIDTH 5 0
BBX 5 7 0 -2
BITMAP
F8
08
08
08
F8
00
F8
ENDCHAR
STARTCHAR SQUARE CAP
ENCODING 8851
SWIDTH 533 0
DWIDTH 5 0
BBX 5 5 0 1
BITMAP
F8
88
88
88
88
ENDCHAR
STARTCHAR SQUARE CUP
ENCODING 8852
SWIDTH 533 0
DWIDTH 5 0
BBX 5 5 0 1
BITMAP
88
88
88
88
F8
ENDCHAR
STARTCHAR CIRCLED PLUS
ENCODING 8853
SWIDTH 640 0
DWIDTH 6 0
BBX 5 5 0 1
BITMAP
70
A8
F8
A8
70
ENDCHAR
STARTCHAR CIRCLED MINUS
ENCODING 8854
SWIDTH 640 0
DWIDTH 6 0
BBX 5 5 0 1
BITMAP
70
88
F8
88
70
ENDCHAR
STARTCHAR CIRCLED TIMES
ENCODING 8855
SWIDTH 640 0
DWIDTH 6 0
BBX 5 5 0 1
BITMAP
70
D8
A8
D8
70
ENDCHAR
STARTCHAR CIRCLED DIVISION SLASH
ENCODING 8856
SWIDTH 640 0
DWIDTH 6 0
BBX 5 5 0 1
BITMAP
70
98
A8
C8
70
ENDCHAR
STARTCHAR CIRCLED DOT OPERATOR
ENCODING 8857
SWIDTH 640 0
DWIDTH 6 0
BBX 5 5 0 1
BITMAP
70
88
A8
88
70
ENDCHAR
STARTCHAR CIRCLED ASTERISK OPERATOR
ENCODING 8859
SWIDTH 640 0
DWIDTH 6 0
BBX 5 5 0 1
BITMAP
70
88
A8
88
70
ENDCHAR
STARTCHAR CIRCLED DASH
ENCODING 8861
SWIDTH 533 0
DWIDTH 5 0
BBX 5 5 0 1
BITMAP
70
88
F8
88
70
ENDCHAR
STARTCHAR SQUARED PLUS
ENCODING 8862
SWIDTH 533 0
DWIDTH 5 0
BBX 5 5 0 1
BITMAP
F8
A8
F8
A8
F8
ENDCHAR
STARTCHAR SQUARED MINUS
ENCODING 8863
SWIDTH 533 0
DWIDTH 5 0
BBX 5 5 0 1
BITMAP
F8
88
F8
88
F8
ENDCHAR
STARTCHAR SQUARED TIMES
ENCODING 8864
SWIDTH 533 0
DWIDTH 5 0
BBX 5 5 0 1
BITMAP
F8
D8
A8
D8
F8
ENDCHAR
STARTCHAR SQUARED DOT OPERATOR
ENCODING 8865
SWIDTH 533 0
DWIDTH 5 0
BBX 5 5 0 1
BITMAP
F8
88
A8
88
F8
ENDCHAR
STARTCHAR RIGHT TACK
ENCODING 8866
SWIDTH 533 0
DWIDTH 5 0
BBX 5 5 0 1
BITMAP
80
80
F8
80
80
ENDCHAR
STARTCHAR LEFT TACK
ENCODING 8867
SWIDTH 533 0
DWIDTH 5 0
BBX 5 5 0 1
BITMAP
08
08
F8
08
08
ENDCHAR
STARTCHAR DOWN TACK
ENCODING 8868
SWIDTH 533 0
DWIDTH 5 0
BBX 5 5 0 1
BITMAP
F8
20
20
20
20
ENDCHAR
STARTCHAR UP TACK
ENCODING 8869
SWIDTH 533 0
DWIDTH 5 0
BBX 5 5 0 1
BITMAP
20
20
20
20
F8
ENDCHAR
STARTCHAR ASSERTION
ENCODING 8870
SWIDTH 320 0
DWIDTH 3 0
BBX 3 5 1 1
BITMAP
80
80
E0
80
80
ENDCHAR
STARTCHAR MODELS
ENCODING 8871
SWIDTH 426 0
DWIDTH 4 0
BBX 3 5 1 1
BITMAP
80
E0
80
E0
80
ENDCHAR
STARTCHAR TRUE
ENCODING 8872
SWIDTH 533 0
DWIDTH 5 0
BBX 5 5 0 1
BITMAP
80
F8
80
F8
80
ENDCHAR
STARTCHAR FORCES
ENCODING 8873
SWIDTH 533 0
DWIDTH 5 0
BBX 5 5 0 1
BITMAP
A0
A0
B8
A0
A0
ENDCHAR
STARTCHAR TRIPLE VERTICAL BAR RIGHT TURNSTILE
ENCODING 8874
SWIDTH 640 0
DWIDTH 6 0
BBX 6 5 0 1
BITMAP
A8
A8
AC
A8
A8
ENDCHAR
STARTCHAR DOUBLE VERTICAL BAR DOUBLE RIGHT TURNSTILE
ENCODING 8875
SWIDTH 533 0
DWIDTH 5 0
BBX 5 5 0 1
BITMAP
A0
B8
A0
B8
A0
ENDCHAR
STARTCHAR DOES NOT PROVE
ENCODING 8876
SWIDTH 533 0
DWIDTH 5 0
BBX 5 5 0 1
BITMAP
90
90
F8
A0
A0
ENDCHAR
STARTCHAR NOT TRUE
ENCODING 8877
SWIDTH 533 0
DWIDTH 5 0
BBX 5 5 0 1
BITMAP
88
F8
90
F8
A0
ENDCHAR
STARTCHAR DOES NOT FORCE
ENCODING 8878
SWIDTH 640 0
DWIDTH 6 0
BBX 6 5 0 1
BITMAP
A8
A8
BC
B0
B0
ENDCHAR
STARTCHAR NEGATED DOUBLE VERTICAL BAR DOUBLE RIGHT TURNSTILE
ENCODING 8879
SWIDTH 640 0
DWIDTH 6 0
BBX 6 5 0 1
BITMAP
A4
BC
A8
BC
B0
ENDCHAR
STARTCHAR PRECEDES UNDER RELATION
ENCODING 8880
SWIDTH 533 0
DWIDTH 5 0
BBX 5 7 0 0
BITMAP
10
08
10
E0
10
08
10
ENDCHAR
STARTCHAR SUCCEEDS UNDER RELATION
ENCODING 8881
SWIDTH 533 0
DWIDTH 5 0
BBX 5 7 0 0
BITMAP
40
80
40
38
40
80
40
ENDCHAR
STARTCHAR NORMAL SUBGROUP OF
ENCODING 8882
SWIDTH 533 0
DWIDTH 5 0
BBX 5 5 0 1
BITMAP
18
68
88
68
18
ENDCHAR
STARTCHAR CONTAINS AS NORMAL SUBGROUP
ENCODING 8883
SWIDTH 533 0
DWIDTH 5 0
BBX 5 5 0 1
BITMAP
C0
B0
88
B0
C0
ENDCHAR
STARTCHAR NORMAL SUBGROUP OF OR EQUAL TO
ENCODING 8884
SWIDTH 533 0
DWIDTH 5 0
BBX 5 7 0 -1
BITMAP
18
68
88
68
18
00
F8
ENDCHAR
STARTCHAR CONTAINS AS NORMAL SUBGROUP OR EQUAL TO
ENCODING 8885
SWIDTH 533 0
DWIDTH 5 0
BBX 5 7 0 -1
BITMAP
C0
B0
88
B0
C0
00
F8
ENDCHAR
STARTCHAR ORIGINAL OF
ENCODING 8886
SWIDTH 533 0
DWIDTH 5 0
BBX 5 3 0 2
BITMAP
50
B8
50
ENDCHAR
STARTCHAR IMAGE OF
ENCODING 8887
SWIDTH 533 0
DWIDTH 5 0
BBX 5 3 0 2
BITMAP
50
E8
50
ENDCHAR
STARTCHAR MULTIMAP
ENCODING 8888
SWIDTH 533 0
DWIDTH 5 0
BBX 5 3 0 2
BITMAP
10
E8
10
ENDCHAR
STARTCHAR HERMITIAN CONJUGATE MATRIX
ENCODING 8889
SWIDTH 533 0
DWIDTH 5 0
BBX 5 5 0 1
BITMAP
20
20
D8
20
20
ENDCHAR
STARTCHAR INTERCALATE
ENCODING 8890
SWIDTH 426 0
DWIDTH 4 0
BBX 3 7 1 0
BITMAP
E0
40
40
40
40
40
40
ENDCHAR
STARTCHAR XOR
ENCODING 8891
SWIDTH 640 0
DWIDTH 6 0
BBX 5 8 0 -2
BITMAP
88
88
50
50
20
20
00
F8
ENDCHAR
STARTCHAR NAND
ENCODING 8892
SWIDTH 640 0
DWIDTH 6 0
BBX 5 8 0 0
BITMAP
F8
00
20
20
50
50
88
88
ENDCHAR
STARTCHAR NOR
ENCODING 8893
SWIDTH 640 0
DWIDTH 6 0
BBX 5 8 0 0
BITMAP
F8
00
88
88
50
50
20
20
ENDCHAR
STARTCHAR RIGHT ANGLE WITH ARC
ENCODING 8894
SWIDTH 533 0
DWIDTH 5 0
BBX 5 5 0 1
BITMAP
80
80
C0
A0
F8
ENDCHAR
STARTCHAR RIGHT TRIANGLE
ENCODING 8895
SWIDTH 533 0
DWIDTH 5 0
BBX 5 5 0 1
BITMAP
08
18
28
48
F8
ENDCHAR
STARTCHAR N-ARY LOGICAL AND
ENCODING 8896
SWIDTH 533 0
DWIDTH 5 0
BBX 5 9 0 -1
BITMAP
20
20
20
50
50
50
88
88
88
ENDCHAR
STARTCHAR N-ARY LOGICAL OR
ENCODING 8897
SWIDTH 533 0
DWIDTH 5 0
BBX 5 9 0 -1
BITMAP
88
88
88
50
50
50
20
20
20
ENDCHAR
STARTCHAR N-ARY INTERSECTION
ENCODING 8898
SWIDTH 533 0
DWIDTH 5 0
BBX 5 9 0 -1
BITMAP
70
88
88
88
88
88
88
88
88
ENDCHAR
STARTCHAR N-ARY UNION
ENCODING 8899
SWIDTH 533 0
DWIDTH 5 0
BBX 5 9 0 -1
BITMAP
88
88
88
88
88
88
88
88
70
ENDCHAR
STARTCHAR DIAMOND OPERATOR
ENCODING 8900
SWIDTH 533 0
DWIDTH 5 0
BBX 5 5 0 1
BITMAP
20
50
88
50
20
ENDCHAR
STARTCHAR DOT OPERATOR
ENCODING 8901
SWIDTH 320 0
DWIDTH 3 0
BBX 2 2 1 2
BITMAP
C0
C0
ENDCHAR
STARTCHAR STAR OPERATOR
ENCODING 8902
SWIDTH 640 0
DWIDTH 6 0
BBX 5 5 0 1
BITMAP
20
20
F8
70
88
ENDCHAR
STARTCHAR DIVISION TIMES
ENCODING 8903
SWIDTH 533 0
DWIDTH 5 0
BBX 5 7 0 0
BITMAP
20
88
50
F8
50
88
20
ENDCHAR
STARTCHAR BOWTIE
ENCODING 8904
SWIDTH 533 0
DWIDTH 5 0
BBX 5 5 0 1
BITMAP
88
D8
A8
D8
88
ENDCHAR
STARTCHAR LEFT NORMAL FACTOR SEMIDIRECT PRODUCT
ENCODING 8905
SWIDTH 533 0
DWIDTH 5 0
BBX 5 5 0 1
BITMAP
88
D0
A0
D0
88
ENDCHAR
STARTCHAR RIGHT NORMAL FACTOR SEMIDIRECT PRODUCT
ENCODING 8906
SWIDTH 533 0
DWIDTH 5 0
BBX 5 5 0 1
BITMAP
88
58
28
58
88
ENDCHAR
STARTCHAR LEFT SEMIDIRECT PRODUCT
ENCODING 8907
SWIDTH 533 0
DWIDTH 5 0
BBX 5 5 0 1
BITMAP
80
40
20
50
88
ENDCHAR
STARTCHAR RIGHT SEMIDIRECT PRODUCT
ENCODING 8908
SWIDTH 533 0
DWIDTH 5 0
BBX 5 5 0 1
BITMAP
08
10
20
50
88
ENDCHAR
STARTCHAR REVERSED TILDE EQUALS
ENCODING 8909
SWIDTH 533 0
DWIDTH 5 0
BBX 5 4 0 2
BITMAP
B0
68
00
F8
ENDCHAR
STARTCHAR CURLY LOGICAL OR
ENCODING 8910
SWIDTH 533 0
DWIDTH 5 0
BBX 5 6 0 0
BITMAP
88
50
50
20
20
20
ENDCHAR
STARTCHAR CURLY LOGICAL AND
ENCODING 8911
SWIDTH 533 0
DWIDTH 5 0
BBX 5 6 0 0
BITMAP
20
20
20
50
50
88
ENDCHAR
STARTCHAR DOUBLE SUBSET
ENCODING 8912
SWIDTH 533 0
DWIDTH 5 0
BBX 5 7 0 0
BITMAP
38
40
98
A0
98
40
38
ENDCHAR
STARTCHAR DOUBLE SUPERSET
ENCODING 8913
SWIDTH 533 0
DWIDTH 5 0
BBX 5 7 0 0
BITMAP
E0
10
C8
28
C8
10
E0
ENDCHAR
STARTCHAR DOUBLE INTERSECTION
ENCODING 8914
SWIDTH 533 0
DWIDTH 5 0
BBX 5 5 0 1
BITMAP
70
88
A8
A8
A8
ENDCHAR
STARTCHAR DOUBLE UNION
ENCODING 8915
SWIDTH 533 0
DWIDTH 5 0
BBX 5 5 0 1
BITMAP
A8
A8
A8
88
70
ENDCHAR
STARTCHAR PITCHFORK
ENCODING 8916
SWIDTH 533 0
DWIDTH 5 0
BBX 5 7 0 1
BITMAP
20
20
70
A8
A8
A8
A8
ENDCHAR
STARTCHAR EQUAL AND PARALLEL TO
ENCODING 8917
SWIDTH 533 0
DWIDTH 5 0
BBX 5 7 0 0
BITMAP
50
50
F8
50
F8
50
50
ENDCHAR
STARTCHAR LESS-THAN WITH DOT
ENCODING 8918
SWIDTH 533 0
DWIDTH 5 0
BBX 5 5 0 1
BITMAP
18
60
88
60
18
ENDCHAR
STARTCHAR GREATER-THAN WITH DOT
ENCODING 8919
SWIDTH 533 0
DWIDTH 5 0
BBX 5 5 0 1
BITMAP
C0
30
88
30
C0
ENDCHAR
STARTCHAR VERY MUCH LESS-THAN
ENCODING 8920
SWIDTH 640 0
DWIDTH 6 0
BBX 6 3 0 2
BITMAP
54
A8
54
ENDCHAR
STARTCHAR VERY MUCH GREATER-THAN
ENCODING 8921
SWIDTH 640 0
DWIDTH 6 0
BBX 6 3 0 2
BITMAP
A8
54
A8
ENDCHAR
STARTCHAR LESS-THAN EQUAL TO OR GREATER-THAN
ENCODING 8922
SWIDTH 533 0
DWIDTH 5 0
BBX 5 11 0 -2
BITMAP
18
60
80
60
18
F8
C0
30
08
30
C0
ENDCHAR
STARTCHAR GREATER-THAN EQUAL TO OR LESS-THAN
ENCODING 8923
SWIDTH 533 0
DWIDTH 5 0
BBX 5 11 0 -2
BITMAP
C0
30
08
30
C0
F8
18
60
80
60
18
ENDCHAR
STARTCHAR EQUAL TO OR LESS-THAN
ENCODING 8924
SWIDTH 533 0
DWIDTH 5 0
BBX 5 7 0 1
BITMAP
F8
00
18
60
80
60
18
ENDCHAR
STARTCHAR EQUAL TO OR GREATER-THAN
ENCODING 8925
SWIDTH 533 0
DWIDTH 5 0
BBX 5 7 0 1
BITMAP
F8
00
C0
30
08
30
C0
ENDCHAR
STARTCHAR EQUAL TO OR PRECEDES
ENCODING 8926
SWIDTH 533 0
DWIDTH 5 0
BBX 5 7 0 1
BITMAP
08
30
C8
30
C0
30
08
ENDCHAR
STARTCHAR EQUAL TO OR SUCCEEDS
ENCODING 8927
SWIDTH 533 0
DWIDTH 5 0
BBX 5 7 0 1
BITMAP
80
60
98
60
18
60
80
ENDCHAR
STARTCHAR DOES NOT PRECEDE OR EQUAL
ENCODING 8928
SWIDTH 533 0
DWIDTH 5 0
BBX 5 10 0 -2
BITMAP
08
08
18
30
E0
30
C8
70
88
80
ENDCHAR
STARTCHAR DOES NOT SUCCEED OR EQUAL
ENCODING 8929
SWIDTH 533 0
DWIDTH 5 0
BBX 5 10 0 -2
BITMAP
08
08
90
70
38
60
D8
60
80
80
ENDCHAR
STARTCHAR NOT SQUARE IMAGE OF OR EQUAL TO
ENCODING 8930
SWIDTH 640 0
DWIDTH 6 0
BBX 5 10 0 -2
BITMAP
08
08
F8
90
A0
A0
F8
40
F8
80
ENDCHAR
STARTCHAR NOT SQUARE ORIGINAL OF OR EQUAL TO
ENCODING 8931
SWIDTH 533 0
DWIDTH 5 0
BBX 5 10 0 -2
BITMAP
08
08
F8
18
28
28
F8
40
F8
80
ENDCHAR
STARTCHAR SQUARE IMAGE OF OR NOT EQUAL TO
ENCODING 8932
SWIDTH 640 0
DWIDTH 6 0
BBX 5 8 0 -2
BITMAP
F8
80
80
80
F8
10
F8
40
ENDCHAR
STARTCHAR SQUARE ORIGINAL OF OR NOT EQUAL TO
ENCODING 8933
SWIDTH 640 0
DWIDTH 6 0
BBX 5 8 0 -2
BITMAP
F8
08
08
08
F8
10
F8
40
ENDCHAR
STARTCHAR LESS-THAN BUT NOT EQUIVALENT TO
ENCODING 8934
SWIDTH 533 0
DWIDTH 5 0
BBX 5 9 0 -3
BITMAP
18
60
80
60
18
10
68
B0
40
ENDCHAR
STARTCHAR GREATER-THAN BUT NOT EQUIVALENT TO
ENCODING 8935
SWIDTH 533 0
DWIDTH 5 0
BBX 5 9 0 -3
BITMAP
C0
30
08
30
C0
10
68
B0
40
ENDCHAR
STARTCHAR PRECEDES BUT NOT EQUIVALENT TO
ENCODING 8936
SWIDTH 533 0
DWIDTH 5 0
BBX 5 9 0 -3
BITMAP
08
30
C0
30
08
10
68
B0
40
ENDCHAR
STARTCHAR SUCCEEDS BUT NOT EQUIVALENT TO
ENCODING 8937
SWIDTH 533 0
DWIDTH 5 0
BBX 5 9 0 -3
BITMAP
80
60
18
60
80
10
68
B0
40
ENDCHAR
STARTCHAR NOT NORMAL SUBGROUP OF
ENCODING 8938
SWIDTH 533 0
DWIDTH 5 0
BBX 5 10 0 -2
BITMAP
08
08
18
78
A8
68
58
40
80
80
ENDCHAR
STARTCHAR DOES NOT CONTAIN AS NORMAL SUBGROUP
ENCODING 8939
SWIDTH 533 0
DWIDTH 5 0
BBX 5 10 0 -2
BITMAP
08
08
D0
B0
A8
B0
C0
40
80
80
ENDCHAR
STARTCHAR NOT NORMAL SUBGROUP OF OR EQUAL TO
ENCODING 8940
SWIDTH 533 0
DWIDTH 5 0
BBX 5 10 0 -2
BITMAP
08
08
18
78
A8
68
58
40
F8
80
ENDCHAR
STARTCHAR DOES NOT CONTAIN AS NORMAL SUBGROUP OR EQUAL
ENCODING 8941
SWIDTH 533 0
DWIDTH 5 0
BBX 5 10 0 -2
BITMAP
08
08
D0
B0
A8
B0
C0
40
F8
80
ENDCHAR
ENDFONT
